<svg width="80" height="80" viewBox="0 0 80 80" fill="none" xmlns="http://www.w3.org/2000/svg">
<mask id="path-1-inside-1_77_21749" fill="white">
<path d="M0 8C0 3.58172 3.58172 0 8 0H72C76.4183 0 80 3.58172 80 8V72C80 76.4183 76.4183 80 72 80H8C3.58172 80 0 76.4183 0 72V8Z"/>
</mask>
<path d="M8 0V0.6H72V0V-0.6H8V0ZM80 8H79.4V72H80H80.6V8H80ZM72 80V79.4H8V80V80.6H72V80ZM0 72H0.6V8H0H-0.6V72H0ZM8 80V79.4C3.91309 79.4 0.6 76.0869 0.6 72H0H-0.6C-0.6 76.7496 3.25035 80.6 8 80.6V80ZM80 72H79.4C79.4 76.0869 76.0869 79.4 72 79.4V80V80.6C76.7496 80.6 80.6 76.7496 80.6 72H80ZM72 0V0.6C76.0869 0.6 79.4 3.91309 79.4 8H80H80.6C80.6 3.25035 76.7496 -0.6 72 -0.6V0ZM8 0V-0.6C3.25035 -0.6 -0.6 3.25035 -0.6 8H0H0.6C0.6 3.91309 3.91309 0.6 8 0.6V0Z" fill="white" mask="url(#path-1-inside-1_77_21749)"/>
<path d="M38.9182 30.0104C45.362 30.0104 50.6055 35.2374 50.6055 41.661C50.6055 48.0847 45.362 53.3117 38.9182 53.3117C32.4744 53.3117 27.231 48.0847 27.231 41.661C27.231 35.2374 32.4744 30.0104 38.9182 30.0104ZM38.9182 28.2785C31.511 28.2785 25.4937 34.277 25.4937 41.661C25.4937 49.045 31.511 55.0436 38.9182 55.0436C46.3255 55.0436 52.3428 49.045 52.3428 41.661C52.3428 34.277 46.3412 28.2785 38.9182 28.2785Z" fill="#D7702D"/>
<path d="M38.839 58.523V68.1112C38.839 68.615 38.4283 69.0243 37.923 69.0243H34.2114C33.7061 69.0243 33.2954 68.615 33.2954 68.1269L33.2322 63.0416C33.2322 62.6794 33.0111 62.3488 32.6637 62.2071L28.9522 60.6642C28.6047 60.5225 28.2099 60.6012 27.9414 60.8689L24.3562 64.5058C23.993 64.8679 23.4086 64.8679 23.0453 64.5058L15.954 57.3737C15.6066 57.0115 15.6066 56.4448 15.954 56.0826L19.476 52.5717C19.7445 52.304 19.8234 51.9104 19.6655 51.5641L17.9756 47.691C17.8335 47.3604 17.5018 47.14 17.1385 47.14H13.1743C12.6689 47.14 12.2583 46.7306 12.2583 46.2268V36.9692C12.2583 36.4654 12.6689 36.0561 13.1743 36.0561H17.3123C17.6755 36.0561 17.9914 35.8514 18.1493 35.5208L19.8235 31.9468C19.9814 31.6162 19.9182 31.2069 19.6655 30.9392L16.1751 27.2079C15.8435 26.8457 15.8435 26.279 16.2067 25.9326L23.0927 19.1468C23.4402 18.8005 24.0088 18.8005 24.372 19.1311L28.0519 22.6106C28.3204 22.8625 28.7153 22.9254 29.0469 22.7837L32.7742 21.1778C33.1059 21.0361 33.327 20.7055 33.327 20.3434V15.4312C33.327 14.9274 33.7376 14.5181 34.243 14.5181H38.0177C38.5231 14.5181 38.9337 14.9274 38.9337 15.4312V24.9057" stroke="white" stroke-miterlimit="10"/>
<path d="M44.7998 17.6604L44.6037 26.1688" stroke="#D7702D" stroke-miterlimit="10"/>
<path d="M54.1116 17.2785V20.8158C54.1116 21.1936 53.9221 21.54 53.6062 21.7604L50.7634 23.5867C50.4317 23.7914 50.2422 24.1535 50.2422 24.5314V29.7899" stroke="#D7702D" stroke-miterlimit="10"/>
<path d="M64 32.1509L59.4183 32.0413C58.9919 32.0413 58.597 32.2775 58.4075 32.6711L57.2546 35.017C57.0651 35.4106 56.6702 35.6625 56.228 35.6625H54.1274" stroke="#D7702D" stroke-miterlimit="10"/>
<path d="M63.4 41.5823H55.8174" stroke="#D7702D" stroke-miterlimit="10"/>
<path d="M62.1032 51.013H59.5604C59.1972 51.013 58.8655 50.8241 58.676 50.5092L57.2072 48.0374C57.0019 47.691 56.6228 47.4706 56.2122 47.4706H54.1274" stroke="#D7702D" stroke-miterlimit="10"/>
<path d="M54.1116 64.7577V62.2544C54.1116 61.8607 53.8905 61.4986 53.5588 61.3097L50.8266 59.8298C50.4633 59.6408 50.2422 59.263 50.2422 58.8536V52.7606" stroke="#D7702D" stroke-miterlimit="10"/>
<path d="M44.604 67.1698V56.7124" stroke="#D7702D" stroke-miterlimit="10"/>
<path d="M38.839 26.3891C40.5763 26.3891 42.2662 26.6725 43.893 27.2393C49.9893 29.3805 54.0798 35.1429 54.0798 41.5823C54.0798 49.9582 47.2412 56.7754 38.839 56.7754C30.4368 56.7754 23.5981 49.9582 23.5981 41.5823C23.5981 33.2064 30.4368 26.3891 38.839 26.3891ZM38.839 24.6573C29.4576 24.6573 21.8608 32.2302 21.8608 41.5823C21.8608 50.9343 29.4576 58.5072 38.839 58.5072C48.2204 58.5072 55.8171 50.9343 55.8171 41.5823C55.8171 34.1982 51.0791 27.9163 44.4615 25.6019C42.7084 24.9879 40.8132 24.6573 38.839 24.6573Z" fill="white"/>
<path d="M44.604 14.2781C45.5242 14.2783 46.2671 15.0218 46.2671 15.9353C46.2669 16.8487 45.5241 17.5914 44.604 17.5916C43.6838 17.5916 42.9401 16.8488 42.9399 15.9353C42.9399 15.0217 43.6837 14.2781 44.604 14.2781Z" fill="white" stroke="#D7702D" stroke-miterlimit="10"/>
<path d="M54.1118 14.2781C55.032 14.2783 55.7749 15.0218 55.7749 15.9353C55.7748 16.8487 55.0319 17.5914 54.1118 17.5916C53.1916 17.5916 52.4479 16.8488 52.4478 15.9353C52.4478 15.0217 53.1915 14.2781 54.1118 14.2781Z" fill="white" stroke="#D7702D" stroke-miterlimit="10"/>
<path d="M64.52 30.3844C65.4402 30.3846 66.1831 31.1281 66.1831 32.0416C66.183 32.955 65.4401 33.6977 64.52 33.6979C63.5998 33.6979 62.8561 32.9551 62.856 32.0416C62.856 31.128 63.5997 30.3844 64.52 30.3844Z" fill="white" stroke="#D7702D" stroke-miterlimit="10"/>
<path d="M64.52 40.1143C65.4402 40.1144 66.1831 40.858 66.1831 41.7715C66.183 42.6849 65.4401 43.4276 64.52 43.4277C63.5998 43.4277 62.8561 42.685 62.856 41.7715C62.856 40.8579 63.5997 40.1143 64.52 40.1143Z" fill="white" stroke="#D7702D" stroke-miterlimit="10"/>
<path d="M63.7642 49.5566C64.6843 49.5568 65.4272 50.3003 65.4272 51.2138C65.4271 52.1272 64.6842 52.8699 63.7642 52.8701C62.8439 52.8701 62.1002 52.1273 62.1001 51.2138C62.1001 50.3002 62.8438 49.5566 63.7642 49.5566Z" fill="white" stroke="#D7702D" stroke-miterlimit="10"/>
<path d="M54.1641 64.0472C55.0842 64.0474 55.8271 64.7909 55.8271 65.7044C55.827 66.6178 55.0841 67.3605 54.1641 67.3607C53.2438 67.3607 52.5001 66.6179 52.5 65.7044C52.5 64.7908 53.2437 64.0472 54.1641 64.0472Z" fill="white" stroke="#D7702D" stroke-miterlimit="10"/>
<path d="M44.564 66.4623C45.4841 66.4625 46.2271 67.206 46.2271 68.1195C46.2269 69.0329 45.4841 69.7756 44.564 69.7758C43.6437 69.7758 42.9001 69.033 42.8999 68.1195C42.8999 67.2059 43.6436 66.4623 44.564 66.4623Z" fill="white" stroke="#D7702D" stroke-miterlimit="10"/>
<path d="M42.9385 45.2577V37.0523C42.9385 36.6261 43.0359 36.3064 43.2307 36.0932C43.4255 35.8801 43.6773 35.7736 43.9861 35.7736C44.3044 35.7736 44.5609 35.8801 44.7557 36.0932C44.9553 36.3016 45.0551 36.6213 45.0551 37.0523V45.2577C45.0551 45.6886 44.9553 46.0107 44.7557 46.2238C44.5609 46.437 44.3044 46.5435 43.9861 46.5435C43.682 46.5435 43.4302 46.437 43.2307 46.2238C43.0359 46.006 42.9385 45.6839 42.9385 45.2577Z" fill="white"/>
<path d="M39.0331 45.1866L38.5342 43.8794H34.2868L33.7879 45.215C33.5931 45.736 33.4269 46.0888 33.2891 46.2736C33.1513 46.4535 32.9256 46.5435 32.6121 46.5435C32.346 46.5435 32.1108 46.4464 31.9065 46.2522C31.7022 46.0581 31.6001 45.8378 31.6001 45.5916C31.6001 45.4495 31.6239 45.3026 31.6714 45.1511C31.7189 44.9995 31.7973 44.7888 31.9065 44.5188L34.579 37.7556C34.655 37.5614 34.7453 37.3294 34.8498 37.0594C34.9591 36.7847 35.0731 36.5574 35.1919 36.3774C35.3154 36.1974 35.4745 36.053 35.6693 35.9441C35.8689 35.8304 36.1136 35.7736 36.4034 35.7736C36.6979 35.7736 36.9426 35.8304 37.1374 35.9441C37.3369 36.053 37.4961 36.1951 37.6149 36.3703C37.7384 36.5455 37.8405 36.735 37.9213 36.9386C38.0068 37.1376 38.1137 37.4052 38.242 37.7414L40.9715 44.462C41.1853 44.9735 41.2922 45.3453 41.2922 45.5773C41.2922 45.8189 41.19 46.0415 40.9857 46.2451C40.7862 46.4441 40.5439 46.5435 40.2588 46.5435C40.0925 46.5435 39.95 46.5127 39.8312 46.4512C39.7124 46.3943 39.6127 46.3162 39.5319 46.2167C39.4511 46.1125 39.3632 45.9562 39.2682 45.7478C39.178 45.5347 39.0996 45.3476 39.0331 45.1866ZM34.8427 42.2952H37.9641L36.3891 37.9972L34.8427 42.2952Z" fill="white"/>
</svg>
