<svg width="73" height="73" viewBox="0 0 73 73" fill="none" xmlns="http://www.w3.org/2000/svg">
<g filter="url(#filter0_i_11_557)">
<rect x="0.5" y="0.5" width="72" height="72" rx="8" fill="#FCFBFF"/>
<rect x="0.5" y="0.5" width="72" height="72" rx="8" stroke="white"/>
<path d="M36.1851 26.824C41.364 26.824 45.5782 31.025 45.5782 36.1877C45.5782 41.3504 41.364 45.5514 36.1851 45.5514C31.0062 45.5514 26.792 41.3504 26.792 36.1877C26.792 31.025 31.0062 26.824 36.1851 26.824ZM36.1851 25.4321C30.2319 25.4321 25.3958 30.2532 25.3958 36.1877C25.3958 42.1223 30.2319 46.9433 36.1851 46.9433C42.1383 46.9433 46.9745 42.1223 46.9745 36.1877C46.9745 30.2532 42.151 25.4321 36.1851 25.4321Z" fill="#928DD3"/>
<path d="M36.4218 49.5228V57.2629C36.4218 57.6696 36.0832 58 35.6664 58H32.6054C32.1886 58 31.8499 57.6696 31.8499 57.2756L31.7978 53.1704C31.7978 52.8781 31.6155 52.6112 31.3289 52.4968L28.2679 51.2513C27.9813 51.1369 27.6557 51.2005 27.4343 51.4165L24.4775 54.3524C24.1779 54.6447 23.696 54.6447 23.3964 54.3524L17.548 48.595C17.2614 48.3027 17.2614 47.8452 17.548 47.5529L20.4526 44.7187C20.6741 44.5026 20.7392 44.1849 20.6089 43.9053L19.2152 40.7787C19.098 40.5118 18.8245 40.3339 18.5249 40.3339H15.2555C14.8387 40.3339 14.5 40.0035 14.5 39.5968V32.1236C14.5 31.7169 14.8387 31.3865 15.2555 31.3865H18.6681C18.9677 31.3865 19.2282 31.2213 19.3585 30.9544L20.7392 28.0693C20.8694 27.8024 20.8173 27.472 20.6089 27.2559L17.7303 24.2438C17.4568 23.9515 17.4568 23.4939 17.7564 23.2143L23.4355 17.7366C23.722 17.457 24.1909 17.457 24.4905 17.7239L27.5255 20.5326C27.7469 20.736 28.0725 20.7868 28.3461 20.6724L31.4201 19.3761C31.6936 19.2617 31.876 18.9948 31.876 18.7025V14.7371C31.876 14.3304 32.2146 14 32.6314 14H35.7445C36.1613 14 36.5 14.3304 36.5 14.7371V22.3854" stroke="#6E4C9B" stroke-miterlimit="10"/>
<path d="M40.9124 16.8983L40.7547 23.7366" stroke="#928DD3" stroke-miterlimit="10"/>
<path d="M48.5 17V19.8273C48.5 20.1293 48.3531 20.4061 48.1082 20.5823L45.9041 22.042C45.6469 22.2056 45.5 22.495 45.5 22.797V27" stroke="#928DD3" stroke-miterlimit="10"/>
<path d="M56.5 28.0908L52.7873 28C52.4418 28 52.1218 28.1957 51.9682 28.5217L51.034 30.4652C50.8804 30.7913 50.5605 31 50.2021 31H48.5" stroke="#928DD3" stroke-miterlimit="10"/>
<path d="M55.5 36H49.5" stroke="#928DD3" stroke-miterlimit="10"/>
<path d="M54.5 44H52.5871C52.3139 44 52.0644 43.84 51.9218 43.5733L50.8168 41.48C50.6624 41.1867 50.3772 41 50.0683 41H48.5" stroke="#928DD3" stroke-miterlimit="10"/>
<path d="M48.5 55V52.9134C48.5 52.5853 48.3286 52.2835 48.0714 52.126L45.9531 50.8924C45.6714 50.7349 45.5 50.4199 45.5 50.0787V45" stroke="#928DD3" stroke-miterlimit="10"/>
<path d="M40.5 57V48" stroke="#928DD3" stroke-miterlimit="10"/>
<path d="M36.1215 23.9136C37.5177 23.9136 38.8759 24.1414 40.1834 24.5969C45.083 26.3178 48.3706 30.949 48.3706 36.1244C48.3706 42.8561 42.8744 48.3351 36.1215 48.3351C29.3686 48.3351 23.8723 42.8561 23.8723 36.1244C23.8723 29.3927 29.3686 23.9136 36.1215 23.9136ZM36.1215 22.5217C28.5816 22.5217 22.4761 28.6081 22.4761 36.1244C22.4761 43.6406 28.5816 49.727 36.1215 49.727C43.6614 49.727 49.7669 43.6406 49.7669 36.1244C49.7669 30.1898 45.9589 25.141 40.6403 23.2809C39.2314 22.7875 37.7082 22.5217 36.1215 22.5217Z" fill="#6E4C9B"/>
<path d="M41 14.5C41.5523 14.5 42 14.9477 42 15.5C42 16.0523 41.5523 16.5 41 16.5C40.4477 16.5 40 16.0523 40 15.5C40 14.9477 40.4477 14.5 41 14.5Z" fill="white" stroke="#928DD3" stroke-miterlimit="10"/>
<path d="M49 15.5C49.5523 15.5 50 15.9477 50 16.5C50 17.0523 49.5523 17.5 49 17.5C48.4477 17.5 48 17.0523 48 16.5C48 15.9477 48.4477 15.5 49 15.5Z" fill="white" stroke="#928DD3" stroke-miterlimit="10"/>
<path d="M57 27.5C57.5523 27.5 58 27.9477 58 28.5C58 29.0523 57.5523 29.5 57 29.5C56.4477 29.5 56 29.0523 56 28.5C56 27.9477 56.4477 27.5 57 27.5Z" fill="white" stroke="#928DD3" stroke-miterlimit="10"/>
<path d="M56 34.5C56.5523 34.5 57 34.9477 57 35.5C57 36.0523 56.5523 36.5 56 36.5C55.4477 36.5 55 36.0523 55 35.5C55 34.9477 55.4477 34.5 56 34.5Z" fill="white" stroke="#928DD3" stroke-miterlimit="10"/>
<path d="M55 42.5C55.5523 42.5 56 42.9477 56 43.5C56 44.0523 55.5523 44.5 55 44.5C54.4477 44.5 54 44.0523 54 43.5C54 42.9477 54.4477 42.5 55 42.5Z" fill="white" stroke="#928DD3" stroke-miterlimit="10"/>
<path d="M49 54.5C49.5523 54.5 50 54.9477 50 55.5C50 56.0523 49.5523 56.5 49 56.5C48.4477 56.5 48 56.0523 48 55.5C48 54.9477 48.4477 54.5 49 54.5Z" fill="white" stroke="#928DD3" stroke-miterlimit="10"/>
<path d="M41 56.5C41.5523 56.5 42 56.9477 42 57.5C42 58.0523 41.5523 58.5 41 58.5C40.4477 58.5 40 58.0523 40 57.5C40 56.9477 40.4477 56.5 41 56.5Z" fill="white" stroke="#928DD3" stroke-miterlimit="10"/>
<path d="M39.4163 39.0783V32.4837C39.4163 32.1411 39.4945 31.8842 39.6511 31.7129C39.8076 31.5416 40.01 31.4559 40.2582 31.4559C40.514 31.4559 40.7202 31.5416 40.8768 31.7129C41.0372 31.8804 41.1174 32.1373 41.1174 32.4837V39.0783C41.1174 39.4247 41.0372 39.6836 40.8768 39.8548C40.7202 40.0261 40.514 40.1118 40.2582 40.1118C40.0138 40.1118 39.8115 40.0261 39.6511 39.8548C39.4945 39.6798 39.4163 39.4209 39.4163 39.0783Z" fill="#6E4C9B"/>
<path d="M36.2774 39.0212L35.8764 37.9707H32.4628L32.0618 39.0441C31.9053 39.4628 31.7716 39.7464 31.6609 39.8948C31.5502 40.0395 31.3688 40.1118 31.1168 40.1118C30.903 40.1118 30.7139 40.0337 30.5498 39.8777C30.3856 39.7216 30.3035 39.5446 30.3035 39.3467C30.3035 39.2325 30.3226 39.1145 30.3607 38.9927C30.3989 38.8709 30.4619 38.7015 30.5498 38.4845L32.6976 33.0489C32.7587 32.8929 32.8312 32.7063 32.9153 32.4894C33.0031 32.2686 33.0947 32.0859 33.1902 31.9413C33.2895 31.7966 33.4174 31.6805 33.5739 31.593C33.7343 31.5016 33.9309 31.4559 34.1639 31.4559C34.4006 31.4559 34.5973 31.5016 34.7538 31.593C34.9142 31.6805 35.0421 31.7947 35.1376 31.9355C35.2368 32.0764 35.3189 32.2286 35.3839 32.3923C35.4526 32.5522 35.5385 32.7673 35.6416 33.0375L37.8353 38.4389C38.0071 38.8499 38.093 39.1488 38.093 39.3353C38.093 39.5294 38.0109 39.7083 37.8467 39.872C37.6863 40.0318 37.4916 40.1118 37.2625 40.1118C37.1289 40.1118 37.0143 40.087 36.9189 40.0376C36.8234 39.9919 36.7432 39.9291 36.6783 39.8491C36.6134 39.7654 36.5427 39.6398 36.4664 39.4723C36.3938 39.301 36.3308 39.1507 36.2774 39.0212ZM32.9095 36.6974H35.4182L34.1524 33.2431L32.9095 36.6974Z" fill="#6E4C9B"/>
</g>
<defs>
<filter id="filter0_i_11_557" x="-4" y="-5" width="77" height="78" filterUnits="userSpaceOnUse" color-interpolation-filters="sRGB">
<feFlood flood-opacity="0" result="BackgroundImageFix"/>
<feBlend mode="normal" in="SourceGraphic" in2="BackgroundImageFix" result="shape"/>
<feColorMatrix in="SourceAlpha" type="matrix" values="0 0 0 0 0 0 0 0 0 0 0 0 0 0 0 0 0 0 127 0" result="hardAlpha"/>
<feMorphology radius="1" operator="erode" in="SourceAlpha" result="effect1_innerShadow_11_557"/>
<feOffset dx="-4" dy="-5"/>
<feGaussianBlur stdDeviation="4.75"/>
<feComposite in2="hardAlpha" operator="arithmetic" k2="-1" k3="1"/>
<feColorMatrix type="matrix" values="0 0 0 0 0.572549 0 0 0 0 0.552941 0 0 0 0 0.827451 0 0 0 0.3 0"/>
<feBlend mode="normal" in2="shape" result="effect1_innerShadow_11_557"/>
</filter>
</defs>
</svg>
