<svg width="80" height="80" viewBox="0 0 80 80" fill="none" xmlns="http://www.w3.org/2000/svg">
<mask id="path-1-inside-1_77_21692" fill="white">
<path d="M0 8C0 3.58172 3.58172 0 8 0H72C76.4183 0 80 3.58172 80 8V72C80 76.4183 76.4183 80 72 80H8C3.58172 80 0 76.4183 0 72V8Z"/>
</mask>
<path d="M8 0V0.6H72V0V-0.6H8V0ZM80 8H79.4V72H80H80.6V8H80ZM72 80V79.4H8V80V80.6H72V80ZM0 72H0.6V8H0H-0.6V72H0ZM8 80V79.4C3.91309 79.4 0.6 76.0869 0.6 72H0H-0.6C-0.6 76.7496 3.25035 80.6 8 80.6V80ZM80 72H79.4C79.4 76.0869 76.0869 79.4 72 79.4V80V80.6C76.7496 80.6 80.6 76.7496 80.6 72H80ZM72 0V0.6C76.0869 0.6 79.4 3.91309 79.4 8H80H80.6C80.6 3.25035 76.7496 -0.6 72 -0.6V0ZM8 0V-0.6C3.25035 -0.6 -0.6 3.25035 -0.6 8H0H0.6C0.6 3.91309 3.91309 0.6 8 0.6V0Z" fill="white" mask="url(#path-1-inside-1_77_21692)"/>
<path d="M39.5952 25.6555C39.6786 25.6555 39.758 25.6721 39.814 25.7004C39.8653 25.7264 39.8852 25.755 39.8931 25.7853L39.894 25.7892L42.5854 35.5988L42.5874 35.6037C42.5892 35.6098 42.5887 35.6127 42.5874 35.6164C42.5852 35.6224 42.5765 35.6401 42.5483 35.6633L42.5405 35.6691C42.4914 35.7129 42.3995 35.7531 42.2778 35.7531H36.522C36.4367 35.7412 36.3713 35.7104 36.3325 35.676C36.3095 35.6555 36.3002 35.637 36.2964 35.6262C36.2934 35.6176 36.2931 35.6112 36.2944 35.6057L39.2944 25.7902V25.7892C39.3039 25.7582 39.3276 25.7276 39.3823 25.7004C39.44 25.6717 39.5177 25.6555 39.5952 25.6555Z" stroke="#D7702D" stroke-width="0.5"/>
<path d="M39.4082 25.4279C39.3848 25.436 39.3616 25.4465 39.3389 25.4591C39.2466 25.5105 39.1827 25.5919 39.1514 25.6886L39.1504 25.6925L36.1504 35.5021L36.1484 35.508C36.0954 35.6972 36.2006 35.8458 36.2871 35.9074C36.3115 35.9248 36.3657 35.9603 36.4463 35.9845C36.2812 35.9599 36.1487 35.8974 36.0635 35.8214C35.9572 35.7266 35.9349 35.6292 35.96 35.5451L38.96 25.7355C39.0038 25.5926 39.1662 25.4701 39.4082 25.4279ZM39.7676 25.4269C39.8651 25.4431 39.9554 25.4714 40.0303 25.5119C40.1467 25.5748 40.2129 25.6549 40.2373 25.7414L42.9277 35.5461V35.547C42.9498 35.6328 42.9238 35.7314 42.8154 35.8253C42.7294 35.8999 42.5979 35.9604 42.4355 35.9845C42.5161 35.9603 42.5703 35.9247 42.5947 35.9074C42.6713 35.8528 42.7882 35.7123 42.7324 35.5138L40.042 25.7052H40.04C40.0001 25.5458 39.8862 25.4642 39.7676 25.4269Z" stroke="#D7702D" stroke-width="0.5"/>
<path d="M5.21387 43.77L5.30176 43.7807L5.31543 43.7836C10.8087 45.0607 21.0308 47.2231 27.415 47.2231C28.2016 47.2231 28.9126 47.1869 29.5479 47.1225H29.5498C29.8776 47.0883 30.1863 47.0707 30.4668 47.0707C31.7983 47.0708 32.4988 47.4383 32.8018 47.9653V47.9662C33.1578 48.5821 33.1155 49.5439 32.835 50.6127C32.5639 51.6453 32.1076 52.6407 31.8135 53.2289C31.7278 53.385 31.5921 53.4564 31.4766 53.4594L31.4326 53.4555L30.6055 53.3549C28.5282 53.0905 24.6672 52.517 20.4199 51.4584L19.4336 51.2055C13.0122 49.5149 8.27691 47.3449 5.27539 44.7836L4.99023 44.5346L4.98926 44.5336C4.84866 44.4084 4.80369 44.2388 4.86914 44.059L4.87012 44.0561C4.89668 43.9822 4.94645 43.9033 5.00977 43.8481C5.06692 43.7983 5.13142 43.77 5.21387 43.77Z" stroke="white"/>
<path d="M74.7134 43.0005C74.8159 43.0006 74.8969 43.0374 74.9673 43.0992C75.0246 43.1496 75.0718 43.2152 75.105 43.2818L75.1333 43.3482C75.2021 43.5651 75.1454 43.7631 74.9731 43.9146C70.7535 47.5289 63.7007 49.7264 58.4429 50.9419C53.8692 51.9973 49.9266 52.4892 48.5259 52.6411C48.2545 52.1248 47.8264 51.2438 47.519 50.2857C47.3308 49.699 47.1929 49.0999 47.1577 48.5493C47.1224 47.9958 47.1933 47.5291 47.3823 47.1734C47.6805 46.6132 48.3809 46.23 49.7437 46.23C50.0242 46.23 50.3328 46.2466 50.6606 46.2808H50.6616C51.2892 46.3454 52.0091 46.3824 52.7954 46.3824C58.3063 46.3823 66.7161 44.761 72.3608 43.5181L74.5942 43.0142C74.6353 43.0047 74.6753 43.0005 74.7134 43.0005Z" stroke="white"/>
<path d="M17.8745 58.5148C15.2515 58.5148 13.1172 56.2871 13.1172 53.5494C13.1172 50.8118 15.2515 48.5841 17.8745 48.5841C20.4974 48.5841 22.6317 50.8118 22.6317 53.5494C22.6317 56.2871 20.4974 58.5148 17.8745 58.5148Z" fill="#D7702D"/>
<path d="M17.8746 48.9509C20.3089 48.9509 22.289 51.0176 22.289 53.5584C22.289 56.0992 20.3089 58.1658 17.8746 58.1658C15.4402 58.1658 13.4601 56.0992 13.4601 53.5584C13.4601 51.0176 15.4402 48.9509 17.8746 48.9509ZM17.8746 48.2352C15.0631 48.2352 12.7744 50.615 12.7744 53.5584C12.7744 56.5018 15.0545 58.8816 17.8746 58.8816C20.6946 58.8816 22.9747 56.5018 22.9747 53.5584C22.9747 50.615 20.6946 48.2352 17.8746 48.2352Z" fill="white"/>
<path d="M60.7158 58.5148C58.0928 58.5148 55.9585 56.2871 55.9585 53.5494C55.9585 50.8118 58.0928 48.5841 60.7158 48.5841C63.3387 48.5841 65.4731 50.8118 65.4731 53.5494C65.4731 56.2871 63.3387 58.5148 60.7158 58.5148Z" fill="#D7702D"/>
<path d="M60.7159 48.9509C63.1502 48.9509 65.1303 51.0176 65.1303 53.5584C65.1303 56.0992 63.1502 58.1658 60.7159 58.1658C58.2815 58.1658 56.3015 56.0992 56.3015 53.5584C56.3015 51.0176 58.2815 48.9509 60.7159 48.9509ZM60.7159 48.2352C57.9044 48.2352 55.6157 50.615 55.6157 53.5584C55.6157 56.5018 57.8958 58.8816 60.7159 58.8816C63.536 58.8816 65.816 56.5018 65.816 53.5584C65.816 50.615 63.5274 48.2352 60.7159 48.2352Z" fill="white"/>
<path d="M39.432 59.6421C45.0276 59.6421 49.5637 54.1586 49.5637 47.3943C49.5637 40.6301 45.0276 35.1465 39.432 35.1465C33.8364 35.1465 29.3003 40.6301 29.3003 47.3943C29.3003 54.1586 33.8364 59.6421 39.432 59.6421Z" fill="#070015"/>
<mask id="path-12-inside-2_77_21692" fill="white">
<path d="M39.4321 35.5044C44.8323 35.5044 49.221 40.8365 49.221 47.3944C49.221 53.9522 44.8323 59.2843 39.4321 59.2843C34.032 59.2843 29.6433 53.9522 29.6433 47.3944C29.6433 40.8365 34.032 35.5044 39.4321 35.5044ZM39.4321 34.7887C33.6462 34.7887 28.9575 40.434 28.9575 47.3944C28.9575 54.3547 33.6462 60 39.4321 60C45.218 60 49.9067 54.3547 49.9067 47.3944C49.9067 40.434 45.218 34.7887 39.4321 34.7887Z"/>
</mask>
<path d="M39.4321 35.5044C44.8323 35.5044 49.221 40.8365 49.221 47.3944C49.221 53.9522 44.8323 59.2843 39.4321 59.2843C34.032 59.2843 29.6433 53.9522 29.6433 47.3944C29.6433 40.8365 34.032 35.5044 39.4321 35.5044ZM39.4321 34.7887C33.6462 34.7887 28.9575 40.434 28.9575 47.3944C28.9575 54.3547 33.6462 60 39.4321 60C45.218 60 49.9067 54.3547 49.9067 47.3944C49.9067 40.434 45.218 34.7887 39.4321 34.7887Z" fill="#1D093D"/>
<path d="M39.4321 35.5044V36.5044C44.1068 36.5044 48.221 41.1981 48.221 47.3944H49.221H50.221C50.221 40.475 45.5577 34.5044 39.4321 34.5044V35.5044ZM49.221 47.3944H48.221C48.221 53.5907 44.1068 58.2843 39.4321 58.2843V59.2843V60.2843C45.5577 60.2843 50.221 54.3137 50.221 47.3944H49.221ZM39.4321 59.2843V58.2843C34.7574 58.2843 30.6433 53.5907 30.6433 47.3944H29.6433H28.6433C28.6433 54.3137 33.3065 60.2843 39.4321 60.2843V59.2843ZM29.6433 47.3944H30.6433C30.6433 41.1981 34.7574 36.5044 39.4321 36.5044V35.5044V34.5044C33.3065 34.5044 28.6433 40.475 28.6433 47.3944H29.6433ZM39.4321 34.7887V33.7887C32.9284 33.7887 27.9575 40.0632 27.9575 47.3944H28.9575H29.9575C29.9575 40.8047 34.364 35.7887 39.4321 35.7887V34.7887ZM28.9575 47.3944H27.9575C27.9575 54.7255 32.9284 61 39.4321 61V60V59C34.364 59 29.9575 53.984 29.9575 47.3944H28.9575ZM39.4321 60V61C45.9358 61 50.9067 54.7255 50.9067 47.3944H49.9067H48.9067C48.9067 53.984 44.5002 59 39.4321 59V60ZM49.9067 47.3944H50.9067C50.9067 40.0632 45.9358 33.7887 39.4321 33.7887V34.7887V35.7887C44.5002 35.7887 48.9067 40.8047 48.9067 47.3944H49.9067Z" fill="white" mask="url(#path-12-inside-2_77_21692)"/>
<path d="M34.207 46.4416C34.2756 45.359 35.1328 44.5091 36.1871 44.5091H39.2129V46.4416H34.207Z" fill="#D7702D"/>
<path d="M38.8701 44.8581V46.0748H34.6186C34.8243 45.368 35.45 44.8581 36.1872 44.8581H38.8701ZM39.5559 44.1423H36.1872C34.9014 44.1423 33.8643 45.2338 33.8643 46.5668V46.7905H39.5559V44.1423Z" fill="#D7702D"/>
<path d="M40.7817 46.4416V44.5091H43.8075C44.8619 44.5091 45.719 45.368 45.7876 46.4416H40.7817Z" fill="#D7702D"/>
<path d="M43.8076 44.8581C44.5448 44.8581 45.1791 45.377 45.3762 46.0748H41.1247V44.8581H43.8076ZM43.8076 44.1423H40.439V46.7905H46.1306V46.5668C46.1306 45.2338 45.0934 44.1423 43.8076 44.1423Z" fill="#D7702D"/>
<path d="M17.8142 54.7663C18.4154 54.7663 18.9028 54.2576 18.9028 53.6301C18.9028 53.0026 18.4154 52.4939 17.8142 52.4939C17.213 52.4939 16.7256 53.0026 16.7256 53.6301C16.7256 54.2576 17.213 54.7663 17.8142 54.7663Z" fill="#080016"/>
<path d="M60.6316 54.7663C61.2328 54.7663 61.7202 54.2576 61.7202 53.6301C61.7202 53.0026 61.2328 52.4939 60.6316 52.4939C60.0304 52.4939 59.543 53.0026 59.543 53.6301C59.543 54.2576 60.0304 54.7663 60.6316 54.7663Z" fill="#080016"/>
<path d="M17.8143 52.8517C18.2257 52.8517 18.56 53.2007 18.56 53.6301C18.56 54.0595 18.2257 54.4084 17.8143 54.4084C17.4028 54.4084 17.0685 54.0595 17.0685 53.6301C17.0685 53.2007 17.3943 52.8517 17.8143 52.8517ZM17.8143 52.136C17.0257 52.136 16.3828 52.807 16.3828 53.6301C16.3828 54.4532 17.0257 55.1242 17.8143 55.1242C18.6029 55.1242 19.2458 54.4532 19.2458 53.6301C19.2458 52.807 18.6029 52.136 17.8143 52.136Z" fill="#080016"/>
<path d="M60.6312 52.8517C61.0426 52.8517 61.3769 53.2007 61.3769 53.6301C61.3769 54.0595 61.0426 54.4084 60.6312 54.4084C60.2197 54.4084 59.8854 54.0595 59.8854 53.6301C59.8854 53.2007 60.2112 52.8517 60.6312 52.8517ZM60.6312 52.136C59.8426 52.136 59.1997 52.807 59.1997 53.6301C59.1997 54.4532 59.8426 55.1242 60.6312 55.1242C61.4198 55.1242 62.0626 54.4532 62.0626 53.6301C62.0626 52.807 61.4198 52.136 60.6312 52.136Z" fill="#080016"/>
<path d="M31.8208 50.454L33.5437 50.8745" stroke="#010101" stroke-miterlimit="10" stroke-linecap="round"/>
</svg>
