<svg width="967" height="294" viewBox="0 0 967 294" fill="none" xmlns="http://www.w3.org/2000/svg">
<path d="M450 103.366H517.308C525.592 103.366 532.308 110.082 532.308 118.366V187.866C532.307 196.15 525.592 202.866 517.308 202.866H450C441.716 202.866 435 196.15 435 187.866V118.366C435 110.082 441.716 103.366 450 103.366Z" fill="url(#paint0_linear_77_21626)"/>
<path d="M450 103.366H517.308C525.592 103.366 532.308 110.082 532.308 118.366V187.866C532.307 196.15 525.592 202.866 517.308 202.866H450C441.716 202.866 435 196.15 435 187.866V118.366C435 110.082 441.716 103.366 450 103.366Z" stroke="#CFB3FF" stroke-width="2"/>
<path d="M473.337 135.052C473.337 135.052 474.183 130.5 477.847 127.158C479.144 126.063 480.666 125.198 482.358 124.853C488.503 123.182 490.251 121.914 492.562 120.128C494.874 118.111 495.156 117.65 496.396 114.366C495.945 119.725 493.465 123.643 493.465 123.643C493.465 123.643 489.349 129.866 487.827 130.73C486.417 130.615 478.411 131.364 473.337 135.052Z" fill="#24043C"/>
<path d="M475.31 176.365C475.31 176.365 482.076 167.204 477.284 161.615C476.776 162.076 472.66 162.652 469.954 160.462C467.53 158.273 467.135 154.354 469.278 151.819C470.067 150.667 471.307 150.263 472.548 149.918C475.479 149.226 478.524 150.206 480.723 152.626C482.245 154.47 483.654 157.293 483.711 162.191C483.711 164.899 483.26 167.78 482.076 170.142C479.426 175.501 475.31 176.365 475.31 176.365Z" fill="#D06026"/>
<path d="M466.515 156.025C466.515 156.025 465.105 147.325 479.088 146.115C480.272 145.999 481.512 145.827 482.752 145.481C504.289 140.065 509.307 120.704 509.307 120.704C509.307 120.704 501.189 131.479 492.055 131.652C482.696 131.767 473.901 133.726 470.631 141.505C469.447 138.682 471.476 131.306 473.111 129.001C475.818 125.314 475.31 117.42 468.883 117.132C466.233 117.132 464.767 114.827 464.485 115C464.203 115.23 470.518 119.955 465.782 127.849C461.046 135.685 450.559 143.291 466.515 156.025Z" fill="#AC59FC"/>
<path d="M489.518 191.865C489.518 191.865 484.444 187.025 490.645 178.497C496.847 169.97 492.901 163.516 492.168 160.981C492.675 165.936 486.53 173.715 484.049 177.172C482.47 179.016 481.963 181.897 482.752 184.144C484.331 188.466 489.518 191.865 489.518 191.865Z" fill="#24043C"/>
<path d="M488.277 145.193C487.263 145.596 482.808 147.382 474.126 148.074C482.808 147.382 485.853 156.486 485.74 160.865C485.627 165.245 484.669 170.834 480.384 175.559C476.099 181.033 482.132 186.218 482.132 186.218C482.132 186.218 479.2 181.551 481.455 177.575C483.711 173.6 487.093 170.488 488.898 165.994C489.518 164.092 489.969 161.903 490.363 160.001C490.814 157.351 490.589 154.642 490.307 152.165C490.138 151.012 489.8 149.514 488.277 145.193Z" fill="#24043C"/>
<path d="M427.161 138.331L401.357 138.273C399.225 138.273 397.037 138.216 394.848 137.985C392.659 137.755 390.528 137.352 388.454 136.834C386.323 136.316 384.307 135.625 382.233 134.818C380.217 134.012 378.259 133.033 376.358 131.997C374.515 130.903 372.672 129.694 370.944 128.369C369.216 127.045 367.603 125.605 366.048 124.108L356.717 115.183L338.054 97.3329H338.112C330.681 91.6323 321.408 88.4078 312.019 88.2926L283.68 87.8319L227.059 86.8531C224.697 86.7955 222.336 86.7955 219.974 86.6803C217.613 86.5076 215.251 86.2773 212.947 85.759C210.643 85.2984 208.339 84.665 206.093 83.9164C204.941 83.5709 203.904 83.1103 202.752 82.6496C202.233 82.4193 201.657 82.189 201.139 81.9011L200.333 81.5556L199.526 81.1525C197.395 80.1161 195.379 78.8493 193.421 77.5249C191.462 76.2005 189.619 74.7034 187.891 73.0911C186.163 71.4788 184.55 69.7514 182.88 68.0815L177.926 63.0144L138.413 22.5922L178.214 62.8992L183.168 67.9088C184.838 69.5787 186.451 71.3061 188.179 72.8608C189.965 74.4155 191.75 75.9126 193.709 77.237C195.667 78.5614 197.683 79.7705 199.757 80.807L200.563 81.2101L201.369 81.5556C201.888 81.7859 202.464 82.0738 202.982 82.3041C204.077 82.7072 205.171 83.1679 206.265 83.5709C208.512 84.3771 210.758 84.9529 213.062 85.4135C215.366 85.8742 217.728 86.1045 220.032 86.2772C222.393 86.3924 224.755 86.3924 227.117 86.45L283.737 87.1986L312.077 87.6016C321.581 87.6592 331.085 90.8838 338.63 96.6995L357.35 114.492L366.681 123.36C368.237 124.857 369.792 126.239 371.52 127.563C373.19 128.887 374.976 130.039 376.819 131.076C378.662 132.112 380.621 133.033 382.579 133.84C384.537 134.588 386.611 135.279 388.627 135.797C390.701 136.258 392.774 136.661 394.905 136.891C397.037 137.122 399.11 137.179 401.299 137.179L427.104 137.122V138.331H427.161Z" fill="url(#paint1_linear_77_21626)"/>
<path d="M427.161 154.281L402.451 154.339C392.947 154.339 383.789 158.081 376.992 164.703L344.275 196.603C336.557 204.146 326.189 208.35 315.417 208.35H28.915" stroke="url(#paint2_linear_77_21626)" stroke-miterlimit="10"/>
<path d="M429.178 145.356H393.466C385.171 145.356 377.165 148.465 371.059 154.051L355.68 168.158C349.69 173.628 341.856 176.68 333.792 176.68H206.899C195.552 176.68 184.608 172.189 176.602 164.185L88.3007 76.2581C79.1999 67.1603 66.816 62.0931 53.9712 62.0931H16.1855" stroke="url(#paint3_linear_77_21626)" stroke-miterlimit="10"/>
<path d="M427.162 162.457H411.955C400.147 162.457 388.858 167.122 380.506 175.413L280.973 274.108C274.925 280.096 266.746 283.436 258.278 283.436H0" stroke="url(#paint4_linear_77_21626)" stroke-miterlimit="10"/>
<path d="M470.995 94.7417V83.5134C470.995 75.3368 467.885 67.5058 462.298 61.5749L439.258 37.0452" stroke="url(#paint5_linear_77_21626)" stroke-miterlimit="10"/>
<path d="M487.584 94.7417C487.584 94.7417 486.548 46.3157 487.584 37.0451C488.621 27.7745 491.616 21.2678 492.25 20.692" stroke="url(#paint6_linear_77_21626)" stroke-miterlimit="10"/>
<path d="M479.232 95.8358C479.232 95.8358 480.269 54.2044 479.232 44.8762C478.195 35.548 475.2 26.3926 474.566 25.8168" stroke="url(#paint7_linear_77_21626)" stroke-miterlimit="10"/>
<path d="M495.821 94.8569L495.879 84.9529C495.879 75.0488 498.759 68.6573 503.597 63.1295L523.815 41.4213" stroke="url(#paint8_linear_77_21626)" stroke-miterlimit="10"/>
<path d="M540.807 137.582L554.227 137.64C564.019 137.697 573.466 133.897 580.551 127.045L661.767 48.216C666.259 43.8398 672.307 41.4214 678.586 41.4214H757.901C765.389 41.4214 772.589 38.5999 778.061 33.4752L813.6 0.365845" stroke="url(#paint9_linear_77_21626)" stroke-miterlimit="10"/>
<path d="M540.807 146.047H555.783C563.501 146.047 570.989 143.225 576.749 138.158L594.202 122.899C600.826 117.083 609.351 113.916 618.221 113.916H740.967C751.795 113.916 762.221 109.771 770.112 102.285L804.039 70.0969C809.568 64.857 816.883 61.9203 824.487 61.9203H911.52" stroke="url(#paint10_linear_77_21626)" stroke-miterlimit="10"/>
<path d="M540.807 154.396H555.495C564.077 154.396 572.371 151.459 579.053 146.104L601.229 128.312C606.355 124.223 612.749 121.978 619.315 121.978H687.629C694.887 121.978 701.856 124.857 706.983 129.982L748.109 183.187C755.885 190.96 766.426 195.336 777.427 195.336H914.227" stroke="url(#paint11_linear_77_21626)" stroke-miterlimit="10"/>
<path d="M540.807 162.515L553.191 162.573C560.967 162.573 568.57 164.991 574.963 169.482L597.888 185.663C605.837 191.248 615.283 194.242 625.018 194.242H673.632C686.189 194.242 698.227 199.079 707.213 207.832L748.512 247.735C755.367 254.357 764.583 258.1 774.144 258.1H966.471" stroke="url(#paint12_linear_77_21626)" stroke-miterlimit="10"/>
<path d="M486.605 210.423C486.605 210.423 485.568 258.849 486.605 268.119C487.642 277.448 490.637 283.897 491.27 284.472" stroke="url(#paint13_linear_77_21626)" stroke-miterlimit="10"/>
<path d="M494.842 208.695L494.957 210.653C495.591 222.054 500.371 232.822 508.378 240.941L526.464 259.194C537.811 270.653 553.248 277.102 569.319 277.102H612.749C621.965 277.102 630.893 280.154 638.093 285.854L647.424 293.167" stroke="url(#paint14_linear_77_21626)" stroke-miterlimit="10"/>
<path d="M478.195 208.292V219.405C478.195 227.409 475.373 235.125 470.246 241.286L432.058 286.948" stroke="url(#paint15_linear_77_21626)" stroke-miterlimit="10"/>
<path d="M377.625 281.19L395.078 265.701C400.55 260.806 407.693 258.1 415.008 258.1H427.737C443.117 258.1 456.768 249.866 464.198 237.371C468.057 230.864 469.843 223.321 469.901 215.778L469.958 208.695" stroke="url(#paint16_linear_77_21626)" stroke-miterlimit="10"/>
<g opacity="0.4">
<path d="M767.901 110.519H767.094C769.513 109.598 771.817 108.389 773.949 107.007C776.08 105.567 778.096 103.955 779.997 102.285C783.798 98.83 787.254 95.0296 790.71 91.2293L796.413 85.7014C796.758 85.3559 797.277 85.3559 797.622 85.7014C797.968 86.0469 797.968 86.5652 797.622 86.9107L791.689 92.1506L791.747 92.093C788.176 95.7782 784.489 99.4634 780.515 102.746C778.499 104.415 776.425 105.913 774.179 107.237C771.99 108.561 769.629 109.713 767.152 110.519V110.461L767.901 110.519Z" fill="url(#paint17_linear_77_21626)"/>
</g>
<path d="M237.98 85.2984L279.568 86.7379L237.98 88.1775C237.174 88.1775 236.541 87.6016 236.483 86.7955C236.483 85.9894 237.059 85.356 237.865 85.2984C237.923 85.2984 237.98 85.2984 237.98 85.2984Z" fill="url(#paint18_linear_77_21626)"/>
<path d="M277.782 206.853L319.369 208.292L277.782 209.732C276.976 209.732 276.342 209.156 276.285 208.35C276.285 207.544 276.861 206.91 277.667 206.853C277.725 206.853 277.782 206.853 277.782 206.853Z" fill="url(#paint19_linear_77_21626)"/>
<path d="M327.053 175.241L332.813 175.413L335.693 175.528L337.133 175.586H338.515C342.144 175.413 345.658 174.031 348.941 172.074C350.554 171.095 352.166 170.058 353.722 168.907C354.47 168.331 355.277 167.755 356.026 167.179C356.774 166.603 357.466 165.912 358.214 165.337L366.97 157.793L358.675 165.855C357.984 166.546 357.293 167.237 356.602 167.87C355.853 168.504 355.104 169.137 354.413 169.77C352.915 170.98 351.36 172.189 349.747 173.283C348.134 174.377 346.406 175.356 344.563 176.162C342.72 176.968 340.762 177.486 338.746 177.717L337.248 177.832L335.808 177.889L332.928 178.004L327.168 178.177C326.362 178.177 325.728 177.601 325.67 176.795C325.67 175.989 326.246 175.356 327.053 175.298C326.995 175.241 327.053 175.241 327.053 175.241Z" fill="url(#paint20_linear_77_21626)"/>
<path d="M629.315 121.978L667.504 120.538C668.31 120.481 668.944 121.114 669.001 121.92C669.059 122.726 668.425 123.36 667.619 123.417C667.561 123.417 667.561 123.417 667.504 123.417L629.315 121.978Z" fill="url(#paint21_linear_77_21626)"/>
<path d="M538.71 261.901C540.093 262.995 541.475 264.146 542.915 265.125C543.664 265.643 544.355 266.162 545.104 266.622C545.853 267.083 546.602 267.601 547.35 268.004C550.403 269.789 553.629 271.229 556.912 272.438C563.536 274.799 570.506 275.835 577.418 275.605V278.426H576.726V275.547H577.418H577.533C578.339 275.547 578.915 276.238 578.915 276.987C578.915 277.793 578.224 278.369 577.475 278.369C570.218 278.139 563.018 276.526 556.451 273.705C553.168 272.265 550 270.538 547.005 268.58C546.256 268.119 545.565 267.544 544.816 267.025C544.067 266.507 543.434 265.931 542.685 265.413C541.36 264.319 540.035 263.11 538.71 261.901Z" fill="url(#paint22_linear_77_21626)"/>
<path d="M496.654 103.097V96.0722C496.654 94.5751 495.675 93.3658 494.408 93.3658H494.35C493.256 93.3658 492.334 94.4599 492.334 95.8418V103.097H496.654Z" fill="url(#paint23_linear_77_21626)" stroke="#C7BFFF" stroke-miterlimit="10"/>
<path d="M488.36 103.097V96.0722C488.36 94.5751 487.381 93.3658 486.114 93.3658H486.056C484.962 93.3658 484.04 94.4599 484.04 95.8418V103.097H488.36Z" fill="url(#paint24_linear_77_21626)" stroke="#C7BFFF" stroke-miterlimit="10"/>
<path d="M480.066 103.097V96.0722C480.066 94.5751 479.086 93.3658 477.819 93.3658H477.762C476.667 93.3658 475.746 94.4599 475.746 95.8418V103.097H480.066Z" fill="url(#paint25_linear_77_21626)" stroke="#C7BFFF" stroke-miterlimit="10"/>
<path d="M471.771 103.097V96.0722C471.771 94.5751 470.792 93.3658 469.525 93.3658H469.467C468.373 93.3658 467.451 94.4599 467.451 95.8418V103.097H471.771Z" fill="url(#paint26_linear_77_21626)" stroke="#C7BFFF" stroke-miterlimit="10"/>
<path d="M496.56 203.546V210.571C496.56 212.068 495.581 213.277 494.314 213.277H494.256C493.162 213.277 492.24 212.183 492.24 210.801V203.546H496.56Z" fill="url(#paint27_linear_77_21626)" stroke="#C7BFFF" stroke-miterlimit="10"/>
<path d="M488.266 203.546V210.571C488.266 212.068 487.287 213.277 486.019 213.277H485.962C484.867 213.277 483.946 212.183 483.946 210.801V203.546H488.266Z" fill="url(#paint28_linear_77_21626)" stroke="#C7BFFF" stroke-miterlimit="10"/>
<path d="M479.971 203.546V210.571C479.971 212.068 478.992 213.277 477.725 213.277H477.667C476.573 213.277 475.651 212.183 475.651 210.801V203.546H479.971Z" fill="url(#paint29_linear_77_21626)" stroke="#C7BFFF" stroke-miterlimit="10"/>
<path d="M471.735 203.546V210.571C471.735 212.068 470.755 213.277 469.488 213.277H469.431C468.336 213.277 467.415 212.183 467.415 210.801V203.546H471.735Z" fill="url(#paint30_linear_77_21626)" stroke="#C7BFFF" stroke-miterlimit="10"/>
<path d="M532.963 164.27H539.991C541.488 164.27 542.698 163.291 542.698 162.024V161.966C542.698 160.872 541.603 159.951 540.221 159.951H532.963V164.27Z" fill="url(#paint31_linear_77_21626)" stroke="#C7BFFF" stroke-miterlimit="10"/>
<path d="M532.963 147.686H539.991C541.488 147.686 542.698 146.707 542.698 145.441V145.383C542.698 144.289 541.603 143.368 540.221 143.368H532.963V147.686Z" fill="url(#paint32_linear_77_21626)" stroke="#C7BFFF" stroke-miterlimit="10"/>
<path d="M532.963 155.978H539.991C541.488 155.978 542.698 154.999 542.698 153.732V153.675C542.698 152.581 541.603 151.659 540.221 151.659H532.963V155.978Z" fill="url(#paint33_linear_77_21626)" stroke="#C7BFFF" stroke-miterlimit="10"/>
<path d="M532.963 139.452H539.991C541.488 139.452 542.698 138.473 542.698 137.206V137.149C542.698 136.055 541.603 135.133 540.221 135.133H532.963V139.452Z" fill="url(#paint34_linear_77_21626)" stroke="#C7BFFF" stroke-miterlimit="10"/>
<path d="M433.734 164.27H426.707C425.21 164.27 424 163.291 424 162.024V161.966C424 160.872 425.094 159.951 426.477 159.951H433.734V164.27Z" fill="url(#paint35_linear_77_21626)" stroke="#C7BFFF" stroke-miterlimit="10"/>
<path d="M433.734 155.978H426.707C425.21 155.978 424 154.999 424 153.732V153.675C424 152.581 425.094 151.659 426.477 151.659H433.734V155.978Z" fill="url(#paint36_linear_77_21626)" stroke="#C7BFFF" stroke-miterlimit="10"/>
<path d="M433.734 147.686H426.707C425.21 147.686 424 146.707 424 145.441V145.383C424 144.289 425.094 143.368 426.477 143.368H433.734V147.686Z" fill="url(#paint37_linear_77_21626)" stroke="#C7BFFF" stroke-miterlimit="10"/>
<path d="M433.734 139.452H426.707C425.21 139.452 424 138.473 424 137.206V137.149C424 136.055 425.094 135.133 426.477 135.133H433.734V139.452Z" fill="url(#paint38_linear_77_21626)" stroke="#C7BFFF" stroke-miterlimit="10"/>
<defs>
<linearGradient id="paint0_linear_77_21626" x1="441.506" y1="120.565" x2="528.845" y2="183.475" gradientUnits="userSpaceOnUse">
<stop stop-color="#CDC9EE"/>
<stop offset="0.51334" stop-color="#FAF9FF"/>
<stop offset="0.905217" stop-color="#C7BFFF"/>
</linearGradient>
<linearGradient id="paint1_linear_77_21626" x1="137.978" y1="80.4668" x2="427.164" y2="80.4668" gradientUnits="userSpaceOnUse">
<stop stop-color="#3A3B8B" stop-opacity="0"/>
<stop offset="0.0314132" stop-color="#4A4A98" stop-opacity="0.0506574"/>
<stop offset="0.1163" stop-color="#706EB8" stop-opacity="0.1875"/>
<stop offset="0.2047" stop-color="#908BD1" stop-opacity="0.33"/>
<stop offset="0.2962" stop-color="#A8A2E6" stop-opacity="0.4777"/>
<stop offset="0.3923" stop-color="#B9B2F4" stop-opacity="0.6326"/>
<stop offset="0.4958" stop-color="#C4BCFC" stop-opacity="0.7996"/>
<stop offset="0.6201" stop-color="#C7BFFF"/>
</linearGradient>
<linearGradient id="paint2_linear_77_21626" x1="28.9096" y1="181.268" x2="427.165" y2="181.268" gradientUnits="userSpaceOnUse">
<stop stop-color="#3A3B8B" stop-opacity="0"/>
<stop offset="0.0314132" stop-color="#4A4A98" stop-opacity="0.0506574"/>
<stop offset="0.1163" stop-color="#706EB8" stop-opacity="0.1875"/>
<stop offset="0.2047" stop-color="#908BD1" stop-opacity="0.33"/>
<stop offset="0.2962" stop-color="#A8A2E6" stop-opacity="0.4777"/>
<stop offset="0.3923" stop-color="#B9B2F4" stop-opacity="0.6326"/>
<stop offset="0.4958" stop-color="#C4BCFC" stop-opacity="0.7996"/>
<stop offset="0.6201" stop-color="#C7BFFF"/>
</linearGradient>
<linearGradient id="paint3_linear_77_21626" x1="16.2101" y1="119.391" x2="429.153" y2="119.391" gradientUnits="userSpaceOnUse">
<stop stop-color="#3A3B8B" stop-opacity="0"/>
<stop offset="0.0314132" stop-color="#4A4A98" stop-opacity="0.0506574"/>
<stop offset="0.1163" stop-color="#706EB8" stop-opacity="0.1875"/>
<stop offset="0.2047" stop-color="#908BD1" stop-opacity="0.33"/>
<stop offset="0.2962" stop-color="#A8A2E6" stop-opacity="0.4777"/>
<stop offset="0.3923" stop-color="#B9B2F4" stop-opacity="0.6326"/>
<stop offset="0.4958" stop-color="#C4BCFC" stop-opacity="0.7996"/>
<stop offset="0.6201" stop-color="#C7BFFF"/>
</linearGradient>
<linearGradient id="paint4_linear_77_21626" x1="-0.017568" y1="222.943" x2="427.165" y2="222.943" gradientUnits="userSpaceOnUse">
<stop stop-color="#3A3B8B" stop-opacity="0"/>
<stop offset="0.0314132" stop-color="#4A4A98" stop-opacity="0.0506574"/>
<stop offset="0.1163" stop-color="#706EB8" stop-opacity="0.1875"/>
<stop offset="0.2047" stop-color="#908BD1" stop-opacity="0.33"/>
<stop offset="0.2962" stop-color="#A8A2E6" stop-opacity="0.4777"/>
<stop offset="0.3923" stop-color="#B9B2F4" stop-opacity="0.6326"/>
<stop offset="0.4958" stop-color="#C4BCFC" stop-opacity="0.7996"/>
<stop offset="0.6201" stop-color="#C7BFFF"/>
</linearGradient>
<linearGradient id="paint5_linear_77_21626" x1="464.11" y1="50.7233" x2="446.63" y2="81.0097" gradientUnits="userSpaceOnUse">
<stop stop-color="#3A3B8B" stop-opacity="0"/>
<stop offset="0.0314132" stop-color="#4A4A98" stop-opacity="0.0506574"/>
<stop offset="0.1163" stop-color="#706EB8" stop-opacity="0.1875"/>
<stop offset="0.2047" stop-color="#908BD1" stop-opacity="0.33"/>
<stop offset="0.2962" stop-color="#A8A2E6" stop-opacity="0.4777"/>
<stop offset="0.3923" stop-color="#B9B2F4" stop-opacity="0.6326"/>
<stop offset="0.4958" stop-color="#C4BCFC" stop-opacity="0.7996"/>
<stop offset="0.6201" stop-color="#C7BFFF"/>
</linearGradient>
<linearGradient id="paint6_linear_77_21626" x1="489.604" y1="20.2573" x2="489.604" y2="94.7688" gradientUnits="userSpaceOnUse">
<stop stop-color="#3A3B8B" stop-opacity="0"/>
<stop offset="0.0314132" stop-color="#4A4A98" stop-opacity="0.0506574"/>
<stop offset="0.1163" stop-color="#706EB8" stop-opacity="0.1875"/>
<stop offset="0.2047" stop-color="#908BD1" stop-opacity="0.33"/>
<stop offset="0.2962" stop-color="#A8A2E6" stop-opacity="0.4777"/>
<stop offset="0.3923" stop-color="#B9B2F4" stop-opacity="0.6326"/>
<stop offset="0.4958" stop-color="#C4BCFC" stop-opacity="0.7996"/>
<stop offset="0.6201" stop-color="#C7BFFF"/>
</linearGradient>
<linearGradient id="paint7_linear_77_21626" x1="477.23" y1="25.3645" x2="477.23" y2="95.8227" gradientUnits="userSpaceOnUse">
<stop stop-color="#3A3B8B" stop-opacity="0"/>
<stop offset="0.0314132" stop-color="#4A4A98" stop-opacity="0.0506574"/>
<stop offset="0.1163" stop-color="#706EB8" stop-opacity="0.1875"/>
<stop offset="0.2047" stop-color="#908BD1" stop-opacity="0.33"/>
<stop offset="0.2962" stop-color="#A8A2E6" stop-opacity="0.4777"/>
<stop offset="0.3923" stop-color="#B9B2F4" stop-opacity="0.6326"/>
<stop offset="0.4958" stop-color="#C4BCFC" stop-opacity="0.7996"/>
<stop offset="0.6201" stop-color="#C7BFFF"/>
</linearGradient>
<linearGradient id="paint8_linear_77_21626" x1="521.773" y1="40.0805" x2="491.428" y2="92.6578" gradientUnits="userSpaceOnUse">
<stop stop-color="#3A3B8B" stop-opacity="0"/>
<stop offset="0.0314132" stop-color="#4A4A98" stop-opacity="0.0506574"/>
<stop offset="0.1163" stop-color="#706EB8" stop-opacity="0.1875"/>
<stop offset="0.2047" stop-color="#908BD1" stop-opacity="0.33"/>
<stop offset="0.2962" stop-color="#A8A2E6" stop-opacity="0.4777"/>
<stop offset="0.3923" stop-color="#B9B2F4" stop-opacity="0.6326"/>
<stop offset="0.4958" stop-color="#C4BCFC" stop-opacity="0.7996"/>
<stop offset="0.6201" stop-color="#C7BFFF"/>
</linearGradient>
<linearGradient id="paint9_linear_77_21626" x1="814" y1="69.1002" x2="540.828" y2="69.1002" gradientUnits="userSpaceOnUse">
<stop stop-color="#3A3B8B" stop-opacity="0"/>
<stop offset="0.0314132" stop-color="#4A4A98" stop-opacity="0.0506574"/>
<stop offset="0.1163" stop-color="#706EB8" stop-opacity="0.1875"/>
<stop offset="0.2047" stop-color="#908BD1" stop-opacity="0.33"/>
<stop offset="0.2962" stop-color="#A8A2E6" stop-opacity="0.4777"/>
<stop offset="0.3923" stop-color="#B9B2F4" stop-opacity="0.6326"/>
<stop offset="0.4958" stop-color="#C4BCFC" stop-opacity="0.7996"/>
<stop offset="0.6201" stop-color="#C7BFFF"/>
</linearGradient>
<linearGradient id="paint10_linear_77_21626" x1="911.54" y1="103.99" x2="540.831" y2="103.99" gradientUnits="userSpaceOnUse">
<stop stop-color="#3A3B8B" stop-opacity="0"/>
<stop offset="0.0314132" stop-color="#4A4A98" stop-opacity="0.0506574"/>
<stop offset="0.1163" stop-color="#706EB8" stop-opacity="0.1875"/>
<stop offset="0.2047" stop-color="#908BD1" stop-opacity="0.33"/>
<stop offset="0.2962" stop-color="#A8A2E6" stop-opacity="0.4777"/>
<stop offset="0.3923" stop-color="#B9B2F4" stop-opacity="0.6326"/>
<stop offset="0.4958" stop-color="#C4BCFC" stop-opacity="0.7996"/>
<stop offset="0.6201" stop-color="#C7BFFF"/>
</linearGradient>
<linearGradient id="paint11_linear_77_21626" x1="914.244" y1="158.633" x2="540.831" y2="158.633" gradientUnits="userSpaceOnUse">
<stop stop-color="#3A3B8B" stop-opacity="0"/>
<stop offset="0.0314132" stop-color="#4A4A98" stop-opacity="0.0506574"/>
<stop offset="0.1163" stop-color="#706EB8" stop-opacity="0.1875"/>
<stop offset="0.2047" stop-color="#908BD1" stop-opacity="0.33"/>
<stop offset="0.2962" stop-color="#A8A2E6" stop-opacity="0.4777"/>
<stop offset="0.3923" stop-color="#B9B2F4" stop-opacity="0.6326"/>
<stop offset="0.4958" stop-color="#C4BCFC" stop-opacity="0.7996"/>
<stop offset="0.6201" stop-color="#C7BFFF"/>
</linearGradient>
<linearGradient id="paint12_linear_77_21626" x1="966.516" y1="210.316" x2="540.829" y2="210.316" gradientUnits="userSpaceOnUse">
<stop stop-color="#3A3B8B" stop-opacity="0"/>
<stop offset="0.0314132" stop-color="#4A4A98" stop-opacity="0.0506574"/>
<stop offset="0.1163" stop-color="#706EB8" stop-opacity="0.1875"/>
<stop offset="0.2047" stop-color="#908BD1" stop-opacity="0.33"/>
<stop offset="0.2962" stop-color="#A8A2E6" stop-opacity="0.4777"/>
<stop offset="0.3923" stop-color="#B9B2F4" stop-opacity="0.6326"/>
<stop offset="0.4958" stop-color="#C4BCFC" stop-opacity="0.7996"/>
<stop offset="0.6201" stop-color="#C7BFFF"/>
</linearGradient>
<linearGradient id="paint13_linear_77_21626" x1="488.609" y1="284.914" x2="488.609" y2="210.402" gradientUnits="userSpaceOnUse">
<stop stop-color="#3A3B8B" stop-opacity="0"/>
<stop offset="0.0314132" stop-color="#4A4A98" stop-opacity="0.0506574"/>
<stop offset="0.1163" stop-color="#706EB8" stop-opacity="0.1875"/>
<stop offset="0.2047" stop-color="#908BD1" stop-opacity="0.33"/>
<stop offset="0.2962" stop-color="#A8A2E6" stop-opacity="0.4777"/>
<stop offset="0.3923" stop-color="#B9B2F4" stop-opacity="0.6326"/>
<stop offset="0.4958" stop-color="#C4BCFC" stop-opacity="0.7996"/>
<stop offset="0.6201" stop-color="#C7BFFF"/>
</linearGradient>
<linearGradient id="paint14_linear_77_21626" x1="647.767" y1="251.141" x2="494.24" y2="251.141" gradientUnits="userSpaceOnUse">
<stop stop-color="#3A3B8B" stop-opacity="0"/>
<stop offset="0.0314132" stop-color="#4A4A98" stop-opacity="0.0506574"/>
<stop offset="0.1163" stop-color="#706EB8" stop-opacity="0.1875"/>
<stop offset="0.2047" stop-color="#908BD1" stop-opacity="0.33"/>
<stop offset="0.2962" stop-color="#A8A2E6" stop-opacity="0.4777"/>
<stop offset="0.3923" stop-color="#B9B2F4" stop-opacity="0.6326"/>
<stop offset="0.4958" stop-color="#C4BCFC" stop-opacity="0.7996"/>
<stop offset="0.6201" stop-color="#C7BFFF"/>
</linearGradient>
<linearGradient id="paint15_linear_77_21626" x1="455.169" y1="287.323" x2="455.169" y2="208.279" gradientUnits="userSpaceOnUse">
<stop stop-color="#3A3B8B" stop-opacity="0"/>
<stop offset="0.0314132" stop-color="#4A4A98" stop-opacity="0.0506574"/>
<stop offset="0.1163" stop-color="#706EB8" stop-opacity="0.1875"/>
<stop offset="0.2047" stop-color="#908BD1" stop-opacity="0.33"/>
<stop offset="0.2962" stop-color="#A8A2E6" stop-opacity="0.4777"/>
<stop offset="0.3923" stop-color="#B9B2F4" stop-opacity="0.6326"/>
<stop offset="0.4958" stop-color="#C4BCFC" stop-opacity="0.7996"/>
<stop offset="0.6201" stop-color="#C7BFFF"/>
</linearGradient>
<linearGradient id="paint16_linear_77_21626" x1="423.885" y1="281.611" x2="423.885" y2="208.703" gradientUnits="userSpaceOnUse">
<stop stop-color="#3A3B8B" stop-opacity="0"/>
<stop offset="0.0314132" stop-color="#4A4A98" stop-opacity="0.0506574"/>
<stop offset="0.1163" stop-color="#706EB8" stop-opacity="0.1875"/>
<stop offset="0.2047" stop-color="#908BD1" stop-opacity="0.33"/>
<stop offset="0.2962" stop-color="#A8A2E6" stop-opacity="0.4777"/>
<stop offset="0.3923" stop-color="#B9B2F4" stop-opacity="0.6326"/>
<stop offset="0.4958" stop-color="#C4BCFC" stop-opacity="0.7996"/>
<stop offset="0.6201" stop-color="#C7BFFF"/>
</linearGradient>
<linearGradient id="paint17_linear_77_21626" x1="791.822" y1="82.2117" x2="772.972" y2="114.872" gradientUnits="userSpaceOnUse">
<stop stop-color="white"/>
<stop offset="1" stop-color="white" stop-opacity="0"/>
</linearGradient>
<linearGradient id="paint18_linear_77_21626" x1="236.551" y1="86.7273" x2="280.991" y2="86.7273" gradientUnits="userSpaceOnUse">
<stop stop-color="white"/>
<stop offset="1" stop-color="white" stop-opacity="0"/>
</linearGradient>
<linearGradient id="paint19_linear_77_21626" x1="276.371" y1="208.279" x2="320.811" y2="208.279" gradientUnits="userSpaceOnUse">
<stop stop-color="white"/>
<stop offset="1" stop-color="white" stop-opacity="0"/>
</linearGradient>
<linearGradient id="paint20_linear_77_21626" x1="325.631" y1="167.977" x2="368.37" y2="167.977" gradientUnits="userSpaceOnUse">
<stop stop-color="white"/>
<stop offset="1" stop-color="white" stop-opacity="0"/>
</linearGradient>
<linearGradient id="paint21_linear_77_21626" x1="654.557" y1="112.815" x2="643.568" y2="131.854" gradientUnits="userSpaceOnUse">
<stop stop-color="white"/>
<stop offset="1" stop-color="white" stop-opacity="0"/>
</linearGradient>
<linearGradient id="paint22_linear_77_21626" x1="561.034" y1="265.851" x2="555.772" y2="274.969" gradientUnits="userSpaceOnUse">
<stop stop-color="white"/>
<stop offset="1" stop-color="white" stop-opacity="0"/>
</linearGradient>
<linearGradient id="paint23_linear_77_21626" x1="494.472" y1="93.3732" x2="494.472" y2="103.101" gradientUnits="userSpaceOnUse">
<stop stop-color="#A33FFF"/>
<stop offset="0.7868" stop-color="#0A011F"/>
</linearGradient>
<linearGradient id="paint24_linear_77_21626" x1="486.185" y1="93.3732" x2="486.185" y2="103.101" gradientUnits="userSpaceOnUse">
<stop stop-color="#A33FFF"/>
<stop offset="0.7868" stop-color="#0A011F"/>
</linearGradient>
<linearGradient id="paint25_linear_77_21626" x1="477.898" y1="93.3732" x2="477.898" y2="103.101" gradientUnits="userSpaceOnUse">
<stop stop-color="#A33FFF"/>
<stop offset="0.7868" stop-color="#0A011F"/>
</linearGradient>
<linearGradient id="paint26_linear_77_21626" x1="469.611" y1="93.3732" x2="469.611" y2="103.101" gradientUnits="userSpaceOnUse">
<stop stop-color="#A33FFF"/>
<stop offset="0.7868" stop-color="#0A011F"/>
</linearGradient>
<linearGradient id="paint27_linear_77_21626" x1="494.403" y1="213.249" x2="494.403" y2="203.522" gradientUnits="userSpaceOnUse">
<stop stop-color="#A33FFF"/>
<stop offset="0.7868" stop-color="#0A011F"/>
</linearGradient>
<linearGradient id="paint28_linear_77_21626" x1="486.116" y1="213.249" x2="486.116" y2="203.522" gradientUnits="userSpaceOnUse">
<stop stop-color="#A33FFF"/>
<stop offset="0.7868" stop-color="#0A011F"/>
</linearGradient>
<linearGradient id="paint29_linear_77_21626" x1="477.829" y1="213.249" x2="477.829" y2="203.522" gradientUnits="userSpaceOnUse">
<stop stop-color="#A33FFF"/>
<stop offset="0.7868" stop-color="#0A011F"/>
</linearGradient>
<linearGradient id="paint30_linear_77_21626" x1="469.542" y1="213.249" x2="469.542" y2="203.522" gradientUnits="userSpaceOnUse">
<stop stop-color="#A33FFF"/>
<stop offset="0.7868" stop-color="#0A011F"/>
</linearGradient>
<linearGradient id="paint31_linear_77_21626" x1="542.722" y1="162.117" x2="532.991" y2="162.117" gradientUnits="userSpaceOnUse">
<stop stop-color="#A33FFF"/>
<stop offset="0.7868" stop-color="#0A011F"/>
</linearGradient>
<linearGradient id="paint32_linear_77_21626" x1="542.722" y1="145.548" x2="532.991" y2="145.548" gradientUnits="userSpaceOnUse">
<stop stop-color="#A33FFF"/>
<stop offset="0.7868" stop-color="#0A011F"/>
</linearGradient>
<linearGradient id="paint33_linear_77_21626" x1="542.722" y1="153.833" x2="532.991" y2="153.833" gradientUnits="userSpaceOnUse">
<stop stop-color="#A33FFF"/>
<stop offset="0.7868" stop-color="#0A011F"/>
</linearGradient>
<linearGradient id="paint34_linear_77_21626" x1="542.722" y1="137.264" x2="532.991" y2="137.264" gradientUnits="userSpaceOnUse">
<stop stop-color="#A33FFF"/>
<stop offset="0.7868" stop-color="#0A011F"/>
</linearGradient>
<linearGradient id="paint35_linear_77_21626" x1="424.003" y1="162.117" x2="433.734" y2="162.117" gradientUnits="userSpaceOnUse">
<stop stop-color="#A33FFF"/>
<stop offset="0.7868" stop-color="#0A011F"/>
</linearGradient>
<linearGradient id="paint36_linear_77_21626" x1="424.003" y1="153.833" x2="433.734" y2="153.833" gradientUnits="userSpaceOnUse">
<stop stop-color="#A33FFF"/>
<stop offset="0.7868" stop-color="#0A011F"/>
</linearGradient>
<linearGradient id="paint37_linear_77_21626" x1="424.003" y1="145.548" x2="433.734" y2="145.548" gradientUnits="userSpaceOnUse">
<stop stop-color="#A33FFF"/>
<stop offset="0.7868" stop-color="#0A011F"/>
</linearGradient>
<linearGradient id="paint38_linear_77_21626" x1="424.003" y1="137.264" x2="433.734" y2="137.264" gradientUnits="userSpaceOnUse">
<stop stop-color="#A33FFF"/>
<stop offset="0.7868" stop-color="#0A011F"/>
</linearGradient>
</defs>
</svg>
