<svg width="1015" height="347" viewBox="0 0 1015 347" fill="none" xmlns="http://www.w3.org/2000/svg">
<path d="M788.5 163.225C788.5 259.952 658.215 338.366 497.5 338.366C336.785 338.366 206.5 259.952 206.5 163.225C206.5 66.4967 336.785 0.365845 497.5 0.365845C658.215 0.365845 788.5 66.4967 788.5 163.225Z" fill="url(#paint0_radial_1_84418)"/>
<path d="M448.662 164.331L422.857 164.273C420.726 164.273 418.537 164.216 416.348 163.985C414.159 163.755 412.028 163.352 409.954 162.834C407.823 162.316 405.807 161.625 403.734 160.818C401.718 160.012 399.759 159.033 397.858 157.997C396.015 156.903 394.172 155.694 392.444 154.369C390.716 153.045 389.103 151.605 387.548 150.108L378.217 141.183L359.554 123.333H359.612C352.182 117.632 342.908 114.408 333.519 114.293L305.18 113.832L248.559 112.853C246.198 112.795 243.836 112.795 241.474 112.68C239.113 112.508 236.751 112.277 234.447 111.759C232.143 111.298 229.839 110.665 227.593 109.916C226.441 109.571 225.404 109.11 224.252 108.65C223.734 108.419 223.158 108.189 222.639 107.901L221.833 107.556L221.026 107.153C218.895 106.116 216.879 104.849 214.921 103.525C212.962 102.201 211.119 100.703 209.391 99.0911C207.663 97.4788 206.05 95.7514 204.38 94.0815L199.426 89.0144C199.426 89.0144 175.344 64.3781 159.913 48.5922C169.515 58.4149 184.5 73.7448 184.5 73.7448L204.668 93.9088C206.338 95.5787 207.951 97.3061 209.679 98.8608C211.465 100.415 213.25 101.913 215.209 103.237C217.167 104.561 219.183 105.771 221.257 106.807L222.063 107.21L222.87 107.556C223.388 107.786 223.964 108.074 224.482 108.304C225.577 108.707 226.671 109.168 227.766 109.571C230.012 110.377 232.258 110.953 234.562 111.414C236.866 111.874 239.228 112.104 241.532 112.277C243.894 112.392 246.255 112.392 248.617 112.45L305.238 113.199L333.577 113.602C343.081 113.659 352.585 116.884 360.13 122.7L378.85 140.492L388.182 149.36C389.737 150.857 391.292 152.239 393.02 153.563C394.69 154.887 396.476 156.039 398.319 157.076C400.162 158.112 402.121 159.033 404.079 159.84C406.038 160.588 408.111 161.279 410.127 161.797C412.201 162.258 414.274 162.661 416.406 162.891C418.537 163.122 420.61 163.179 422.799 163.179L448.604 163.122V164.331H448.662Z" fill="url(#paint1_linear_1_84418)"/>
<path d="M448.662 180.281L423.951 180.339C414.447 180.339 405.289 184.081 398.492 190.703L365.775 222.603C358.057 230.146 347.689 234.35 336.918 234.35H50.4152" stroke="url(#paint2_linear_1_84418)" stroke-miterlimit="10"/>
<path d="M450.678 171.356H414.966C406.672 171.356 398.665 174.465 392.56 180.051L377.18 194.158C371.19 199.628 363.356 202.68 355.292 202.68H228.399C217.052 202.68 206.108 198.189 198.102 190.185L109.801 102.258C91 84.3658 91 75.3658 38.7856 75.3658H1" stroke="url(#paint3_linear_1_84418)" stroke-miterlimit="10"/>
<path d="M448.662 188.457H433.455C421.647 188.457 410.358 193.122 402.006 201.413C402.006 201.413 375 228.866 358.5 247.866C342 266.866 338 270.366 327.5 273.866C317 277.366 288.246 276.366 279.778 276.366C271.311 276.366 0 276.366 0 276.366" stroke="url(#paint4_linear_1_84418)" stroke-miterlimit="10"/>
<path d="M491.495 120.742V109.513C491.495 101.337 488.385 93.5058 482.798 87.5749L459.758 63.0452" stroke="url(#paint5_linear_1_84418)" stroke-miterlimit="10"/>
<path d="M508.084 120.742C508.084 120.742 507.047 72.3157 508.084 63.0451C509.121 53.7745 512.116 47.2678 512.749 46.692" stroke="url(#paint6_linear_1_84418)" stroke-miterlimit="10"/>
<path d="M499.732 121.836C499.732 121.836 500.769 80.2044 499.732 70.8762C498.695 61.548 495.7 52.3926 495.066 51.8168" stroke="url(#paint7_linear_1_84418)" stroke-miterlimit="10"/>
<path d="M516.321 120.857L516.378 110.953C516.378 101.049 519.258 94.6573 524.097 89.1295L544.314 67.4213" stroke="url(#paint8_linear_1_84418)" stroke-miterlimit="10"/>
<path d="M562.306 163.582L575.727 163.64C585.519 163.697 594.966 159.897 602.05 153.045L667 73.8658C684 52.3658 689.5 41.4214 700.086 41.4214H779.401C786.889 41.4214 794.089 38.5999 799.561 33.4752L835.1 0.365845" stroke="url(#paint9_linear_1_84418)" stroke-miterlimit="10"/>
<path d="M562.306 172.047H577.282C585.001 172.047 592.489 169.225 598.249 164.158L615.702 148.899C622.326 143.083 630.85 139.916 639.721 139.916H762.466C773.295 139.916 783.721 135.771 791.612 128.285L820 95.3658C825.53 90.1259 840.383 65.3658 847.986 65.3658H1014.5" stroke="url(#paint10_linear_1_84418)" stroke-miterlimit="10"/>
<path d="M562.306 180.396H576.994C585.577 180.396 593.871 177.459 600.553 172.104L622.729 154.312C627.855 150.223 634.249 147.978 640.815 147.978H709.129C716.386 147.978 723.356 150.857 728.482 155.982L769.609 209.187C777.385 216.96 787.926 221.336 798.927 221.336H935.727" stroke="url(#paint11_linear_1_84418)" stroke-miterlimit="10"/>
<path d="M562.306 188.515L574.69 188.573C582.466 188.573 590.07 190.991 596.463 195.482L619.388 211.663C627.337 217.248 636.783 220.242 646.518 220.242H695.132C707.689 220.242 719.727 225.079 728.713 233.832C728.713 233.832 761 256.866 770.012 263.735C779.024 270.605 786.082 274.1 795.644 274.1H1008" stroke="url(#paint12_linear_1_84418)" stroke-miterlimit="10"/>
<path d="M507.5 237.366C507.5 237.366 510.5 254.119 510.5 278.866C510.5 303.612 504 315.866 504 346.866" stroke="url(#paint13_linear_1_84418)" stroke-miterlimit="10"/>
<path d="M516.342 234.695L516.457 236.653C517.09 248.054 521.871 258.822 529.878 266.941L547.964 285.194C559.311 296.653 574.748 303.102 590.818 303.102H634.249C643.465 303.102 652.393 306.154 659.593 311.854L668.924 319.167" stroke="url(#paint14_linear_1_84418)" stroke-miterlimit="10"/>
<path d="M499.695 234.292V245.405C499.695 253.409 499.5 276.366 487.5 287.366C475.5 298.366 472.5 309.366 436.5 337.866" stroke="url(#paint15_linear_1_84418)" stroke-miterlimit="10"/>
<path d="M399.125 307.19L416.578 291.701C422.05 286.806 429.193 284.1 436.508 284.1H449.237C464.617 284.1 478.268 275.866 485.698 263.371C489.557 256.864 491.343 249.321 491.401 241.778L491.458 234.695" stroke="url(#paint16_linear_1_84418)" stroke-miterlimit="10"/>
<path d="M554.463 190.27H561.49C562.988 190.27 564.197 189.291 564.197 188.024V187.966C564.197 186.872 563.103 185.951 561.721 185.951H554.463V190.27Z" fill="url(#paint17_linear_1_84418)" stroke="#7559A2" stroke-miterlimit="10"/>
<path d="M554.463 173.686H561.49C562.988 173.686 564.197 172.707 564.197 171.441V171.383C564.197 170.289 563.103 169.368 561.721 169.368H554.463V173.686Z" fill="url(#paint18_linear_1_84418)" stroke="#7559A2" stroke-miterlimit="10"/>
<path d="M554.463 181.978H561.49C562.988 181.978 564.197 180.999 564.197 179.732V179.675C564.197 178.581 563.103 177.659 561.721 177.659H554.463V181.978Z" fill="url(#paint19_linear_1_84418)" stroke="#7559A2" stroke-miterlimit="10"/>
<path d="M554.463 165.452H561.49C562.988 165.452 564.197 164.473 564.197 163.206V163.149C564.197 162.055 563.103 161.133 561.721 161.133H554.463V165.452Z" fill="url(#paint20_linear_1_84418)" stroke="#7559A2" stroke-miterlimit="10"/>
<path d="M518.154 129.097V122.072C518.154 120.575 517.175 119.366 515.908 119.366H515.85C514.756 119.366 513.834 120.46 513.834 121.842V129.097H518.154Z" fill="url(#paint21_linear_1_84418)" stroke="#7559A2" stroke-miterlimit="10"/>
<path d="M509.86 129.097V122.072C509.86 120.575 508.881 119.366 507.614 119.366H507.556C506.462 119.366 505.54 120.46 505.54 121.842V129.097H509.86Z" fill="url(#paint22_linear_1_84418)" stroke="#7559A2" stroke-miterlimit="10"/>
<path d="M501.566 129.097V122.072C501.566 120.575 500.586 119.366 499.319 119.366H499.262C498.167 119.366 497.246 120.46 497.246 121.842V129.097H501.566Z" fill="url(#paint23_linear_1_84418)" stroke="#7559A2" stroke-miterlimit="10"/>
<path d="M493.271 129.097V122.072C493.271 120.575 492.292 119.366 491.025 119.366H490.967C489.873 119.366 488.951 120.46 488.951 121.842V129.097H493.271Z" fill="url(#paint24_linear_1_84418)" stroke="#7559A2" stroke-miterlimit="10"/>
<path d="M518.06 229.546V236.571C518.06 238.068 517.081 239.277 515.814 239.277H515.756C514.662 239.277 513.74 238.183 513.74 236.801V229.546H518.06Z" fill="url(#paint25_linear_1_84418)" stroke="#7559A2" stroke-miterlimit="10"/>
<path d="M509.766 229.546V236.571C509.766 238.068 508.786 239.277 507.519 239.277H507.462C506.367 239.277 505.446 238.183 505.446 236.801V229.546H509.766Z" fill="url(#paint26_linear_1_84418)" stroke="#7559A2" stroke-miterlimit="10"/>
<path d="M501.471 229.546V236.571C501.471 238.068 500.492 239.277 499.225 239.277H499.167C498.073 239.277 497.151 238.183 497.151 236.801V229.546H501.471Z" fill="url(#paint27_linear_1_84418)" stroke="#7559A2" stroke-miterlimit="10"/>
<path d="M493.235 229.546V236.571C493.235 238.068 492.255 239.277 490.988 239.277H490.931C489.836 239.277 488.915 238.183 488.915 236.801V229.546H493.235Z" fill="url(#paint28_linear_1_84418)" stroke="#7559A2" stroke-miterlimit="10"/>
<path d="M456.234 190.27H449.207C447.71 190.27 446.5 189.291 446.5 188.024V187.966C446.5 186.872 447.594 185.951 448.977 185.951H456.234V190.27Z" fill="url(#paint29_linear_1_84418)" stroke="#7559A2" stroke-miterlimit="10"/>
<path d="M456.234 181.978H449.207C447.71 181.978 446.5 180.999 446.5 179.732V179.675C446.5 178.581 447.594 177.659 448.977 177.659H456.234V181.978Z" fill="url(#paint30_linear_1_84418)" stroke="#7559A2" stroke-miterlimit="10"/>
<path d="M456.234 173.686H449.207C447.71 173.686 446.5 172.707 446.5 171.441V171.383C446.5 170.289 447.594 169.368 448.977 169.368H456.234V173.686Z" fill="url(#paint31_linear_1_84418)" stroke="#7559A2" stroke-miterlimit="10"/>
<path d="M456.234 165.452H449.207C447.71 165.452 446.5 164.473 446.5 163.206V163.149C446.5 162.055 447.594 161.133 448.977 161.133H456.234V165.452Z" fill="url(#paint32_linear_1_84418)" stroke="#7559A2" stroke-miterlimit="10"/>
<g filter="url(#filter0_i_1_84418)">
<path d="M455.5 144.366C455.5 135.529 462.663 128.366 471.5 128.366H538.807C547.644 128.366 554.807 135.529 554.807 144.366V213.865C554.807 222.702 547.644 229.865 538.807 229.865H471.5C462.663 229.865 455.5 222.702 455.5 213.865V144.366Z" fill="#F0EFFF"/>
<g filter="url(#filter1_d_1_84418)">
<path d="M494.837 161.052C494.837 161.052 495.683 156.5 499.347 153.158C500.644 152.063 502.166 151.198 503.858 150.853C510.003 149.182 511.751 147.914 514.062 146.128C516.374 144.111 516.656 143.65 517.896 140.366C517.445 145.725 514.965 149.643 514.965 149.643C514.965 149.643 510.849 155.866 509.327 156.73C507.917 156.615 499.911 157.364 494.837 161.052Z" fill="#501665"/>
<path d="M496.81 202.365C496.81 202.365 503.576 193.204 498.783 187.615C498.276 188.076 494.16 188.652 491.454 186.462C489.03 184.273 488.635 180.354 490.777 177.819C491.567 176.667 492.807 176.263 494.047 175.918C496.979 175.226 500.024 176.206 502.222 178.626C503.745 180.47 505.154 183.293 505.211 188.191C505.211 190.899 504.76 193.78 503.576 196.142C500.926 201.501 496.81 202.365 496.81 202.365Z" fill="#D06026"/>
<path d="M488.015 182.025C488.015 182.025 486.605 173.325 500.588 172.115C501.772 171.999 503.012 171.827 504.252 171.481C525.789 166.065 530.807 146.704 530.807 146.704C530.807 146.704 522.689 157.479 513.555 157.652C504.196 157.767 495.401 159.726 492.131 167.505C490.947 164.682 492.976 157.306 494.611 155.001C497.318 151.314 496.81 143.42 490.383 143.132C487.733 143.132 486.267 140.827 485.985 141C485.703 141.23 492.018 145.955 487.282 153.849C482.546 161.685 472.059 169.291 488.015 182.025Z" fill="#C17BFF"/>
<path d="M511.018 217.865C511.018 217.865 505.944 213.025 512.145 204.497C518.347 195.97 514.401 189.516 513.668 186.981C514.175 191.936 508.03 199.715 505.549 203.172C503.97 205.016 503.463 207.897 504.252 210.144C505.831 214.466 511.018 217.865 511.018 217.865Z" fill="#501665"/>
<path d="M509.778 171.193C508.763 171.596 504.309 173.382 495.626 174.074C504.309 173.382 507.353 182.486 507.24 186.865C507.128 191.245 506.169 196.834 501.884 201.559C497.6 207.033 503.632 212.218 503.632 212.218C503.632 212.218 500.7 207.551 502.956 203.575C505.211 199.6 508.594 196.488 510.398 191.994C511.018 190.092 511.469 187.903 511.864 186.001C512.315 183.351 512.089 180.642 511.807 178.165C511.638 177.012 511.3 175.514 509.778 171.193Z" fill="#501665"/>
</g>
</g>
<g opacity="0.4">
<path d="M789.401 136.519H788.594C791.013 135.598 793.317 134.389 795.449 133.007C797.58 131.567 799.596 129.955 801.497 128.285C805.298 124.83 808.754 121.03 812.21 117.229L817.913 111.701C818.258 111.356 818.777 111.356 819.122 111.701C819.468 112.047 819.468 112.565 819.122 112.911L813.189 118.151L813.247 118.093C809.676 121.778 805.989 125.463 802.015 128.746C799.999 130.415 797.925 131.913 795.679 133.237C793.49 134.561 791.129 135.713 788.652 136.519V136.461L789.401 136.519Z" fill="url(#paint33_linear_1_84418)"/>
</g>
<path d="M259.48 111.298L301.068 112.738L259.48 114.177C258.674 114.177 258.041 113.602 257.983 112.796C257.983 111.989 258.559 111.356 259.365 111.298C259.423 111.298 259.48 111.298 259.48 111.298Z" fill="url(#paint34_linear_1_84418)"/>
<path d="M299.282 232.853L340.869 234.292L299.282 235.732C298.476 235.732 297.842 235.156 297.785 234.35C297.785 233.544 298.361 232.91 299.167 232.853C299.225 232.853 299.282 232.853 299.282 232.853Z" fill="url(#paint35_linear_1_84418)"/>
<path d="M348.553 201.241L354.313 201.413L357.193 201.528L358.633 201.586H360.015C363.644 201.413 367.158 200.031 370.441 198.074C372.054 197.095 373.666 196.058 375.222 194.907C375.97 194.331 376.777 193.755 377.526 193.179C378.274 192.603 378.966 191.912 379.714 191.337L388.47 183.793L380.175 191.855C379.484 192.546 378.793 193.237 378.102 193.87C377.353 194.504 376.604 195.137 375.913 195.77C374.415 196.98 372.86 198.189 371.247 199.283C369.634 200.377 367.906 201.356 366.063 202.162C364.22 202.968 362.262 203.486 360.246 203.717L358.748 203.832L357.308 203.889L354.428 204.004L348.668 204.177C347.862 204.177 347.228 203.601 347.17 202.795C347.17 201.989 347.746 201.356 348.553 201.298C348.495 201.241 348.553 201.241 348.553 201.241Z" fill="url(#paint36_linear_1_84418)"/>
<path d="M650.815 147.978L689.004 146.538C689.81 146.481 690.444 147.114 690.501 147.92C690.559 148.726 689.925 149.36 689.119 149.417C689.061 149.417 689.061 149.417 689.004 149.417L650.815 147.978Z" fill="url(#paint37_linear_1_84418)"/>
<path d="M551.498 288.154C552.886 289.269 554.274 290.443 555.719 291.439C556.471 291.967 557.165 292.495 557.916 292.963C558.667 293.432 559.418 293.959 560.169 294.369C563.231 296.183 566.464 297.643 569.754 298.866C576.39 301.253 583.365 302.281 590.275 302.01L590.29 304.902L589.599 304.906L589.584 301.954L590.275 301.951L590.39 301.95C591.197 301.946 591.776 302.652 591.78 303.419C591.784 304.246 591.096 304.839 590.347 304.843C583.089 304.644 575.88 303.027 569.299 300.167C566.009 298.708 562.832 296.953 559.827 294.961C559.075 294.492 558.381 293.905 557.63 293.378C556.878 292.85 556.242 292.263 555.49 291.736C554.16 290.621 552.829 289.387 551.498 288.154Z" fill="url(#paint38_linear_1_84418)"/>
<defs>
<filter id="filter0_i_1_84418" x="453.5" y="126.366" width="101.307" height="103.5" filterUnits="userSpaceOnUse" color-interpolation-filters="sRGB">
<feFlood flood-opacity="0" result="BackgroundImageFix"/>
<feBlend mode="normal" in="SourceGraphic" in2="BackgroundImageFix" result="shape"/>
<feColorMatrix in="SourceAlpha" type="matrix" values="0 0 0 0 0 0 0 0 0 0 0 0 0 0 0 0 0 0 127 0" result="hardAlpha"/>
<feOffset dx="-2" dy="-2"/>
<feGaussianBlur stdDeviation="2"/>
<feComposite in2="hardAlpha" operator="arithmetic" k2="-1" k3="1"/>
<feColorMatrix type="matrix" values="0 0 0 0 0 0 0 0 0 0 0 0 0 0 0 0 0 0 0.25 0"/>
<feBlend mode="normal" in2="shape" result="effect1_innerShadow_1_84418"/>
</filter>
<filter id="filter1_d_1_84418" x="475.5" y="140.366" width="59.3074" height="85.4995" filterUnits="userSpaceOnUse" color-interpolation-filters="sRGB">
<feFlood flood-opacity="0" result="BackgroundImageFix"/>
<feColorMatrix in="SourceAlpha" type="matrix" values="0 0 0 0 0 0 0 0 0 0 0 0 0 0 0 0 0 0 127 0" result="hardAlpha"/>
<feOffset dy="4"/>
<feGaussianBlur stdDeviation="2"/>
<feComposite in2="hardAlpha" operator="out"/>
<feColorMatrix type="matrix" values="0 0 0 0 0 0 0 0 0 0 0 0 0 0 0 0 0 0 0.25 0"/>
<feBlend mode="normal" in2="BackgroundImageFix" result="effect1_dropShadow_1_84418"/>
<feBlend mode="normal" in="SourceGraphic" in2="effect1_dropShadow_1_84418" result="shape"/>
</filter>
<radialGradient id="paint0_radial_1_84418" cx="0" cy="0" r="1" gradientTransform="matrix(181.751 90.9821 -153.574 111.13 497.5 194.781)" gradientUnits="userSpaceOnUse">
<stop stop-color="#BBB3FB" stop-opacity="0.8"/>
<stop offset="0.105769" stop-color="#E7E4FF" stop-opacity="0.891092"/>
<stop offset="0.238935" stop-color="#F2F0FB" stop-opacity="0.935027"/>
<stop offset="1" stop-color="white"/>
</radialGradient>
<linearGradient id="paint1_linear_1_84418" x1="214.5" y1="48.3659" x2="53.7691" y2="22.3261" gradientUnits="userSpaceOnUse">
<stop offset="0.590822" stop-color="#6F4D9B"/>
<stop offset="1" stop-color="#FBFDFF"/>
</linearGradient>
<linearGradient id="paint2_linear_1_84418" x1="412.159" y1="245.059" x2="74.0506" y2="167.652" gradientUnits="userSpaceOnUse">
<stop stop-color="#6F4D9B"/>
<stop offset="1" stop-color="#FBFDFF"/>
</linearGradient>
<linearGradient id="paint3_linear_1_84418" x1="412.824" y1="225.374" x2="48.3924" y2="184.548" gradientUnits="userSpaceOnUse">
<stop stop-color="#6F4D9B"/>
<stop offset="1" stop-color="#FBFDFF"/>
</linearGradient>
<linearGradient id="paint4_linear_1_84418" x1="409.508" y1="333.397" x2="32.3854" y2="292.008" gradientUnits="userSpaceOnUse">
<stop stop-color="#6F4D9B"/>
<stop offset="1" stop-color="#FBFDFF"/>
</linearGradient>
<linearGradient id="paint5_linear_1_84418" x1="488.586" y1="132.169" x2="465.567" y2="131.862" gradientUnits="userSpaceOnUse">
<stop stop-color="#6F4D9B"/>
<stop offset="1" stop-color="#FBFDFF"/>
</linearGradient>
<linearGradient id="paint6_linear_1_84418" x1="512.28" y1="135.408" x2="508.654" y2="135.51" gradientUnits="userSpaceOnUse">
<stop stop-color="#FBFDFF"/>
<stop offset="1" stop-color="#6F4D9B"/>
</linearGradient>
<linearGradient id="paint7_linear_1_84418" x1="495.5" y1="127.866" x2="491.665" y2="127.508" gradientUnits="userSpaceOnUse">
<stop stop-color="#6F4D9B"/>
<stop offset="1" stop-color="#FBFDFF"/>
</linearGradient>
<linearGradient id="paint8_linear_1_84418" x1="541.749" y1="131.44" x2="516.743" y2="131.033" gradientUnits="userSpaceOnUse">
<stop stop-color="#FBFDFF"/>
<stop offset="1" stop-color="#6F4D9B"/>
</linearGradient>
<linearGradient id="paint9_linear_1_84418" x1="810.096" y1="195.979" x2="567.013" y2="183.355" gradientUnits="userSpaceOnUse">
<stop stop-color="#FBFDFF"/>
<stop offset="1" stop-color="#6F4D9B"/>
</linearGradient>
<linearGradient id="paint10_linear_1_84418" x1="973.053" y1="193.176" x2="575.915" y2="140.852" gradientUnits="userSpaceOnUse">
<stop stop-color="#FBFDFF"/>
<stop offset="1" stop-color="#6F4D9B"/>
</linearGradient>
<linearGradient id="paint11_linear_1_84418" x1="901.5" y1="235.866" x2="576" y2="184.365" gradientUnits="userSpaceOnUse">
<stop stop-color="#FBFDFF"/>
<stop offset="1" stop-color="#6F4D9B"/>
</linearGradient>
<linearGradient id="paint12_linear_1_84418" x1="967.148" y1="291.051" x2="579.092" y2="228.238" gradientUnits="userSpaceOnUse">
<stop stop-color="#FBFDFF"/>
<stop offset="1" stop-color="#6F4D9B"/>
</linearGradient>
<linearGradient id="paint13_linear_1_84418" x1="498.5" y1="355.366" x2="490.825" y2="353.456" gradientUnits="userSpaceOnUse">
<stop offset="0.245192" stop-color="#FBFDFF"/>
<stop offset="1" stop-color="#6F4D9B"/>
</linearGradient>
<linearGradient id="paint14_linear_1_84418" x1="619.5" y1="319.366" x2="506.588" y2="293.296" gradientUnits="userSpaceOnUse">
<stop stop-color="#FBFDFF"/>
<stop offset="1" stop-color="#6F4D9B"/>
</linearGradient>
<linearGradient id="paint15_linear_1_84418" x1="462" y1="305.866" x2="442.887" y2="259.628" gradientUnits="userSpaceOnUse">
<stop stop-color="#FBFDFF"/>
<stop offset="1" stop-color="#6F4D9B"/>
</linearGradient>
<linearGradient id="paint16_linear_1_84418" x1="399.5" y1="288.366" x2="442.235" y2="225.653" gradientUnits="userSpaceOnUse">
<stop stop-color="#FBFDFF"/>
<stop offset="1" stop-color="#6F4D9B"/>
</linearGradient>
<linearGradient id="paint17_linear_1_84418" x1="559.336" y1="190.257" x2="559.336" y2="185.94" gradientUnits="userSpaceOnUse">
<stop stop-color="#F3E6FF"/>
<stop offset="0.7868" stop-color="#C7BFFF"/>
</linearGradient>
<linearGradient id="paint18_linear_1_84418" x1="559.336" y1="173.674" x2="559.336" y2="169.357" gradientUnits="userSpaceOnUse">
<stop stop-color="#F3E6FF"/>
<stop offset="0.7868" stop-color="#C7BFFF"/>
</linearGradient>
<linearGradient id="paint19_linear_1_84418" x1="559.336" y1="181.965" x2="559.336" y2="177.649" gradientUnits="userSpaceOnUse">
<stop stop-color="#F3E6FF"/>
<stop offset="0.7868" stop-color="#C7BFFF"/>
</linearGradient>
<linearGradient id="paint20_linear_1_84418" x1="559.336" y1="165.44" x2="559.336" y2="161.123" gradientUnits="userSpaceOnUse">
<stop stop-color="#F3E6FF"/>
<stop offset="0.7868" stop-color="#C7BFFF"/>
</linearGradient>
<linearGradient id="paint21_linear_1_84418" x1="515.997" y1="129.069" x2="515.997" y2="119.341" gradientUnits="userSpaceOnUse">
<stop stop-color="#F3E6FF"/>
<stop offset="0.7868" stop-color="#C7BFFF"/>
</linearGradient>
<linearGradient id="paint22_linear_1_84418" x1="507.703" y1="129.069" x2="507.703" y2="119.341" gradientUnits="userSpaceOnUse">
<stop stop-color="#F3E6FF"/>
<stop offset="0.7868" stop-color="#C7BFFF"/>
</linearGradient>
<linearGradient id="paint23_linear_1_84418" x1="499.408" y1="129.069" x2="499.408" y2="119.341" gradientUnits="userSpaceOnUse">
<stop stop-color="#F3E6FF"/>
<stop offset="0.7868" stop-color="#C7BFFF"/>
</linearGradient>
<linearGradient id="paint24_linear_1_84418" x1="491.114" y1="129.069" x2="491.114" y2="119.341" gradientUnits="userSpaceOnUse">
<stop stop-color="#F3E6FF"/>
<stop offset="0.7868" stop-color="#C7BFFF"/>
</linearGradient>
<linearGradient id="paint25_linear_1_84418" x1="515.903" y1="239.249" x2="515.903" y2="229.522" gradientUnits="userSpaceOnUse">
<stop stop-color="#F3E6FF"/>
<stop offset="0.7868" stop-color="#C7BFFF"/>
</linearGradient>
<linearGradient id="paint26_linear_1_84418" x1="507.608" y1="239.249" x2="507.608" y2="229.522" gradientUnits="userSpaceOnUse">
<stop stop-color="#F3E6FF"/>
<stop offset="0.7868" stop-color="#C7BFFF"/>
</linearGradient>
<linearGradient id="paint27_linear_1_84418" x1="499.314" y1="239.249" x2="499.314" y2="229.522" gradientUnits="userSpaceOnUse">
<stop stop-color="#F3E6FF"/>
<stop offset="0.7868" stop-color="#C7BFFF"/>
</linearGradient>
<linearGradient id="paint28_linear_1_84418" x1="491.077" y1="239.249" x2="491.077" y2="229.522" gradientUnits="userSpaceOnUse">
<stop stop-color="#F3E6FF"/>
<stop offset="0.7868" stop-color="#C7BFFF"/>
</linearGradient>
<linearGradient id="paint29_linear_1_84418" x1="451.373" y1="190.257" x2="451.373" y2="185.94" gradientUnits="userSpaceOnUse">
<stop stop-color="#F3E6FF"/>
<stop offset="0.7868" stop-color="#C7BFFF"/>
</linearGradient>
<linearGradient id="paint30_linear_1_84418" x1="451.373" y1="181.965" x2="451.373" y2="177.649" gradientUnits="userSpaceOnUse">
<stop stop-color="#F3E6FF"/>
<stop offset="0.7868" stop-color="#C7BFFF"/>
</linearGradient>
<linearGradient id="paint31_linear_1_84418" x1="451.373" y1="173.674" x2="451.373" y2="169.357" gradientUnits="userSpaceOnUse">
<stop stop-color="#F3E6FF"/>
<stop offset="0.7868" stop-color="#C7BFFF"/>
</linearGradient>
<linearGradient id="paint32_linear_1_84418" x1="451.373" y1="165.44" x2="451.373" y2="161.123" gradientUnits="userSpaceOnUse">
<stop stop-color="#F3E6FF"/>
<stop offset="0.7868" stop-color="#C7BFFF"/>
</linearGradient>
<linearGradient id="paint33_linear_1_84418" x1="813.322" y1="108.212" x2="794.472" y2="140.872" gradientUnits="userSpaceOnUse">
<stop stop-color="white"/>
<stop offset="1" stop-color="white" stop-opacity="0"/>
</linearGradient>
<linearGradient id="paint34_linear_1_84418" x1="298.705" y1="114.87" x2="296.114" y2="104.335" gradientUnits="userSpaceOnUse">
<stop offset="0.2132" stop-color="white"/>
<stop offset="1" stop-color="#8E53EB"/>
</linearGradient>
<linearGradient id="paint35_linear_1_84418" x1="338.507" y1="236.424" x2="335.916" y2="225.889" gradientUnits="userSpaceOnUse">
<stop offset="0.2132" stop-color="white"/>
<stop offset="1" stop-color="#8E53EB"/>
</linearGradient>
<linearGradient id="paint36_linear_1_84418" x1="386.205" y1="209.079" x2="352.788" y2="190.683" gradientUnits="userSpaceOnUse">
<stop offset="0.2132" stop-color="white"/>
<stop offset="1" stop-color="#8E53EB"/>
</linearGradient>
<linearGradient id="paint37_linear_1_84418" x1="688.328" y1="150.111" x2="685.538" y2="139.67" gradientUnits="userSpaceOnUse">
<stop stop-color="#8E53EB"/>
<stop offset="0.7868" stop-color="white"/>
</linearGradient>
<linearGradient id="paint38_linear_1_84418" x1="589.603" y1="308.981" x2="559.563" y2="289.827" gradientUnits="userSpaceOnUse">
<stop stop-color="#8E53EB"/>
<stop offset="0.7868" stop-color="white"/>
</linearGradient>
</defs>
</svg>
