<svg width="967" height="295" viewBox="0 0 967 295" fill="none" xmlns="http://www.w3.org/2000/svg"><path d="M450 104H517.308C525.592 104 532.308 110.716 532.308 119V188.5C532.307 196.784 525.592 203.5 517.308 203.5H450C441.716 203.5 435 196.784 435 188.5V119C435 110.716 441.716 104 450 104Z" fill="url(#paint0_linear_735_422)"></path><path d="M450 104H517.308C525.592 104 532.308 110.716 532.308 119V188.5C532.307 196.784 525.592 203.5 517.308 203.5H450C441.716 203.5 435 196.784 435 188.5V119C435 110.716 441.716 104 450 104Z" stroke="#CFB3FF" stroke-width="2"></path><path d="M473.337 135.686C473.337 135.686 474.182 131.134 477.847 127.792C479.144 126.697 480.666 125.833 482.358 125.487C488.503 123.816 490.251 122.548 492.562 120.762C494.874 118.745 495.156 118.284 496.396 115C495.945 120.359 493.464 124.277 493.464 124.277C493.464 124.277 489.349 130.5 487.826 131.364C486.417 131.249 478.411 131.998 473.337 135.686Z" fill="#24043C"></path><path d="M475.31 177C475.31 177 482.076 167.838 477.283 162.249C476.776 162.71 472.66 163.286 469.954 161.096C467.53 158.907 467.135 154.989 469.277 152.453C470.067 151.301 471.307 150.897 472.547 150.552C475.479 149.86 478.524 150.84 480.723 153.26C482.245 155.104 483.654 157.927 483.711 162.825C483.711 165.533 483.26 168.414 482.076 170.777C479.426 176.135 475.31 177 475.31 177Z" fill="#D06026"></path><path d="M466.515 156.66C466.515 156.66 465.105 147.959 479.088 146.749C480.272 146.634 481.512 146.461 482.752 146.115C504.289 140.699 509.307 121.338 509.307 121.338C509.307 121.338 501.189 132.113 492.055 132.286C482.696 132.401 473.901 134.36 470.631 142.139C469.447 139.316 471.476 131.94 473.111 129.636C475.818 125.948 475.31 118.054 468.883 117.766C466.233 117.766 464.767 115.461 464.485 115.634C464.203 115.864 470.518 120.589 465.782 128.483C461.046 136.32 450.559 143.925 466.515 156.66Z" fill="#AC59FC"></path><path d="M489.518 192.5C489.518 192.5 484.444 187.659 490.646 179.132C496.847 170.604 492.901 164.15 492.168 161.615C492.675 166.57 486.53 174.349 484.049 177.806C482.47 179.65 481.963 182.531 482.752 184.778C484.331 189.1 489.518 192.5 489.518 192.5Z" fill="#24043C"></path><path d="M488.278 145.827C487.263 146.23 482.809 148.016 474.126 148.708C482.809 148.016 485.853 157.12 485.74 161.5C485.628 165.879 484.669 171.468 480.384 176.193C476.099 181.667 482.132 186.853 482.132 186.853C482.132 186.853 479.2 182.185 481.456 178.21C483.711 174.234 487.094 171.122 488.898 166.628C489.518 164.726 489.969 162.537 490.364 160.635C490.815 157.985 490.589 155.277 490.307 152.799C490.138 151.647 489.8 150.148 488.278 145.827Z" fill="#24043C"></path><path d="M425 137.961L411.569 138C401.77 138.039 392.316 135.464 385.226 130.822L303.949 77.4172C299.452 74.4525 293.4 72.814 287.117 72.814H207.741C200.248 72.814 193.042 70.9026 187.566 67.4307L152 45" stroke="url(#paint1_linear_735_422)" stroke-miterlimit="10"></path><path d="M425 137.961L411.569 138C401.77 138.039 392.316 135.464 385.226 130.822L303.949 77.4172C299.452 74.4525 293.4 72.814 287.117 72.814H207.741C200.248 72.814 193.042 70.9026 187.566 67.4307L152 45" class="mot-hero-path-svg" stroke="url(#paint1_linear_735_422)" stroke-miterlimit="10"></path><path d="M427.162 154.915L402.451 154.973C392.947 154.973 383.789 158.715 376.992 165.337L344.275 197.237C336.557 204.781 326.189 208.984 315.418 208.984H28.9152" stroke="url(#paint2_linear_735_422)" stroke-miterlimit="10"></path><path d="M427.162 154.915L402.451 154.973C392.947 154.973 383.789 158.715 376.992 165.337L344.275 197.237C336.557 204.781 326.189 208.984 315.418 208.984H28.9152" class="mot-hero-path-svg" stroke="url(#paint2_linear_735_422)" stroke-miterlimit="10"></path><path d="M429.178 145.99H393.466C385.171 145.99 377.165 149.099 371.059 154.685L355.68 168.792C349.69 174.262 341.856 177.314 333.792 177.314H206.899C195.552 177.314 184.608 172.823 176.602 164.819L88.3009 76.8923C79.2001 67.7944 66.8161 62.7272 53.9713 62.7272H16.1857" stroke="url(#paint3_linear_735_422)" stroke-miterlimit="10"></path><path d="M429.178 145.99H393.466C385.171 145.99 377.165 149.099 371.059 154.685L355.68 168.792C349.69 174.262 341.856 177.314 333.792 177.314H206.899C195.552 177.314 184.608 172.823 176.602 164.819L88.3009 76.8923C79.2001 67.7944 66.8161 62.7272 53.9713 62.7272H16.1857" stroke="url(#paint3_linear_735_422)" class="mot-hero-path-svg" stroke-miterlimit="10"></path><path d="M427.162 163.092H411.955C400.147 163.092 388.858 167.756 380.506 176.047L280.973 274.742C274.925 280.73 266.746 284.07 258.278 284.07H0" stroke="url(#paint4_linear_735_422)" stroke-miterlimit="10"></path><path d="M427.162 163.092H411.955C400.147 163.092 388.858 167.756 380.506 176.047L280.973 274.742C274.925 280.73 266.746 284.07 258.278 284.07H0" stroke="url(#paint4_linear_735_422)" stroke-miterlimit="10" class="mot-hero-path-svg"></path><path d="M470.995 95.3759V84.1475C470.995 75.971 467.885 68.1399 462.298 62.209L439.258 37.6793" stroke="url(#paint5_linear_735_422)" stroke-miterlimit="10"></path><path d="M487.584 95.3758C487.584 95.3758 486.547 46.9499 487.584 37.6793C488.621 28.4087 491.616 21.902 492.25 21.3262" stroke="url(#paint6_linear_735_422)" stroke-miterlimit="10"></path><path d="M479.232 96.4699C479.232 96.4699 480.269 54.8386 479.232 45.5104C478.195 36.1822 475.2 27.0267 474.566 26.4509" stroke="url(#paint7_linear_735_422)" stroke-miterlimit="10"></path><path d="M495.821 95.491L495.878 85.587C495.878 75.683 498.758 69.2915 503.597 63.7637L523.814 42.0555" stroke="url(#paint8_linear_735_422)" stroke-miterlimit="10"></path><path d="M540.806 138.216L554.227 138.274C564.019 138.332 573.466 134.531 580.55 127.679L661.766 48.8501C666.259 44.4739 672.307 42.0555 678.586 42.0555H757.901C765.389 42.0555 772.589 39.2341 778.061 34.1093L813.6 1" stroke="url(#paint9_linear_735_422)" stroke-miterlimit="10"></path><path d="M540.806 138.216L554.227 138.274C564.019 138.332 573.466 134.531 580.55 127.679L661.766 48.8501C666.259 44.4739 672.307 42.0555 678.586 42.0555H757.901C765.389 42.0555 772.589 39.2341 778.061 34.1093L813.6 1" stroke="url(#paint9_linear_735_422)" stroke-miterlimit="10" class="mot-hero-path-svg"></path><path d="M540.806 146.681H555.782C563.501 146.681 570.989 143.859 576.749 138.792L594.202 123.533C600.826 117.718 609.35 114.551 618.221 114.551H740.966C751.795 114.551 762.221 110.405 770.112 102.919L804.038 70.7311C809.568 65.4912 816.883 62.5545 824.486 62.5545H911.52" stroke="url(#paint10_linear_735_422)" stroke-miterlimit="10"></path><path d="M540.806 146.681H555.782C563.501 146.681 570.989 143.859 576.749 138.792L594.202 123.533C600.826 117.718 609.35 114.551 618.221 114.551H740.966C751.795 114.551 762.221 110.405 770.112 102.919L804.038 70.7311C809.568 65.4912 816.883 62.5545 824.486 62.5545H911.52" stroke="url(#paint10_linear_735_422)" stroke-miterlimit="10" class="mot-hero-path-svg"></path><path d="M540.806 155.03H555.494C564.077 155.03 572.371 152.094 579.053 146.739L601.229 128.946C606.355 124.858 612.749 122.612 619.315 122.612H687.629C694.886 122.612 701.856 125.491 706.982 130.616L748.109 183.821C755.885 191.594 766.426 195.971 777.427 195.971H914.227" stroke="url(#paint11_linear_735_422)" stroke-miterlimit="10"></path><path d="M540.806 155.03H555.494C564.077 155.03 572.371 152.094 579.053 146.739L601.229 128.946C606.355 124.858 612.749 122.612 619.315 122.612H687.629C694.886 122.612 701.856 125.491 706.982 130.616L748.109 183.821C755.885 191.594 766.426 195.971 777.427 195.971H914.227" stroke="url(#paint11_linear_735_422)" stroke-miterlimit="10" class="mot-hero-path-svg"></path><path d="M540.806 163.149L553.19 163.207C560.966 163.207 568.57 165.625 574.963 170.117L597.888 186.297C605.837 191.882 615.283 194.877 625.018 194.877H673.632C686.189 194.877 698.227 199.713 707.213 208.466L748.512 248.37C755.366 254.992 764.582 258.734 774.144 258.734H966.47" stroke="url(#paint12_linear_735_422)" stroke-miterlimit="10"></path><path d="M540.806 163.149L553.19 163.207C560.966 163.207 568.57 165.625 574.963 170.117L597.888 186.297C605.837 191.882 615.283 194.877 625.018 194.877H673.632C686.189 194.877 698.227 199.713 707.213 208.466L748.512 248.37C755.366 254.992 764.582 258.734 774.144 258.734H966.47" stroke="url(#paint12_linear_735_422)" stroke-miterlimit="10" class="mot-hero-path-svg"></path><path d="M486.605 211.057C486.605 211.057 485.568 259.483 486.605 268.754C487.642 278.082 490.637 284.531 491.27 285.107" stroke="url(#paint13_linear_735_422)" stroke-miterlimit="10"></path><path d="M486.605 211.057C486.605 211.057 485.568 259.483 486.605 268.754C487.642 278.082 490.637 284.531 491.27 285.107" stroke="url(#paint13_linear_735_422)" stroke-miterlimit="10" class="mot-hero-path-svg-sm"></path><path d="M494.842 209.329L494.957 211.287C495.59 222.688 500.371 233.456 508.378 241.575L526.464 259.828C537.811 271.287 553.248 277.736 569.318 277.736H612.749C621.965 277.736 630.893 280.788 638.093 286.489L647.424 293.801" stroke="url(#paint14_linear_735_422)" stroke-miterlimit="10"></path><path d="M494.842 209.329L494.957 211.287C495.59 222.688 500.371 233.456 508.378 241.575L526.464 259.828C537.811 271.287 553.248 277.736 569.318 277.736H612.749C621.965 277.736 630.893 280.788 638.093 286.489L647.424 293.801" stroke="url(#paint14_linear_735_422)" stroke-miterlimit="10" class="mot-hero-path-svg-sm"></path><path d="M478.195 208.926V220.04C478.195 228.043 475.373 235.759 470.246 241.921L432.058 287.583" stroke="url(#paint15_linear_735_422)" stroke-miterlimit="10"></path><path d="M478.195 208.926V220.04C478.195 228.043 475.373 235.759 470.246 241.921L432.058 287.583" stroke="url(#paint15_linear_735_422)" stroke-miterlimit="10" class="mot-hero-path-svg-sm"></path><path d="M377.626 281.824L395.078 266.335C400.55 261.441 407.693 258.734 415.008 258.734H427.738C443.117 258.734 456.768 250.5 464.198 238.005C468.058 231.498 469.843 223.955 469.901 216.412L469.958 209.329" stroke="url(#paint16_linear_735_422)" stroke-miterlimit="10"></path><path d="M377.626 281.824L395.078 266.335C400.55 261.441 407.693 258.734 415.008 258.734H427.738C443.117 258.734 456.768 250.5 464.198 238.005C468.058 231.498 469.843 223.955 469.901 216.412L469.958 209.329" stroke="url(#paint16_linear_735_422)" stroke-miterlimit="10" class="mot-hero-path-svg-sm-r"></path><path d="M496.654 103.731V96.7063C496.654 95.2092 495.675 94 494.408 94H494.35C493.256 94 492.334 95.094 492.334 96.476V103.731H496.654Z" fill="url(#paint17_linear_735_422)" stroke="#C7BFFF" stroke-miterlimit="10"></path><path d="M488.36 103.731V96.7063C488.36 95.2092 487.381 94 486.114 94H486.056C484.962 94 484.04 95.094 484.04 96.476V103.731H488.36Z" fill="url(#paint18_linear_735_422)" stroke="#C7BFFF" stroke-miterlimit="10"></path><path d="M480.066 103.731V96.7063C480.066 95.2092 479.086 94 477.819 94H477.762C476.667 94 475.746 95.094 475.746 96.476V103.731H480.066Z" fill="url(#paint19_linear_735_422)" stroke="#C7BFFF" stroke-miterlimit="10"></path><path d="M471.771 103.731V96.7063C471.771 95.2092 470.792 94 469.525 94H469.467C468.373 94 467.451 95.094 467.451 96.476V103.731H471.771Z" fill="url(#paint20_linear_735_422)" stroke="#C7BFFF" stroke-miterlimit="10"></path><path d="M496.56 204.18V211.205C496.56 212.702 495.581 213.911 494.314 213.911H494.256C493.162 213.911 492.24 212.817 492.24 211.435V204.18H496.56Z" fill="url(#paint21_linear_735_422)" stroke="#C7BFFF" stroke-miterlimit="10"></path><path d="M488.266 204.18V211.205C488.266 212.702 487.286 213.911 486.019 213.911H485.962C484.867 213.911 483.946 212.817 483.946 211.435V204.18H488.266Z" fill="url(#paint22_linear_735_422)" stroke="#C7BFFF" stroke-miterlimit="10"></path><path d="M479.971 204.18V211.205C479.971 212.702 478.992 213.911 477.725 213.911H477.667C476.573 213.911 475.651 212.817 475.651 211.435V204.18H479.971Z" fill="url(#paint23_linear_735_422)" stroke="#C7BFFF" stroke-miterlimit="10"></path><path d="M471.734 204.18V211.205C471.734 212.702 470.755 213.911 469.488 213.911H469.43C468.336 213.911 467.414 212.817 467.414 211.435V204.18H471.734Z" fill="url(#paint24_linear_735_422)" stroke="#C7BFFF" stroke-miterlimit="10"></path><path d="M532.963 164.904H539.99C541.488 164.904 542.697 163.925 542.697 162.658V162.601C542.697 161.507 541.603 160.585 540.221 160.585H532.963V164.904Z" fill="url(#paint25_linear_735_422)" stroke="#C7BFFF" stroke-miterlimit="10"></path><path d="M532.963 148.32H539.99C541.488 148.32 542.697 147.342 542.697 146.075V146.017C542.697 144.923 541.603 144.002 540.221 144.002H532.963V148.32Z" fill="url(#paint26_linear_735_422)" stroke="#C7BFFF" stroke-miterlimit="10"></path><path d="M532.963 156.612H539.99C541.488 156.612 542.697 155.633 542.697 154.366V154.309C542.697 153.215 541.603 152.294 540.221 152.294H532.963V156.612Z" fill="url(#paint27_linear_735_422)" stroke="#C7BFFF" stroke-miterlimit="10"></path><path d="M532.963 140.086H539.99C541.488 140.086 542.697 139.107 542.697 137.841V137.783C542.697 136.689 541.603 135.768 540.221 135.768H532.963V140.086Z" fill="url(#paint28_linear_735_422)" stroke="#C7BFFF" stroke-miterlimit="10"></path><path d="M433.734 164.904H426.707C425.21 164.904 424 163.925 424 162.658V162.601C424 161.507 425.094 160.585 426.477 160.585H433.734V164.904Z" fill="url(#paint29_linear_735_422)" stroke="#C7BFFF" stroke-miterlimit="10"></path><path d="M433.734 156.612H426.707C425.21 156.612 424 155.633 424 154.366V154.309C424 153.215 425.094 152.294 426.477 152.294H433.734V156.612Z" fill="url(#paint30_linear_735_422)" stroke="#C7BFFF" stroke-miterlimit="10"></path><path d="M433.734 148.32H426.707C425.21 148.32 424 147.342 424 146.075V146.017C424 144.923 425.094 144.002 426.477 144.002H433.734V148.32Z" fill="url(#paint31_linear_735_422)" stroke="#C7BFFF" stroke-miterlimit="10"></path><path d="M433.734 140.086H426.707C425.21 140.086 424 139.107 424 137.841V137.783C424 136.689 425.094 135.768 426.477 135.768H433.734V140.086Z" fill="url(#paint32_linear_735_422)" stroke="#C7BFFF" stroke-miterlimit="10"></path><defs><linearGradient id="paint0_linear_735_422" x1="441.506" y1="121.2" x2="528.845" y2="184.109" gradientUnits="userSpaceOnUse"><stop stop-color="#CDC9EE"></stop><stop offset="0.51334" stop-color="#FAF9FF"></stop><stop offset="0.905217" stop-color="#C7BFFF"></stop></linearGradient><linearGradient id="paint1_linear_735_422" x1="151.6" y1="91.5657" x2="424.979" y2="91.5657" gradientUnits="userSpaceOnUse"><stop stop-color="#3A3B8B" stop-opacity="0"></stop><stop offset="0.0314132" stop-color="#4A4A98" stop-opacity="0.0506574"></stop><stop offset="0.1163" stop-color="#706EB8" stop-opacity="0.1875"></stop><stop offset="0.2047" stop-color="#908BD1" stop-opacity="0.33"></stop><stop offset="0.2962" stop-color="#A8A2E6" stop-opacity="0.4777"></stop><stop offset="0.3923" stop-color="#B9B2F4" stop-opacity="0.6326"></stop><stop offset="0.4958" stop-color="#C4BCFC" stop-opacity="0.7996"></stop><stop offset="0.6201" stop-color="#C7BFFF"></stop></linearGradient><linearGradient id="paint2_linear_735_422" x1="28.9097" y1="181.902" x2="427.165" y2="181.902" gradientUnits="userSpaceOnUse"><stop stop-color="#3A3B8B" stop-opacity="0"></stop><stop offset="0.0314132" stop-color="#4A4A98" stop-opacity="0.0506574"></stop><stop offset="0.1163" stop-color="#706EB8" stop-opacity="0.1875"></stop><stop offset="0.2047" stop-color="#908BD1" stop-opacity="0.33"></stop><stop offset="0.2962" stop-color="#A8A2E6" stop-opacity="0.4777"></stop><stop offset="0.3923" stop-color="#B9B2F4" stop-opacity="0.6326"></stop><stop offset="0.4958" stop-color="#C4BCFC" stop-opacity="0.7996"></stop><stop offset="0.6201" stop-color="#C7BFFF"></stop></linearGradient><linearGradient id="paint3_linear_735_422" x1="16.2102" y1="120.025" x2="429.153" y2="120.025" gradientUnits="userSpaceOnUse"><stop stop-color="#3A3B8B" stop-opacity="0"></stop><stop offset="0.0314132" stop-color="#4A4A98" stop-opacity="0.0506574"></stop><stop offset="0.1163" stop-color="#706EB8" stop-opacity="0.1875"></stop><stop offset="0.2047" stop-color="#908BD1" stop-opacity="0.33"></stop><stop offset="0.2962" stop-color="#A8A2E6" stop-opacity="0.4777"></stop><stop offset="0.3923" stop-color="#B9B2F4" stop-opacity="0.6326"></stop><stop offset="0.4958" stop-color="#C4BCFC" stop-opacity="0.7996"></stop><stop offset="0.6201" stop-color="#C7BFFF"></stop></linearGradient><linearGradient id="paint4_linear_735_422" x1="-0.017568" y1="223.578" x2="427.165" y2="223.578" gradientUnits="userSpaceOnUse"><stop stop-color="#3A3B8B" stop-opacity="0"></stop><stop offset="0.0314132" stop-color="#4A4A98" stop-opacity="0.0506574"></stop><stop offset="0.1163" stop-color="#706EB8" stop-opacity="0.1875"></stop><stop offset="0.2047" stop-color="#908BD1" stop-opacity="0.33"></stop><stop offset="0.2962" stop-color="#A8A2E6" stop-opacity="0.4777"></stop><stop offset="0.3923" stop-color="#B9B2F4" stop-opacity="0.6326"></stop><stop offset="0.4958" stop-color="#C4BCFC" stop-opacity="0.7996"></stop><stop offset="0.6201" stop-color="#C7BFFF"></stop></linearGradient><linearGradient id="paint5_linear_735_422" x1="464.11" y1="51.3574" x2="446.629" y2="81.6438" gradientUnits="userSpaceOnUse"><stop stop-color="#3A3B8B" stop-opacity="0"></stop><stop offset="0.0314132" stop-color="#4A4A98" stop-opacity="0.0506574"></stop><stop offset="0.1163" stop-color="#706EB8" stop-opacity="0.1875"></stop><stop offset="0.2047" stop-color="#908BD1" stop-opacity="0.33"></stop><stop offset="0.2962" stop-color="#A8A2E6" stop-opacity="0.4777"></stop><stop offset="0.3923" stop-color="#B9B2F4" stop-opacity="0.6326"></stop><stop offset="0.4958" stop-color="#C4BCFC" stop-opacity="0.7996"></stop><stop offset="0.6201" stop-color="#C7BFFF"></stop></linearGradient><linearGradient id="paint6_linear_735_422" x1="489.604" y1="20.8915" x2="489.604" y2="95.403" gradientUnits="userSpaceOnUse"><stop stop-color="#3A3B8B" stop-opacity="0"></stop><stop offset="0.0314132" stop-color="#4A4A98" stop-opacity="0.0506574"></stop><stop offset="0.1163" stop-color="#706EB8" stop-opacity="0.1875"></stop><stop offset="0.2047" stop-color="#908BD1" stop-opacity="0.33"></stop><stop offset="0.2962" stop-color="#A8A2E6" stop-opacity="0.4777"></stop><stop offset="0.3923" stop-color="#B9B2F4" stop-opacity="0.6326"></stop><stop offset="0.4958" stop-color="#C4BCFC" stop-opacity="0.7996"></stop><stop offset="0.6201" stop-color="#C7BFFF"></stop></linearGradient><linearGradient id="paint7_linear_735_422" x1="477.23" y1="25.9987" x2="477.23" y2="96.4569" gradientUnits="userSpaceOnUse"><stop stop-color="#3A3B8B" stop-opacity="0"></stop><stop offset="0.0314132" stop-color="#4A4A98" stop-opacity="0.0506574"></stop><stop offset="0.1163" stop-color="#706EB8" stop-opacity="0.1875"></stop><stop offset="0.2047" stop-color="#908BD1" stop-opacity="0.33"></stop><stop offset="0.2962" stop-color="#A8A2E6" stop-opacity="0.4777"></stop><stop offset="0.3923" stop-color="#B9B2F4" stop-opacity="0.6326"></stop><stop offset="0.4958" stop-color="#C4BCFC" stop-opacity="0.7996"></stop><stop offset="0.6201" stop-color="#C7BFFF"></stop></linearGradient><linearGradient id="paint8_linear_735_422" x1="521.773" y1="40.7147" x2="491.427" y2="93.292" gradientUnits="userSpaceOnUse"><stop stop-color="#3A3B8B" stop-opacity="0"></stop><stop offset="0.0314132" stop-color="#4A4A98" stop-opacity="0.0506574"></stop><stop offset="0.1163" stop-color="#706EB8" stop-opacity="0.1875"></stop><stop offset="0.2047" stop-color="#908BD1" stop-opacity="0.33"></stop><stop offset="0.2962" stop-color="#A8A2E6" stop-opacity="0.4777"></stop><stop offset="0.3923" stop-color="#B9B2F4" stop-opacity="0.6326"></stop><stop offset="0.4958" stop-color="#C4BCFC" stop-opacity="0.7996"></stop><stop offset="0.6201" stop-color="#C7BFFF"></stop></linearGradient><linearGradient id="paint9_linear_735_422" x1="813.999" y1="69.7343" x2="540.827" y2="69.7343" gradientUnits="userSpaceOnUse"><stop stop-color="#3A3B8B" stop-opacity="0"></stop><stop offset="0.0314132" stop-color="#4A4A98" stop-opacity="0.0506574"></stop><stop offset="0.1163" stop-color="#706EB8" stop-opacity="0.1875"></stop><stop offset="0.2047" stop-color="#908BD1" stop-opacity="0.33"></stop><stop offset="0.2962" stop-color="#A8A2E6" stop-opacity="0.4777"></stop><stop offset="0.3923" stop-color="#B9B2F4" stop-opacity="0.6326"></stop><stop offset="0.4958" stop-color="#C4BCFC" stop-opacity="0.7996"></stop><stop offset="0.6201" stop-color="#C7BFFF"></stop></linearGradient><linearGradient id="paint10_linear_735_422" x1="911.54" y1="104.624" x2="540.83" y2="104.624" gradientUnits="userSpaceOnUse"><stop stop-color="#3A3B8B" stop-opacity="0"></stop><stop offset="0.0314132" stop-color="#4A4A98" stop-opacity="0.0506574"></stop><stop offset="0.1163" stop-color="#706EB8" stop-opacity="0.1875"></stop><stop offset="0.2047" stop-color="#908BD1" stop-opacity="0.33"></stop><stop offset="0.2962" stop-color="#A8A2E6" stop-opacity="0.4777"></stop><stop offset="0.3923" stop-color="#B9B2F4" stop-opacity="0.6326"></stop><stop offset="0.4958" stop-color="#C4BCFC" stop-opacity="0.7996"></stop><stop offset="0.6201" stop-color="#C7BFFF"></stop></linearGradient><linearGradient id="paint11_linear_735_422" x1="914.244" y1="159.267" x2="540.83" y2="159.267" gradientUnits="userSpaceOnUse"><stop stop-color="#3A3B8B" stop-opacity="0"></stop><stop offset="0.0314132" stop-color="#4A4A98" stop-opacity="0.0506574"></stop><stop offset="0.1163" stop-color="#706EB8" stop-opacity="0.1875"></stop><stop offset="0.2047" stop-color="#908BD1" stop-opacity="0.33"></stop><stop offset="0.2962" stop-color="#A8A2E6" stop-opacity="0.4777"></stop><stop offset="0.3923" stop-color="#B9B2F4" stop-opacity="0.6326"></stop><stop offset="0.4958" stop-color="#C4BCFC" stop-opacity="0.7996"></stop><stop offset="0.6201" stop-color="#C7BFFF"></stop></linearGradient><linearGradient id="paint12_linear_735_422" x1="966.515" y1="210.951" x2="540.829" y2="210.951" gradientUnits="userSpaceOnUse"><stop stop-color="#3A3B8B" stop-opacity="0"></stop><stop offset="0.0314132" stop-color="#4A4A98" stop-opacity="0.0506574"></stop><stop offset="0.1163" stop-color="#706EB8" stop-opacity="0.1875"></stop><stop offset="0.2047" stop-color="#908BD1" stop-opacity="0.33"></stop><stop offset="0.2962" stop-color="#A8A2E6" stop-opacity="0.4777"></stop><stop offset="0.3923" stop-color="#B9B2F4" stop-opacity="0.6326"></stop><stop offset="0.4958" stop-color="#C4BCFC" stop-opacity="0.7996"></stop><stop offset="0.6201" stop-color="#C7BFFF"></stop></linearGradient><linearGradient id="paint13_linear_735_422" x1="488.609" y1="285.548" x2="488.609" y2="211.037" gradientUnits="userSpaceOnUse"><stop stop-color="#3A3B8B" stop-opacity="0"></stop><stop offset="0.0314132" stop-color="#4A4A98" stop-opacity="0.0506574"></stop><stop offset="0.1163" stop-color="#706EB8" stop-opacity="0.1875"></stop><stop offset="0.2047" stop-color="#908BD1" stop-opacity="0.33"></stop><stop offset="0.2962" stop-color="#A8A2E6" stop-opacity="0.4777"></stop><stop offset="0.3923" stop-color="#B9B2F4" stop-opacity="0.6326"></stop><stop offset="0.4958" stop-color="#C4BCFC" stop-opacity="0.7996"></stop><stop offset="0.6201" stop-color="#C7BFFF"></stop></linearGradient><linearGradient id="paint14_linear_735_422" x1="647.767" y1="251.775" x2="494.24" y2="251.775" gradientUnits="userSpaceOnUse"><stop stop-color="#3A3B8B" stop-opacity="0"></stop><stop offset="0.0314132" stop-color="#4A4A98" stop-opacity="0.0506574"></stop><stop offset="0.1163" stop-color="#706EB8" stop-opacity="0.1875"></stop><stop offset="0.2047" stop-color="#908BD1" stop-opacity="0.33"></stop><stop offset="0.2962" stop-color="#A8A2E6" stop-opacity="0.4777"></stop><stop offset="0.3923" stop-color="#B9B2F4" stop-opacity="0.6326"></stop><stop offset="0.4958" stop-color="#C4BCFC" stop-opacity="0.7996"></stop><stop offset="0.6201" stop-color="#C7BFFF"></stop></linearGradient><linearGradient id="paint15_linear_735_422" x1="455.169" y1="287.957" x2="455.169" y2="208.913" gradientUnits="userSpaceOnUse"><stop stop-color="#3A3B8B" stop-opacity="0"></stop><stop offset="0.0314132" stop-color="#4A4A98" stop-opacity="0.0506574"></stop><stop offset="0.1163" stop-color="#706EB8" stop-opacity="0.1875"></stop><stop offset="0.2047" stop-color="#908BD1" stop-opacity="0.33"></stop><stop offset="0.2962" stop-color="#A8A2E6" stop-opacity="0.4777"></stop><stop offset="0.3923" stop-color="#B9B2F4" stop-opacity="0.6326"></stop><stop offset="0.4958" stop-color="#C4BCFC" stop-opacity="0.7996"></stop><stop offset="0.6201" stop-color="#C7BFFF"></stop></linearGradient><linearGradient id="paint16_linear_735_422" x1="423.885" y1="282.245" x2="423.885" y2="209.338" gradientUnits="userSpaceOnUse"><stop stop-color="#3A3B8B" stop-opacity="0"></stop><stop offset="0.0314132" stop-color="#4A4A98" stop-opacity="0.0506574"></stop><stop offset="0.1163" stop-color="#706EB8" stop-opacity="0.1875"></stop><stop offset="0.2047" stop-color="#908BD1" stop-opacity="0.33"></stop><stop offset="0.2962" stop-color="#A8A2E6" stop-opacity="0.4777"></stop><stop offset="0.3923" stop-color="#B9B2F4" stop-opacity="0.6326"></stop><stop offset="0.4958" stop-color="#C4BCFC" stop-opacity="0.7996"></stop><stop offset="0.6201" stop-color="#C7BFFF"></stop></linearGradient><linearGradient id="paint17_linear_735_422" x1="494.472" y1="94.0074" x2="494.472" y2="103.735" gradientUnits="userSpaceOnUse"><stop stop-color="#A33FFF"></stop><stop offset="0.7868" stop-color="#0A011F"></stop></linearGradient><linearGradient id="paint18_linear_735_422" x1="486.185" y1="94.0074" x2="486.185" y2="103.735" gradientUnits="userSpaceOnUse"><stop stop-color="#A33FFF"></stop><stop offset="0.7868" stop-color="#0A011F"></stop></linearGradient><linearGradient id="paint19_linear_735_422" x1="477.898" y1="94.0074" x2="477.898" y2="103.735" gradientUnits="userSpaceOnUse"><stop stop-color="#A33FFF"></stop><stop offset="0.7868" stop-color="#0A011F"></stop></linearGradient><linearGradient id="paint20_linear_735_422" x1="469.611" y1="94.0074" x2="469.611" y2="103.735" gradientUnits="userSpaceOnUse"><stop stop-color="#A33FFF"></stop><stop offset="0.7868" stop-color="#0A011F"></stop></linearGradient><linearGradient id="paint21_linear_735_422" x1="494.403" y1="213.883" x2="494.403" y2="204.156" gradientUnits="userSpaceOnUse"><stop stop-color="#A33FFF"></stop><stop offset="0.7868" stop-color="#0A011F"></stop></linearGradient><linearGradient id="paint22_linear_735_422" x1="486.116" y1="213.883" x2="486.116" y2="204.156" gradientUnits="userSpaceOnUse"><stop stop-color="#A33FFF"></stop><stop offset="0.7868" stop-color="#0A011F"></stop></linearGradient><linearGradient id="paint23_linear_735_422" x1="477.829" y1="213.883" x2="477.829" y2="204.156" gradientUnits="userSpaceOnUse"><stop stop-color="#A33FFF"></stop><stop offset="0.7868" stop-color="#0A011F"></stop></linearGradient><linearGradient id="paint24_linear_735_422" x1="469.542" y1="213.883" x2="469.542" y2="204.156" gradientUnits="userSpaceOnUse"><stop stop-color="#A33FFF"></stop><stop offset="0.7868" stop-color="#0A011F"></stop></linearGradient><linearGradient id="paint25_linear_735_422" x1="542.721" y1="162.751" x2="532.991" y2="162.751" gradientUnits="userSpaceOnUse"><stop stop-color="#A33FFF"></stop><stop offset="0.7868" stop-color="#0A011F"></stop></linearGradient><linearGradient id="paint26_linear_735_422" x1="542.721" y1="146.182" x2="532.991" y2="146.182" gradientUnits="userSpaceOnUse"><stop stop-color="#A33FFF"></stop><stop offset="0.7868" stop-color="#0A011F"></stop></linearGradient><linearGradient id="paint27_linear_735_422" x1="542.721" y1="154.467" x2="532.991" y2="154.467" gradientUnits="userSpaceOnUse"><stop stop-color="#A33FFF"></stop><stop offset="0.7868" stop-color="#0A011F"></stop></linearGradient><linearGradient id="paint28_linear_735_422" x1="542.721" y1="137.898" x2="532.991" y2="137.898" gradientUnits="userSpaceOnUse"><stop stop-color="#A33FFF"></stop><stop offset="0.7868" stop-color="#0A011F"></stop></linearGradient><linearGradient id="paint29_linear_735_422" x1="424.003" y1="162.751" x2="433.734" y2="162.751" gradientUnits="userSpaceOnUse"><stop stop-color="#A33FFF"></stop><stop offset="0.7868" stop-color="#0A011F"></stop></linearGradient><linearGradient id="paint30_linear_735_422" x1="424.003" y1="154.467" x2="433.734" y2="154.467" gradientUnits="userSpaceOnUse"><stop stop-color="#A33FFF"></stop><stop offset="0.7868" stop-color="#0A011F"></stop></linearGradient><linearGradient id="paint31_linear_735_422" x1="424.003" y1="146.182" x2="433.734" y2="146.182" gradientUnits="userSpaceOnUse"><stop stop-color="#A33FFF"></stop><stop offset="0.7868" stop-color="#0A011F"></stop></linearGradient><linearGradient id="paint32_linear_735_422" x1="424.003" y1="137.898" x2="433.734" y2="137.898" gradientUnits="userSpaceOnUse"><stop stop-color="#A33FFF"></stop><stop offset="0.7868" stop-color="#0A011F"></stop></linearGradient></defs></svg>