<svg width="767" height="59" viewBox="0 0 767 59" fill="none" xmlns="http://www.w3.org/2000/svg">
<path d="M750.203 12.3582C753.837 12.3582 757.141 13.7943 759.526 16.1321C761.899 18.47 763.375 21.6873 763.375 25.272C763.375 30.2928 757.482 39.3882 753.383 45.7561C752.247 47.5262 751.237 49.0736 750.544 50.2648C750.43 50.4318 750.192 50.4986 750.022 50.4095C749.954 50.365 749.908 50.3205 749.874 50.2648C749.181 49.0736 748.171 47.5262 747.047 45.7561C742.925 39.3882 737.032 30.2928 737.032 25.272C737.032 21.6984 738.519 18.47 740.904 16.1321C743.277 13.7943 746.57 12.3582 750.203 12.3582ZM758.969 16.6665C756.721 14.4734 753.633 13.104 750.203 13.104C746.774 13.104 743.686 14.4622 741.437 16.6665C739.2 18.8708 737.804 21.91 737.804 25.272C737.804 30.0702 743.618 39.0654 747.671 45.3664C748.648 46.8694 749.522 48.2275 750.203 49.3297C750.885 48.2275 751.748 46.8694 752.735 45.3664C756.789 39.0654 762.603 30.0702 762.603 25.272C762.603 21.91 761.229 18.8596 758.969 16.6665Z" fill="#50007F" fill-opacity="0.79"/>
<path d="M750.203 17.1787C752.384 17.1787 754.359 18.0471 755.779 19.4498C757.221 20.8414 758.095 22.7784 758.095 24.9159C758.095 27.0534 757.209 28.9904 755.779 30.382C754.359 31.7959 752.384 32.6531 750.203 32.6531C748.023 32.6531 746.047 31.7847 744.628 30.382C743.186 28.9904 742.312 27.0534 742.312 24.9159C742.312 22.7784 743.197 20.8414 744.628 19.4498C746.047 18.0359 748.023 17.1787 750.203 17.1787ZM755.245 19.9841C753.962 18.715 752.179 17.9357 750.203 17.9357C748.228 17.9357 746.456 18.715 745.162 19.9841C743.867 21.2533 743.073 22.99 743.073 24.927C743.073 26.8641 743.867 28.6119 745.162 29.8699C746.456 31.139 748.228 31.9183 750.203 31.9183C752.179 31.9183 753.962 31.139 755.245 29.8699C756.539 28.6119 757.334 26.8641 757.334 24.927C757.334 22.99 756.539 21.2533 755.245 19.9841Z" fill="#50007F" fill-opacity="0.79"/>
<path d="M750.203 19.9619C749.999 19.9619 749.829 19.7949 749.829 19.5722C749.829 19.3718 749.999 19.2048 750.203 19.2048C751.816 19.2048 753.269 19.8505 754.325 20.8747C755.381 21.9101 756.028 23.335 756.028 24.9159C756.028 25.1163 755.858 25.2833 755.654 25.2833C755.438 25.2833 755.279 25.1163 755.279 24.9159C755.279 23.5354 754.711 22.2997 753.791 21.398C752.872 20.4962 751.611 19.9619 750.203 19.9619Z" fill="#50007F" fill-opacity="0.79"/>
<path d="M657.72 12.6252C660.819 12.6252 663.647 13.8053 665.668 15.7313C667.712 17.6572 668.984 20.3068 668.984 23.2458C668.984 26.1848 667.712 28.8455 665.691 30.7715C663.647 32.6974 660.831 33.8775 657.72 33.8775C654.608 33.8775 651.804 32.6974 649.771 30.7715C647.727 28.8455 646.456 26.1737 646.456 23.2458C646.456 20.3179 647.727 17.6572 649.771 15.7313C651.792 13.8053 654.62 12.6252 657.72 12.6252ZM665.032 16.3324C663.159 14.5623 660.581 13.4713 657.72 13.4713C654.858 13.4713 652.281 14.5623 650.407 16.3324C648.533 18.1025 647.375 20.5406 647.375 23.2458C647.375 25.951 648.533 28.4113 650.407 30.1703C652.281 31.9404 654.858 33.0314 657.72 33.0314C660.581 33.0314 663.159 31.9404 665.032 30.1703C666.917 28.4002 668.075 25.951 668.075 23.2458C668.075 20.5406 666.917 18.1025 665.032 16.3324Z" fill="#50007F" fill-opacity="0.79"/>
<path d="M658.277 14.9055C658.277 14.6717 658.481 14.4824 658.731 14.4824C658.981 14.4824 659.174 14.6717 659.174 14.9055V18.3121C659.174 18.5458 658.969 18.7351 658.731 18.7351C658.492 18.7351 658.277 18.5458 658.277 18.3121V14.9055Z" fill="#50007F" fill-opacity="0.79"/>
<path d="M669.518 23.8228C669.756 23.8228 669.961 24.012 669.961 24.2458C669.961 24.4907 669.756 24.6688 669.518 24.6688H665.907C665.669 24.6688 665.453 24.4907 665.453 24.2458C665.453 24.012 665.657 23.8228 665.907 23.8228H669.518Z" fill="#50007F" fill-opacity="0.79"/>
<path d="M659.174 34.4542C659.174 34.6992 658.969 34.8995 658.731 34.8995C658.492 34.8995 658.277 34.7103 658.277 34.4542V31.0588C658.277 30.8139 658.481 30.6357 658.731 30.6357C658.981 30.6357 659.174 30.8139 659.174 31.0588V34.4542Z" fill="#50007F" fill-opacity="0.79"/>
<path d="M651.986 23.9786C651.747 23.9786 651.532 23.8005 651.532 23.5556C651.532 23.3218 651.736 23.1326 651.986 23.1326H655.597C655.835 23.1326 656.051 23.3218 656.051 23.5556C656.051 23.8005 655.847 23.9786 655.597 23.9786H651.986Z" fill="#50007F" fill-opacity="0.79"/>
<path d="M654.961 18.312C654.847 18.1005 654.938 17.8333 655.165 17.7443C655.392 17.6329 655.654 17.722 655.767 17.9335L659.299 24.858L664.726 25.4814C664.987 25.5148 665.158 25.7264 665.135 25.9601C665.101 26.1939 664.874 26.3721 664.635 26.3275L658.969 25.6707C658.822 25.6484 658.685 25.5594 658.617 25.4369L654.972 18.3009L654.961 18.312Z" fill="#50007F" fill-opacity="0.79"/>
<path d="M668.428 19.7595H688.821C689.06 19.7595 689.276 19.9488 689.276 20.2048V48.5931C689.276 48.838 689.071 49.0161 688.821 49.0161H663.421C663.182 49.0161 662.966 48.838 662.966 48.5931V48.5708C662.91 47.7247 662.512 46.9454 661.899 46.3777C661.263 45.8099 660.423 45.4537 659.469 45.4537C658.515 45.4537 657.698 45.8099 657.062 46.3777C656.449 46.9454 656.029 47.7359 655.994 48.6042C655.972 48.838 655.767 49.0161 655.54 49.0161H651.487C651.225 49.0161 651.021 48.838 651.021 48.5931V31.4377C651.316 31.7048 651.623 31.972 651.941 32.1947V48.17H655.143C655.29 47.2349 655.756 46.3888 656.449 45.7654C657.232 45.064 658.322 44.6187 659.48 44.6187C660.639 44.6187 661.729 45.064 662.535 45.7654C663.228 46.3888 663.693 47.2349 663.841 48.17H688.367V20.639H668.837C668.723 20.3384 668.598 20.0601 668.439 19.7707L668.428 19.7595Z" fill="#50007F" fill-opacity="0.79"/>
<path d="M688.821 26.105H697.224C697.371 26.105 697.507 26.1718 697.598 26.2831L707.364 37.8722C707.443 37.9612 707.454 38.0503 707.454 38.1394V48.5818C707.454 48.8267 707.273 49.0048 707.012 49.0048H702.958C702.719 49.0048 702.504 48.8267 702.504 48.5818V48.5595C702.447 47.7134 702.049 46.9342 701.414 46.3664C700.8 45.7986 699.937 45.4424 698.995 45.4424C698.053 45.4424 697.212 45.7986 696.588 46.3664C695.975 46.9342 695.554 47.7246 695.52 48.5929C695.498 48.8267 695.293 49.0048 695.066 49.0048H688.821C688.56 49.0048 688.355 48.8267 688.355 48.5818V26.528C688.355 26.2942 688.56 26.105 688.821 26.105ZM696.997 26.9511H689.275V48.1588H694.657C694.794 47.2236 695.271 46.3775 695.963 45.7541C696.747 45.0527 697.814 44.6074 698.995 44.6074C700.176 44.6074 701.243 45.0527 702.049 45.7541C702.742 46.3775 703.208 47.2236 703.355 48.1588H706.557V38.2952L696.997 26.9511Z" fill="#50007F" fill-opacity="0.79"/>
<path d="M669.155 26.9177H684.87C685.131 26.9177 685.324 27.107 685.324 27.363C685.324 27.5968 685.131 27.7861 684.87 27.7861H668.859C668.973 27.5078 669.064 27.2183 669.155 26.9177Z" fill="#50007F" fill-opacity="0.79"/>
<path d="M651.487 34.8217C651.225 34.8217 651.021 34.6324 651.021 34.3986C651.021 34.1648 651.225 33.9756 651.487 33.9756H655.393C656.437 34.2984 657.561 34.4654 658.72 34.4654C659.878 34.4654 661.002 34.2873 662.047 33.9756H684.87C685.131 33.9756 685.324 34.1648 685.324 34.3986C685.324 34.6324 685.131 34.8217 684.87 34.8217H651.475H651.487Z" fill="#50007F" fill-opacity="0.79"/>
<path d="M651.487 41.8576C651.225 41.8576 651.021 41.6794 651.021 41.4345C651.021 41.2007 651.225 41.0115 651.487 41.0115H684.881C685.142 41.0115 685.335 41.2007 685.335 41.4345C685.335 41.6794 685.142 41.8576 684.881 41.8576H651.487Z" fill="#50007F" fill-opacity="0.79"/>
<path d="M688.821 38.6068C688.56 38.6068 688.355 38.4064 688.355 38.1838C688.355 37.9611 688.56 37.7607 688.821 37.7607H707C707.261 37.7607 707.443 37.9611 707.443 38.1838C707.443 38.4064 707.261 38.6068 707 38.6068H688.821Z" fill="#50007F" fill-opacity="0.79"/>
<path d="M662.592 45.832C661.785 45.075 660.684 44.6074 659.469 44.6074C658.254 44.6074 657.187 45.0639 656.403 45.8097L656.369 45.832C655.586 46.5779 655.075 47.6132 655.075 48.7599C655.075 49.6616 655.393 50.4966 655.904 51.1645C656.097 50.953 656.358 50.7972 656.664 50.7081C656.244 50.1626 655.994 49.4947 655.994 48.7488C655.994 47.847 656.369 47.0121 657.005 46.4109L657.028 46.3886C657.664 45.8097 658.527 45.4312 659.48 45.4312C660.434 45.4312 661.331 45.7986 661.967 46.3998C662.58 47.0009 662.978 47.8359 662.978 48.7376C662.978 49.5058 662.694 50.196 662.251 50.7526C662.546 50.8751 662.773 51.0644 662.944 51.2981C663.534 50.5968 663.909 49.7173 663.909 48.7376C663.909 47.591 663.409 46.5445 662.614 45.8097L662.592 45.832Z" fill="#50007F" fill-opacity="0.79"/>
<path d="M696.52 46.4333L696.543 46.411C697.178 45.8321 698.041 45.4536 698.995 45.4536C699.949 45.4536 700.846 45.821 701.459 46.4221C702.095 47.0233 702.493 47.8583 702.493 48.76C702.493 49.5838 702.175 50.3186 701.652 50.8863C702.038 50.8418 702.424 50.8084 702.822 50.7973C703.174 50.1961 703.39 49.5059 703.39 48.7711C703.39 47.6245 702.901 46.578 702.118 45.8432C701.312 45.0862 700.21 44.6187 698.995 44.6187C697.78 44.6187 696.713 45.0751 695.907 45.821L695.884 45.8432C695.101 46.5891 694.59 47.6245 694.59 48.7711C694.59 49.4725 694.783 50.1293 695.112 50.7082C695.362 50.5858 695.646 50.5078 695.986 50.5078C695.998 50.5078 696.009 50.5078 696.02 50.5078C695.68 50.0069 695.475 49.4168 695.475 48.7711C695.475 47.8694 695.873 47.0344 696.509 46.4333H696.52Z" fill="#50007F" fill-opacity="0.79"/>
<path d="M690.445 29.1775H696.406C696.645 29.1775 696.86 29.3779 696.86 29.6005V36.0463C696.86 36.2912 696.656 36.4916 696.406 36.4916H690.445C690.206 36.4916 689.991 36.3024 689.991 36.0463V29.6005C689.991 29.3667 690.195 29.1775 690.445 29.1775ZM695.963 30.0236H690.91V35.6233H695.963V30.0236Z" fill="#50007F" fill-opacity="0.79"/>
<path d="M341.782 50.4406V43.0708C341.782 42.8593 341.873 42.6589 342.021 42.5142C342.168 42.3695 342.373 42.2804 342.577 42.2804H384.397C384.613 42.2804 384.817 42.3695 384.965 42.5142C385.112 42.6589 385.203 42.8593 385.203 43.0708V51.2867C385.51 51.3201 385.816 51.2645 386.123 51.2978V43.0708C386.123 42.6033 385.919 42.1913 385.623 41.8796H385.601C385.283 41.5679 384.863 41.3787 384.386 41.3787H342.566C342.1 41.3787 341.68 41.579 341.373 41.8685L341.351 41.8908C341.055 42.2025 340.851 42.6144 340.851 43.082V50.4518" fill="#50007F" fill-opacity="0.79"/>
<path d="M349.946 6.76733H354.136C354.397 6.76733 354.579 6.96772 354.579 7.20151V23.0321H358.054C358.292 23.0321 358.496 23.2325 358.496 23.4663C358.496 23.5554 358.474 23.6444 358.428 23.7001L352.433 33.8642C352.319 34.0757 352.047 34.1536 351.831 34.0312C351.774 33.9978 351.718 33.9421 351.684 33.8642L345.677 23.6778C345.552 23.4663 345.62 23.2102 345.847 23.0878C345.915 23.0544 345.995 23.0321 346.063 23.0321H349.515V7.20151C349.515 6.96772 349.719 6.76733 349.958 6.76733H349.946ZM353.693 7.63568H350.4V23.4663C350.4 23.7001 350.196 23.9005 349.935 23.9005H346.812L352.036 32.7843L357.27 23.9005H354.125C353.886 23.9005 353.682 23.7001 353.682 23.4663V7.62455L353.693 7.63568Z" fill="#50007F" fill-opacity="0.79"/>
<path d="M373.292 33.2074H376.585V17.399C376.585 17.143 376.789 16.9537 377.028 16.9537H380.173L374.938 8.06985L369.715 16.9537H372.86C373.099 16.9537 373.303 17.1541 373.303 17.399V33.2074H373.292ZM377.028 34.0869H372.849C372.588 34.0869 372.395 33.8865 372.395 33.6415V17.8332H368.943C368.864 17.8332 368.795 17.8109 368.727 17.7664C368.523 17.6551 368.455 17.3879 368.557 17.1875L374.564 6.98999C374.598 6.92319 374.655 6.86753 374.711 6.823C374.927 6.71167 375.211 6.76733 375.313 6.98999L381.308 17.1541C381.308 17.1541 381.377 17.2988 381.377 17.4101C381.377 17.6439 381.172 17.8443 380.934 17.8443H377.482V33.6527C377.482 33.9087 377.277 34.098 377.028 34.098V34.0869Z" fill="#50007F" fill-opacity="0.79"/>
<path d="M463.983 31.9161V18.0003C463.983 17.7443 463.802 17.5662 463.54 17.5662C463.506 17.5662 463.45 17.5662 463.416 17.5884L445.986 21.752C445.781 21.8077 445.634 21.9858 445.634 22.1639L446.519 22.5091L463.098 18.5458V28.1867C463.098 28.2646 463.018 32.2279 463.098 32.4282" fill="#50007F" fill-opacity="0.79"/>
<path d="M446.52 22.5091V22.1639C446.52 21.9858 446.395 21.8077 446.19 21.752L428.761 17.5884C428.761 17.5884 428.67 17.5662 428.613 17.5662C428.375 17.5662 428.17 17.7443 428.17 18.0003V50.8194C428.397 50.5856 428.681 51.1979 429.056 51.1088V18.5458L445.634 22.5091H446.52Z" fill="#50007F" fill-opacity="0.79"/>
<path d="M428.511 17.4547L445.975 13.8478C446.043 13.8255 446.099 13.8255 446.156 13.8478L463.62 17.4547C463.858 17.5104 464.029 17.7442 463.972 17.978C463.938 18.145 463.79 18.2674 463.62 18.3008L446.179 22.4867C446.111 22.509 446.031 22.509 445.975 22.4867L428.488 18.3008C428.272 18.2451 428.125 18.0114 428.17 17.7776C428.204 17.6106 428.34 17.4881 428.499 17.4547H428.511ZM446.065 14.7161L430.6 17.9112L446.065 21.6295L461.542 17.9112L446.065 14.7161Z" fill="#50007F" fill-opacity="0.79"/>
<path d="M474.112 35.3448C471.648 32.929 468.253 31.4373 464.494 31.4373C463.995 31.4373 463.586 31.4707 463.098 31.5263C463.098 31.6042 463.234 31.671 463.166 31.7044C463.245 31.916 463.166 32.1943 463.166 32.4169C463.609 32.3724 464.04 32.339 464.494 32.339C467.992 32.339 471.171 33.7417 473.442 36.0016C475.736 38.2393 477.155 41.3564 477.155 44.7742C477.155 47.1454 476.474 49.3497 475.304 51.2311C475.497 51.2422 475.667 51.2756 475.826 51.3313C475.861 51.3313 475.895 51.3313 475.929 51.3313C476.065 51.3313 476.178 51.3424 476.303 51.3647C477.439 49.4165 478.097 47.1788 478.097 44.7742C478.097 41.1004 476.576 37.7606 474.112 35.3448Z" fill="#50007F" fill-opacity="0.79"/>
<path d="M455.683 44.8744C455.569 44.6629 455.649 44.3846 455.865 44.2621C456.08 44.1397 456.364 44.2064 456.489 44.4291L459.998 50.3962L472.534 38.1058C472.715 37.9276 473.011 37.9276 473.192 38.1058C473.374 38.2839 473.374 38.5733 473.192 38.7403L460.214 51.4649L460.123 51.5429C459.907 51.6653 459.623 51.5985 459.498 51.3759L455.672 44.8855L455.683 44.8744Z" fill="#50007F" fill-opacity="0.79"/>
<path d="M531.965 50.6858L534.202 29.8344L546.692 25.6151C551.371 24.0343 553.676 20.7167 553.131 19.1916C552.585 17.6775 548.657 16.4529 543.978 18.0338L531.488 22.253L516.057 7.62474C515.796 7.37982 515.432 7.3019 515.08 7.41322L512.832 8.17024C512.264 8.3595 512.026 9.01632 512.332 9.50616L522.12 25.4036L516.681 27.2405C513.286 28.3871 510.413 29.6896 508.143 30.9699L503.76 26.8174C503.612 26.6727 503.396 26.6282 503.203 26.695L500.955 27.452C500.626 27.5633 500.478 27.9418 500.66 28.2313L504.055 33.7419C502.806 34.8329 502.227 35.7569 502.42 36.3024C502.613 36.8479 503.646 37.2153 505.338 37.3266L506.178 43.6945C506.224 44.0285 506.576 44.24 506.905 44.1287L509.153 43.3717C509.346 43.3049 509.494 43.1379 509.516 42.9375L510.311 37.0483H510.3C512.889 36.681 515.977 35.9796 519.373 34.8329L524.811 32.996L526.753 50.9196" stroke="#50007F" stroke-opacity="0.79" stroke-miterlimit="10"/>
<path d="M604.727 14.7719C602.433 13.948 599.288 13.5361 595.371 13.5361C591.453 13.5361 588.263 13.948 585.878 14.7719C584.379 15.284 583.232 16.8314 582.971 18.6126H607.191C607.134 16.8314 606.158 15.2951 604.727 14.7719Z" stroke="#50007F" stroke-opacity="0.79" stroke-miterlimit="10"/>
<path d="M592.792 23.1204V28.9895H586.128V23.1204H592.792Z" stroke="#50007F" stroke-opacity="0.79"/>
<path d="M606.135 51.0976L601.491 42.0802H601.707C604.739 42.0802 607.203 39.5531 607.203 36.447V18.6125H582.983V36.447C582.983 39.5531 585.447 42.0802 588.478 42.0802H588.694L584.379 50.9306M595.961 22.8096C595.961 22.1973 596.472 21.7074 597.085 21.7074H604.364C604.988 21.7074 605.488 22.1973 605.488 22.8096V29.2999C605.488 29.9122 604.977 30.402 604.364 30.402H597.085C596.461 30.402 595.961 29.9122 595.961 29.2999V22.8096ZM584.709 29.2999V22.8096C584.709 22.1973 585.208 21.7074 585.833 21.7074H593.111C593.736 21.7074 594.235 22.1973 594.235 22.8096V29.2999C594.235 29.9122 593.724 30.402 593.111 30.402H585.833C585.208 30.402 584.709 29.9122 584.709 29.2999ZM588.478 38.5734C587.275 38.5734 586.298 37.616 586.298 36.4359C586.298 35.2559 587.275 34.2984 588.478 34.2984C589.682 34.2984 590.659 35.2559 590.659 36.4359C590.659 37.616 589.682 38.5734 588.478 38.5734ZM590.079 44.1954L590.965 42.4587H599.22L600.106 44.1954H590.079ZM599.527 36.4248C599.527 35.2447 600.503 34.2873 601.707 34.2873C602.911 34.2873 603.887 35.2447 603.887 36.4248C603.887 37.6048 602.911 38.5623 601.707 38.5623C600.503 38.5623 599.527 37.6048 599.527 36.4248Z" stroke="#50007F" stroke-opacity="0.79" stroke-miterlimit="10"/>
<path d="M604.045 23.1204V28.9895H597.381V23.1204H604.045Z" stroke="#50007F" stroke-opacity="0.79"/>
<path d="M113.492 50.7191L113.526 27.6523C113.526 27.5187 113.435 27.374 113.311 27.3072C113.129 27.207 112.868 27.2738 112.766 27.4742C111.04 30.6024 108.95 33.842 107.213 36.525C106.35 37.8498 105.589 39.0298 104.976 40.0318C104.363 39.0298 103.602 37.8609 102.739 36.525C99.0602 30.8251 93.7915 22.6871 93.7915 18.3342C93.7915 17.555 93.871 16.8091 94.03 16.0743C94.2003 15.3284 94.4387 14.6159 94.7453 13.9146C94.7794 13.8701 94.7907 13.8033 94.7907 13.7476C94.7907 13.5138 94.6091 13.3357 94.382 13.3357H72.2513C72.0356 13.3357 71.8425 13.5138 71.8425 13.7476V50.6301C71.8425 50.8193 71.9674 50.964 72.1378 51.0086C72.3308 50.7303 72.3876 51.3425 72.6374 51.0976L72.6601 50.2293V14.1484H93.7801C93.5644 14.7161 93.3714 15.295 93.2351 15.9073C93.0648 16.6866 92.9853 17.4993 92.9853 18.3342C92.9853 22.8986 98.3221 31.1813 102.046 36.9592C103.08 38.5511 104 39.965 104.624 41.0337C104.738 41.2118 104.999 41.2786 105.18 41.1784C105.249 41.1339 105.317 41.0782 105.351 41.0115C105.975 39.9538 106.872 38.54 107.906 36.9592C109.393 34.6324 111.164 31.9272 112.72 29.1997V50.2293C113.481 50.2293 112.629 50.1847 113.435 50.7303" fill="#50007F" fill-opacity="0.79"/>
<path d="M72.1377 27.9307L93.9731 22.1863L94.1889 22.9544L72.3421 28.6989L72.1377 27.9307Z" fill="#50007F" fill-opacity="0.79"/>
<path d="M113.424 50.7305L91.2366 34.1428L91.7475 33.5305L113.935 50.1738L113.424 50.7305Z" fill="#50007F" fill-opacity="0.79"/>
<path d="M97.0049 28.1868C97.1525 28.0421 97.425 28.0421 97.584 28.1979C97.7316 28.3649 97.7203 28.6098 97.5613 28.7657L72.5806 51.3538L72.0242 50.7749L97.0049 28.1868Z" fill="#50007F" fill-opacity="0.79"/>
<path d="M89.8173 20.3048L80.1089 14.0817L80.5517 13.4026L94.6999 22.4868L94.2571 23.1548L89.8173 20.3048Z" fill="#50007F" fill-opacity="0.79"/>
<path d="M104.965 6.56714C108.292 6.56714 111.289 7.89192 113.458 10.0183C115.627 12.1446 116.967 15.0836 116.967 18.3232C116.967 22.8876 111.63 31.1703 107.906 36.9481C106.872 38.5401 105.953 39.9539 105.328 41.0227C105.215 41.2008 104.953 41.2676 104.772 41.1674C104.704 41.1229 104.658 41.0672 104.624 41.0227C104 39.9539 103.08 38.5512 102.047 36.9481V36.9147C98.2994 31.1369 92.9854 22.8876 92.9854 18.3232C92.9854 15.0836 94.3252 12.1446 96.494 10.0183C98.6628 7.89192 101.683 6.56714 104.987 6.56714H104.965ZM112.879 10.586C110.847 8.60441 108.053 7.37982 104.965 7.37982C101.876 7.37982 99.0829 8.60441 97.0731 10.586C95.0406 12.5676 93.7802 15.3063 93.7802 18.3232C93.7802 22.6649 99.0375 30.8029 102.705 36.5028L102.728 36.5251C103.591 37.8499 104.352 39.0299 104.965 40.0319C105.578 39.0299 106.339 37.861 107.202 36.5251C110.881 30.8252 116.149 22.6872 116.149 18.3343C116.149 15.3063 114.9 12.5676 112.879 10.5972V10.586Z" fill="#50007F" fill-opacity="0.79"/>
<path d="M104.965 10.9424C106.963 10.9424 108.757 11.7439 110.063 13.0242C111.369 14.3044 112.186 16.0857 112.186 18.0227C112.186 19.9598 111.369 21.7411 110.063 23.0213C108.757 24.3016 106.963 25.1031 104.965 25.1031C102.966 25.1031 101.172 24.3016 99.8663 23.0213C98.5605 21.7411 97.7429 19.9821 97.7429 18.0227C97.7429 16.0634 98.5605 14.3044 99.8663 13.0242C101.172 11.7439 102.966 10.9424 104.965 10.9424ZM109.495 13.5808C108.348 12.4564 106.736 11.7551 104.965 11.7551C103.193 11.7551 101.592 12.4564 100.445 13.5808C99.2985 14.7275 98.5605 16.2861 98.5605 18.0116C98.5605 19.7372 99.2872 21.318 100.445 22.4424C101.592 23.5891 103.205 24.2904 104.965 24.2904C106.725 24.2904 108.337 23.5891 109.495 22.4424C110.642 21.318 111.38 19.7483 111.38 18.0116C111.38 16.2749 110.653 14.7164 109.495 13.5808Z" fill="#50007F" fill-opacity="0.79"/>
<path d="M104.965 13.5806C104.749 13.5806 104.556 13.4136 104.556 13.1798C104.556 12.9683 104.738 12.7791 104.965 12.7791C106.441 12.7791 107.781 13.358 108.746 14.3042C109.711 15.2728 110.301 16.5642 110.301 18.0114C110.301 18.2452 110.12 18.4122 109.893 18.4122C109.666 18.4122 109.484 18.2452 109.484 18.0114C109.484 16.7979 108.973 15.6847 108.167 14.8831C107.349 14.0704 106.214 13.5695 104.965 13.5695V13.5806Z" fill="#50007F" fill-opacity="0.79"/>
<path d="M194.782 51.1534V30.3465C194.782 30.2352 194.748 30.1461 194.668 30.0793C194.521 29.9234 194.271 29.9234 194.135 30.0793L183.745 40.2657L180.384 36.9704L194.668 22.9544C194.736 22.8876 194.782 22.7985 194.782 22.6872V16.0744C194.782 15.3731 194.498 14.7496 194.032 14.3043C193.578 13.859 192.92 13.5696 192.227 13.5696H165.055C164.339 13.5696 163.704 13.8479 163.249 14.3043C162.795 14.7496 162.5 15.3953 162.5 16.0744V49.272V50.7638H163.261V16.0744C163.261 15.5957 163.465 15.1615 163.783 14.8276C164.112 14.5159 164.555 14.3155 165.055 14.3155H192.227C192.715 14.3155 193.158 14.5159 193.499 14.8276C193.817 15.1504 194.021 15.5846 194.021 16.0744V22.5314L179.566 36.7032C179.419 36.8479 179.419 37.0706 179.566 37.2265L183.484 41.045C183.631 41.1897 183.859 41.1897 184.017 41.045L194.021 31.2371V51.1423H194.782V51.1534Z" fill="#50007F" fill-opacity="0.79"/>
<path d="M168.075 21.4737C167.848 21.4737 167.7 21.3067 167.7 21.0841C167.7 20.8837 167.859 20.7056 168.075 20.7056H189.195C189.422 20.7056 189.57 20.8726 189.57 21.0841C189.57 21.3067 189.411 21.4737 189.195 21.4737H168.075Z" fill="#50007F" fill-opacity="0.79"/>
<path d="M168.075 29.1886C167.848 29.1886 167.7 29.0216 167.7 28.8212C167.7 28.6208 167.859 28.4539 168.075 28.4539H186.788C186.992 28.4539 187.163 28.6208 187.163 28.8212C187.163 29.0216 186.992 29.1886 186.788 29.1886H168.075Z" fill="#50007F" fill-opacity="0.79"/>
<path d="M168.075 36.926C167.848 36.926 167.7 36.759 167.7 36.5363C167.7 36.3359 167.859 36.1689 168.075 36.1689H180.282C180.486 36.1689 180.656 36.3359 180.656 36.5363C180.656 36.759 180.486 36.926 180.282 36.926H168.075Z" fill="#50007F" fill-opacity="0.79"/>
<path d="M168.075 44.6408C167.848 44.6408 167.7 44.4738 167.7 44.2734C167.7 44.073 167.859 43.906 168.075 43.906H175.024C175.229 43.906 175.399 44.073 175.399 44.2734C175.399 44.4738 175.229 44.6408 175.024 44.6408H168.075Z" fill="#50007F" fill-opacity="0.79"/>
<path d="M200.255 24.0788L196.894 20.7835L180.373 36.9815L183.734 40.2768L200.255 24.0788ZM197.167 19.982L201.061 23.8116C201.209 23.9563 201.209 24.1901 201.061 24.3348L184.006 41.0561C184.006 41.0561 183.893 41.134 183.836 41.1451L180.974 42.058L178.113 42.9375C177.909 43.0043 177.704 42.893 177.636 42.7037C177.602 42.6258 177.625 42.5479 177.636 42.4699C178.238 40.5885 178.851 38.7294 179.476 36.8702C179.487 36.8034 179.521 36.7477 179.566 36.7032L196.633 19.9708C196.78 19.8261 197.008 19.8261 197.167 19.9708V19.982ZM179.26 39.9205L178.579 42.0358L180.747 41.3678L183.007 40.633C181.996 39.6534 180.997 38.6737 179.998 37.6829L179.249 39.9205H179.26Z" fill="#50007F" fill-opacity="0.79"/>
<mask id="path-46-inside-1_1_92176" fill="white">
<path d="M260.004 26.528C260.061 26.2386 260.129 25.9491 260.231 25.6597H252.692C252.692 25.6597 252.601 25.6819 252.567 25.6819C252.328 25.7487 252.204 26.0048 252.272 26.2274L259.777 50.5077C260.004 50.3185 260.368 50.5077 260.64 50.3519L253.282 26.5391H260.016L260.004 26.528Z"/>
</mask>
<path d="M260.004 26.528C260.061 26.2386 260.129 25.9491 260.231 25.6597H252.692C252.692 25.6597 252.601 25.6819 252.567 25.6819C252.328 25.7487 252.204 26.0048 252.272 26.2274L259.777 50.5077C260.004 50.3185 260.368 50.5077 260.64 50.3519L253.282 26.5391H260.016L260.004 26.528Z" fill="#E168F8" fill-opacity="0.7"/>
<path d="M260.004 26.528L259.023 26.3355L258.919 26.8644L259.304 27.2419L260.004 26.528ZM260.231 25.6597L261.174 25.9926L261.645 24.6597H260.231V25.6597ZM252.692 25.6597V24.6597H252.571L252.454 24.6884L252.692 25.6597ZM252.567 25.6819V24.6819H252.429L252.297 24.719L252.567 25.6819ZM252.272 26.2274L251.315 26.52L251.316 26.5228L252.272 26.2274ZM259.777 50.5077L258.822 50.8031L259.265 52.2364L260.417 51.2759L259.777 50.5077ZM260.64 50.3519L261.137 51.2199L261.832 50.8222L261.596 50.0567L260.64 50.3519ZM253.282 26.5391V25.5391H251.927L252.327 26.8344L253.282 26.5391ZM260.016 26.5391V27.5391H262.463L260.716 25.8253L260.016 26.5391ZM260.986 26.7205C261.038 26.454 261.095 26.2174 261.174 25.9926L259.288 25.3267C259.163 25.6808 259.084 26.0231 259.023 26.3355L260.986 26.7205ZM260.231 24.6597H252.692V26.6597H260.231V24.6597ZM252.692 25.6597C252.454 24.6884 252.454 24.6884 252.454 24.6884C252.454 24.6884 252.454 24.6884 252.454 24.6884C252.454 24.6884 252.454 24.6883 252.454 24.6883C252.454 24.6883 252.454 24.6883 252.454 24.6883C252.455 24.6882 252.455 24.6882 252.455 24.6881C252.455 24.6881 252.455 24.688 252.456 24.688C252.456 24.6879 252.456 24.6879 252.456 24.6879C252.455 24.688 252.454 24.6883 252.452 24.6887C252.448 24.6896 252.444 24.6906 252.44 24.6914C252.435 24.6925 252.437 24.6919 252.446 24.6905C252.45 24.6898 252.461 24.6882 252.477 24.6865C252.489 24.6852 252.522 24.6819 252.567 24.6819V26.6819C252.705 26.6819 252.84 26.651 252.844 26.6502C252.867 26.6454 252.888 26.6408 252.902 26.6376C252.909 26.6359 252.915 26.6344 252.92 26.6333C252.922 26.6327 252.924 26.6322 252.926 26.6318C252.927 26.6316 252.928 26.6315 252.928 26.6313C252.929 26.6312 252.929 26.6312 252.929 26.6311C252.929 26.6311 252.929 26.631 252.929 26.631C252.93 26.631 252.93 26.631 252.93 26.631C252.93 26.631 252.93 26.6309 252.93 26.6309C252.93 26.6309 252.93 26.6309 252.692 25.6597ZM252.297 24.719C251.486 24.9463 251.093 25.7927 251.315 26.52L253.228 25.9348C253.314 26.2168 253.171 26.5512 252.837 26.6449L252.297 24.719ZM251.316 26.5228L258.822 50.8031L260.733 50.2124L253.227 25.9321L251.316 26.5228ZM260.417 51.2759C260.3 51.3741 260.181 51.4042 260.128 51.4128C260.094 51.4183 260.081 51.4146 260.164 51.4169C260.217 51.4183 260.366 51.4251 260.516 51.411C260.681 51.3955 260.906 51.352 261.137 51.2199L260.144 49.4838C260.238 49.4297 260.316 49.421 260.329 49.4198C260.335 49.4192 260.331 49.4199 260.311 49.4198C260.288 49.4197 260.266 49.4189 260.219 49.4177C260.149 49.4158 259.986 49.41 259.811 49.4382C259.617 49.4693 259.368 49.5468 259.137 49.7395L260.417 51.2759ZM261.596 50.0567L254.238 26.2439L252.327 26.8344L259.685 50.6471L261.596 50.0567ZM253.282 27.5391H260.016V25.5391H253.282V27.5391ZM260.716 25.8253L260.705 25.8142L259.304 27.2419L259.315 27.253L260.716 25.8253Z" fill="#50007F" fill-opacity="0.79" mask="url(#path-46-inside-1_1_92176)"/>
<mask id="path-48-inside-2_1_92176" fill="white">
<path d="M296.987 25.6597H277.15C277.184 25.9491 277.196 26.2386 277.184 26.528H296.385L289.005 50.1515L289.118 50.864C289.379 51.12 289.289 50.7081 289.482 51.0087C289.641 50.9864 289.799 50.8974 289.845 50.7193L297.396 26.2608C297.396 26.2608 297.43 26.1495 297.43 26.0938C297.43 25.8601 297.226 25.6597 296.987 25.6597Z"/>
</mask>
<path d="M296.987 25.6597H277.15C277.184 25.9491 277.196 26.2386 277.184 26.528H296.385L289.005 50.1515L289.118 50.864C289.379 51.12 289.289 50.7081 289.482 51.0087C289.641 50.9864 289.799 50.8974 289.845 50.7193L297.396 26.2608C297.396 26.2608 297.43 26.1495 297.43 26.0938C297.43 25.8601 297.226 25.6597 296.987 25.6597Z" fill="#E168F8" fill-opacity="0.7"/>
<path d="M277.15 25.6597V24.6597H276.026L276.157 25.7765L277.15 25.6597ZM277.184 26.528L276.185 26.4888L276.144 27.528H277.184V26.528ZM296.385 26.528L297.34 26.8262L297.745 25.528H296.385V26.528ZM289.005 50.1515L288.05 49.8533L287.98 50.0772L288.017 50.3089L289.005 50.1515ZM289.118 50.864L288.131 51.0214L288.183 51.3471L288.418 51.578L289.118 50.864ZM289.482 51.0087L288.64 51.5491L288.986 52.0879L289.62 51.999L289.482 51.0087ZM289.845 50.7193L288.889 50.4243L288.882 50.4481L288.876 50.4722L289.845 50.7193ZM297.396 26.2608L298.351 26.5558L298.352 26.5534L297.396 26.2608ZM296.987 24.6597H277.15V26.6597H296.987V24.6597ZM276.157 25.7765C276.185 26.0145 276.194 26.2518 276.185 26.4888L278.183 26.5672C278.197 26.2253 278.183 25.8837 278.143 25.5428L276.157 25.7765ZM277.184 27.528H296.385V25.528H277.184V27.528ZM295.431 26.2298L288.05 49.8533L289.959 50.4497L297.34 26.8262L295.431 26.2298ZM288.017 50.3089L288.131 51.0214L290.106 50.7066L289.992 49.9941L288.017 50.3089ZM288.418 51.578C288.484 51.6423 288.572 51.7199 288.684 51.7873C288.795 51.8548 288.969 51.9352 289.191 51.9501C289.305 51.9577 289.418 51.9473 289.529 51.9188C289.638 51.8907 289.73 51.8485 289.803 51.8056C289.874 51.7637 289.928 51.721 289.963 51.6913C289.996 51.6632 290.021 51.6377 290.025 51.6337C290.038 51.6218 290.02 51.6395 290 51.6572C289.978 51.6767 289.924 51.7223 289.846 51.767C289.763 51.8144 289.643 51.8661 289.491 51.8855C289.335 51.9054 289.188 51.8857 289.061 51.8429C288.941 51.8025 288.853 51.7463 288.798 51.7049C288.742 51.6633 288.705 51.6249 288.684 51.6023C288.663 51.5789 288.649 51.5611 288.644 51.554C288.638 51.5465 288.637 51.544 288.64 51.5491L290.323 50.4683C290.285 50.4089 290.23 50.3291 290.158 50.251C290.121 50.2105 290.069 50.1583 290 50.1065C289.931 50.0548 289.831 49.9919 289.699 49.9477C289.561 49.901 289.404 49.8804 289.238 49.9016C289.076 49.9222 288.947 49.9774 288.855 50.0296C288.768 50.0793 288.706 50.1314 288.676 50.1583C288.659 50.1728 288.646 50.1853 288.639 50.1926C288.635 50.1964 288.631 50.1997 288.629 50.2017C288.628 50.2027 288.627 50.2037 288.627 50.2043C288.626 50.205 288.626 50.2052 288.625 50.2056C288.61 50.2209 288.681 50.1448 288.791 50.0805C288.928 50.0002 289.113 49.9404 289.325 49.9546C289.516 49.9674 289.652 50.0356 289.718 50.0755C289.784 50.1152 289.818 50.1497 289.818 50.1499L288.418 51.578ZM289.62 51.999C290.005 51.9451 290.631 51.6855 290.814 50.9663L288.876 50.4722C288.917 50.3119 289.015 50.188 289.119 50.1127C289.211 50.0459 289.294 50.0252 289.343 50.0184L289.62 51.999ZM290.8 51.0142L298.351 26.5558L296.44 25.9658L288.889 50.4243L290.8 51.0142ZM297.396 26.2608C298.352 26.5534 298.352 26.5534 298.352 26.5533C298.352 26.5533 298.352 26.5532 298.352 26.5531C298.352 26.5531 298.352 26.553 298.352 26.5529C298.352 26.5527 298.352 26.5525 298.352 26.5523C298.353 26.5519 298.353 26.5514 298.353 26.551C298.353 26.55 298.353 26.5489 298.354 26.5478C298.355 26.5454 298.355 26.5425 298.356 26.5393C298.358 26.5327 298.361 26.5243 298.364 26.5144C298.369 26.495 298.376 26.4676 298.384 26.436C298.391 26.4078 298.43 26.2573 298.43 26.0938H296.43C296.43 26.0221 296.439 25.9733 296.44 25.9712C296.441 25.9601 296.443 25.9561 296.442 25.9604C296.441 25.9636 296.44 25.9675 296.439 25.9708C296.438 25.9721 296.438 25.9729 296.438 25.9726C296.438 25.9725 296.438 25.9721 296.439 25.9714C296.439 25.971 296.439 25.9706 296.439 25.9701C296.439 25.9698 296.439 25.9695 296.439 25.9692C296.439 25.9691 296.439 25.9689 296.439 25.9687C296.44 25.9687 296.44 25.9686 296.44 25.9685C296.44 25.9685 296.44 25.9684 296.44 25.9684C296.44 25.9683 296.44 25.9682 297.396 26.2608ZM298.43 26.0938C298.43 25.2893 297.759 24.6597 296.987 24.6597V26.6597C296.824 26.6597 296.688 26.5919 296.598 26.5031C296.507 26.4144 296.43 26.273 296.43 26.0938H298.43Z" fill="#50007F" fill-opacity="0.79" mask="url(#path-48-inside-2_1_92176)"/>
<mask id="path-50-inside-3_1_92176" fill="white">
<path d="M273.585 3.18291C273.346 3.12725 273.221 2.8712 273.289 2.63741C273.358 2.42589 273.607 2.2923 273.846 2.37023C275.742 2.94913 275.856 2.8712 276.015 2.771L276.106 2.71534C276.106 2.71534 276.174 2.59288 276.253 2.45929C276.401 2.16984 276.582 1.86926 276.878 1.7802C277.241 1.65774 277.582 1.83586 277.82 2.55948C277.945 2.96026 278.263 3.37217 278.626 3.67275C278.831 3.85087 279.046 3.98446 279.251 4.02899C279.398 4.06239 279.546 4.06239 279.637 3.99559C279.716 3.9622 279.762 3.88427 279.819 3.78407C280.125 3.14951 280.261 2.73761 280.318 2.53722V2.51495C280.398 2.2589 280.443 2.13644 280.67 2.05851H280.693C281.113 1.93606 281.17 2.13644 281.295 2.51495C281.351 2.71534 281.261 2.91573 281.09 3.00479C281.022 3.27197 280.875 3.65048 280.625 4.14032C280.477 4.4075 280.307 4.60789 280.091 4.73035C279.762 4.93074 279.387 4.96414 279.012 4.85281C278.683 4.76375 278.354 4.56336 278.059 4.32957C277.593 3.95106 277.218 3.42783 277.014 2.9046C276.889 3.11612 276.775 3.3165 276.594 3.4501L276.48 3.50576C276.117 3.73954 275.856 3.88427 273.596 3.18291H273.585ZM277.127 2.60401C277.127 2.60401 277.105 2.60401 277.105 2.62628C277.162 2.60401 277.196 2.59288 277.127 2.60401Z"/>
</mask>
<path d="M273.585 3.18291C273.346 3.12725 273.221 2.8712 273.289 2.63741C273.358 2.42589 273.607 2.2923 273.846 2.37023C275.742 2.94913 275.856 2.8712 276.015 2.771L276.106 2.71534C276.106 2.71534 276.174 2.59288 276.253 2.45929C276.401 2.16984 276.582 1.86926 276.878 1.7802C277.241 1.65774 277.582 1.83586 277.82 2.55948C277.945 2.96026 278.263 3.37217 278.626 3.67275C278.831 3.85087 279.046 3.98446 279.251 4.02899C279.398 4.06239 279.546 4.06239 279.637 3.99559C279.716 3.9622 279.762 3.88427 279.819 3.78407C280.125 3.14951 280.261 2.73761 280.318 2.53722V2.51495C280.398 2.2589 280.443 2.13644 280.67 2.05851H280.693C281.113 1.93606 281.17 2.13644 281.295 2.51495C281.351 2.71534 281.261 2.91573 281.09 3.00479C281.022 3.27197 280.875 3.65048 280.625 4.14032C280.477 4.4075 280.307 4.60789 280.091 4.73035C279.762 4.93074 279.387 4.96414 279.012 4.85281C278.683 4.76375 278.354 4.56336 278.059 4.32957C277.593 3.95106 277.218 3.42783 277.014 2.9046C276.889 3.11612 276.775 3.3165 276.594 3.4501L276.48 3.50576C276.117 3.73954 275.856 3.88427 273.596 3.18291H273.585ZM277.127 2.60401C277.127 2.60401 277.105 2.60401 277.105 2.62628C277.162 2.60401 277.196 2.59288 277.127 2.60401Z" fill="#E168F8" fill-opacity="0.7"/>
<path d="M273.585 3.18291L273.357 4.15673L273.47 4.18291H273.585V3.18291ZM273.289 2.63741L272.338 2.33083L272.333 2.34417L272.329 2.35763L273.289 2.63741ZM273.846 2.37023L273.535 3.32076L273.545 3.3238L273.554 3.32665L273.846 2.37023ZM276.015 2.771L275.492 1.91828L275.481 1.92502L276.015 2.771ZM276.106 2.71534L276.628 3.568L276.852 3.43085L276.979 3.20145L276.106 2.71534ZM276.253 2.45929L277.113 2.97061L277.129 2.94262L277.144 2.9136L276.253 2.45929ZM276.878 1.7802L277.166 2.73758L277.182 2.73295L277.197 2.72783L276.878 1.7802ZM277.82 2.55948L278.775 2.26194L278.772 2.25421L278.77 2.24651L277.82 2.55948ZM278.626 3.67275L279.283 2.91886L279.274 2.91042L279.264 2.90222L278.626 3.67275ZM279.251 4.02899L279.471 3.05361L279.464 3.05191L279.251 4.02899ZM279.637 3.99559L279.25 3.07367L279.14 3.11965L279.044 3.18995L279.637 3.99559ZM279.819 3.78407L280.689 4.27707L280.705 4.24859L280.719 4.2191L279.819 3.78407ZM280.318 2.53722L281.28 2.80981L281.318 2.67615V2.53722H280.318ZM280.318 2.51495L279.363 2.21849L279.318 2.36331V2.51495H280.318ZM280.67 2.05851V1.05851H280.503L280.346 1.11265L280.67 2.05851ZM280.693 2.05851V3.05851H280.836L280.973 3.01856L280.693 2.05851ZM281.295 2.51495L282.257 2.24236L282.251 2.22184L282.244 2.20159L281.295 2.51495ZM281.09 3.00479L280.627 2.11863L280.232 2.32537L280.121 2.75771L281.09 3.00479ZM280.625 4.14032L281.5 4.6239L281.508 4.6094L281.516 4.59463L280.625 4.14032ZM280.091 4.73035L279.597 3.86068L279.584 3.86819L279.571 3.87609L280.091 4.73035ZM279.012 4.85281L279.297 3.89422L279.285 3.89071L279.273 3.88749L279.012 4.85281ZM278.059 4.32957L277.428 5.10555L277.438 5.11354L278.059 4.32957ZM277.014 2.9046L277.945 2.54075L277.198 0.626688L276.153 2.39612L277.014 2.9046ZM276.594 3.4501L277.034 4.34802L277.114 4.30868L277.186 4.25574L276.594 3.4501ZM276.48 3.50576L276.04 2.60783L275.988 2.63338L275.939 2.66479L276.48 3.50576ZM273.596 3.18291L273.893 2.22786L273.748 2.18291H273.596V3.18291ZM277.127 2.60401L277.127 3.60401L277.209 3.60401L277.289 3.59093L277.127 2.60401ZM277.105 2.62628H276.105V4.0926L277.47 3.55725L277.105 2.62628ZM273.812 2.20909C274.217 2.30371 274.316 2.68805 274.25 2.91719L272.329 2.35763C272.126 3.05434 272.475 3.95079 273.357 4.15673L273.812 2.20909ZM274.241 2.94399C274.134 3.27823 273.805 3.40881 273.535 3.32076L274.157 1.4197C273.41 1.17579 272.582 1.57355 272.338 2.33083L274.241 2.94399ZM273.554 3.32665C274.496 3.6144 275.069 3.76268 275.442 3.81542C275.632 3.84232 275.847 3.85683 276.069 3.81317C276.327 3.7622 276.499 3.64781 276.548 3.61699L275.481 1.92502C275.451 1.94429 275.549 1.87722 275.682 1.85095C275.778 1.83199 275.817 1.84859 275.722 1.83513C275.524 1.80716 275.092 1.70496 274.138 1.4138L273.554 3.32665ZM276.537 3.62366L276.628 3.568L275.583 1.86268L275.492 1.91835L276.537 3.62366ZM276.106 2.71534C276.979 3.20145 276.979 3.20146 276.979 3.20147C276.979 3.20148 276.979 3.20149 276.979 3.20149C276.979 3.20151 276.979 3.20152 276.979 3.20153C276.979 3.20156 276.979 3.20157 276.979 3.20158C276.979 3.20159 276.979 3.20158 276.979 3.20154C276.979 3.20145 276.98 3.20125 276.98 3.20094C276.98 3.20032 276.981 3.19926 276.981 3.19779C276.983 3.19483 276.986 3.19023 276.989 3.18419C276.996 3.17208 277.006 3.15431 277.018 3.13256C277.043 3.0887 277.077 3.0304 277.113 2.97061L275.394 1.94797C275.35 2.02177 275.31 2.09149 275.281 2.14226C275.266 2.16783 275.254 2.18902 275.246 2.20405C275.241 2.21158 275.238 2.21758 275.236 2.22185C275.235 2.22398 275.234 2.22568 275.233 2.22692C275.233 2.22754 275.232 2.22805 275.232 2.22843C275.232 2.22863 275.232 2.22879 275.232 2.22893C275.232 2.22899 275.232 2.22905 275.232 2.2291C275.232 2.22913 275.232 2.22915 275.232 2.22918C275.232 2.22919 275.232 2.2292 275.232 2.22921C275.232 2.22922 275.232 2.22924 276.106 2.71534ZM277.144 2.9136C277.176 2.85147 277.203 2.80181 277.228 2.76023C277.253 2.71856 277.271 2.69363 277.282 2.68003C277.307 2.65024 277.271 2.70601 277.166 2.73758L276.589 0.822814C276.189 0.943447 275.915 1.19404 275.738 1.40917C275.565 1.61944 275.442 1.84774 275.362 2.00498L277.144 2.9136ZM277.197 2.72783C277.174 2.73573 277.11 2.75198 277.021 2.7409C276.927 2.72916 276.849 2.69226 276.798 2.65403C276.753 2.62045 276.748 2.60123 276.77 2.63626C276.791 2.67142 276.828 2.74417 276.87 2.87246L278.77 2.24651C278.624 1.80252 278.394 1.34942 277.994 1.05109C277.53 0.70511 277.001 0.683479 276.558 0.832569L277.197 2.72783ZM276.865 2.85702C277.065 3.49727 277.527 4.06128 277.989 4.44327L279.264 2.90222C278.999 2.68306 278.825 2.42325 278.775 2.26194L276.865 2.85702ZM277.969 4.42663C278.228 4.65242 278.596 4.90972 279.038 5.00607L279.464 3.05191C279.49 3.05754 279.483 3.06076 279.442 3.03705C279.403 3.01435 279.349 2.97638 279.283 2.91886L277.969 4.42663ZM279.03 5.00434C279.167 5.03532 279.34 5.05967 279.528 5.04791C279.71 5.03653 279.978 4.98635 280.229 4.80124L279.044 3.18995C279.205 3.07164 279.354 3.05485 279.403 3.05182C279.457 3.04841 279.482 3.05607 279.471 3.05365L279.03 5.00434ZM280.024 4.91752C280.478 4.72683 280.679 4.29394 280.689 4.27707L278.949 3.29108C278.934 3.31745 278.928 3.32625 278.926 3.33074C278.923 3.33442 278.932 3.32005 278.949 3.29765C278.988 3.24894 279.084 3.14342 279.25 3.07367L280.024 4.91752ZM280.719 4.2191C281.049 3.53595 281.207 3.06981 281.28 2.80981L279.356 2.26463C279.316 2.4054 279.201 2.76307 278.918 3.34905L280.719 4.2191ZM281.318 2.53722V2.51495H279.318V2.53722H281.318ZM281.273 2.81142C281.294 2.745 281.302 2.72113 281.306 2.70973C281.31 2.70151 281.297 2.73627 281.263 2.78591C281.224 2.84253 281.171 2.89837 281.107 2.94351C281.049 2.98502 281.003 3.00145 280.995 3.00438L280.346 1.11265C280.078 1.20454 279.812 1.36629 279.614 1.65397C279.463 1.87428 279.392 2.12401 279.363 2.21849L281.273 2.81142ZM280.67 3.05851H280.693V1.05851H280.67V3.05851ZM280.973 3.01856C281.015 3.00617 280.953 3.03203 280.835 3.01865C280.769 3.01121 280.689 2.99203 280.605 2.95195C280.52 2.91162 280.451 2.85962 280.398 2.80692C280.304 2.71236 280.275 2.62913 280.285 2.65407C280.295 2.67861 280.308 2.71583 280.345 2.82832L282.244 2.20159C282.219 2.12482 282.178 1.99505 282.129 1.87939C282.081 1.76413 281.988 1.56748 281.811 1.39082C281.337 0.918411 280.745 1.00179 280.413 1.09847L280.973 3.01856ZM280.333 2.78755C280.261 2.53612 280.374 2.25083 280.627 2.11863L281.554 3.89095C282.147 3.58063 282.442 2.89456 282.257 2.24236L280.333 2.78755ZM280.121 2.75771C280.079 2.92513 279.966 3.23013 279.734 3.68601L281.516 4.59463C281.783 4.07084 281.966 3.61882 282.059 3.25187L280.121 2.75771ZM279.749 3.65674C279.702 3.74204 279.664 3.79394 279.637 3.8245C279.611 3.85324 279.598 3.86046 279.597 3.86068L280.585 5.60002C281.018 5.35425 281.301 4.98368 281.5 4.6239L279.749 3.65674ZM279.571 3.87609C279.51 3.91321 279.433 3.93448 279.297 3.89422L278.728 5.8114C279.341 5.99379 280.013 5.94826 280.611 5.58461L279.571 3.87609ZM279.273 3.88749C279.129 3.84851 278.923 3.73893 278.679 3.54561L277.438 5.11354C277.784 5.38779 278.237 5.67898 278.751 5.81813L279.273 3.88749ZM278.689 3.55367C278.359 3.28478 278.087 2.90379 277.945 2.54075L276.082 3.26845C276.349 3.95187 276.827 4.61735 277.428 5.10548L278.689 3.55367ZM276.153 2.39612C276.118 2.45434 276.094 2.49608 276.069 2.53743C276.045 2.57683 276.026 2.60423 276.012 2.62469C275.983 2.66569 275.979 2.6606 276.001 2.64445L277.186 4.25574C277.566 3.9761 277.782 3.57017 277.875 3.41307L276.153 2.39612ZM276.154 2.55217L276.04 2.60783L276.92 4.40368L277.034 4.34802L276.154 2.55217ZM275.939 2.66479C275.849 2.7227 275.862 2.70878 275.889 2.70015C275.923 2.68942 275.913 2.70269 275.806 2.69661C275.548 2.68203 275.024 2.57892 273.893 2.22786L273.3 4.13796C274.428 4.48826 275.164 4.66347 275.693 4.69341C275.979 4.7096 276.244 4.68669 276.499 4.60499C276.748 4.52539 276.93 4.40571 277.021 4.34673L275.939 2.66479ZM273.596 2.18291H273.585V4.18291H273.596V2.18291ZM277.127 2.60401C277.127 1.60401 277.127 1.60401 277.126 1.60401C277.126 1.60401 277.126 1.60402 277.126 1.60402C277.125 1.60402 277.124 1.60402 277.124 1.60402C277.122 1.60403 277.121 1.60403 277.12 1.60404C277.117 1.60407 277.114 1.6041 277.112 1.60414C277.106 1.60423 277.1 1.60436 277.095 1.60455C277.083 1.60494 277.07 1.60555 277.057 1.6065C277.03 1.60837 276.998 1.61164 276.963 1.61745C276.896 1.62827 276.792 1.65179 276.676 1.70885C276.556 1.7676 276.403 1.87241 276.281 2.05103C276.155 2.2369 276.105 2.44158 276.105 2.62628H278.105C278.105 2.79985 278.057 2.99617 277.935 3.17579C277.818 3.34815 277.67 3.44878 277.556 3.50475C277.445 3.55902 277.347 3.58115 277.285 3.59128C277.252 3.59674 277.222 3.59983 277.196 3.60162C277.183 3.60252 277.171 3.60311 277.16 3.60349C277.154 3.60367 277.149 3.6038 277.143 3.60389C277.14 3.60393 277.138 3.60396 277.135 3.60398C277.134 3.60399 277.133 3.604 277.131 3.60401C277.131 3.60401 277.13 3.60401 277.129 3.60401C277.129 3.60401 277.129 3.60401 277.128 3.60401C277.128 3.60401 277.127 3.60401 277.127 2.60401ZM277.47 3.55725C277.475 3.55538 277.479 3.55357 277.486 3.55098C277.492 3.54883 277.501 3.54529 277.51 3.54172C277.518 3.53851 277.534 3.5322 277.552 3.52441C277.56 3.521 277.611 3.49923 277.67 3.46459C277.688 3.45421 277.783 3.39932 277.88 3.30029C277.925 3.25392 278.04 3.12975 278.109 2.93032C278.195 2.68459 278.199 2.34878 277.998 2.04677C277.835 1.80171 277.617 1.70324 277.531 1.66952C277.43 1.62974 277.345 1.61541 277.304 1.60957C277.219 1.59758 277.151 1.59947 277.129 1.60017C277.047 1.60276 276.971 1.61636 276.966 1.6171L277.289 3.59093C277.318 3.5861 277.263 3.59691 277.192 3.59917C277.173 3.59977 277.108 3.60173 277.024 3.58995C276.983 3.58422 276.899 3.57003 276.798 3.53043C276.713 3.49689 276.495 3.39863 276.332 3.15382C276.132 2.85207 276.135 2.51654 276.221 2.27112C276.291 2.07202 276.405 1.9482 276.45 1.90222C276.546 1.80396 276.64 1.75 276.656 1.74066C276.734 1.69457 276.81 1.66755 276.774 1.68196C276.758 1.68822 276.774 1.68192 276.74 1.69531L277.47 3.55725Z" fill="#50007F" fill-opacity="0.79" mask="url(#path-50-inside-3_1_92176)"/>
<path d="M278.127 1.45731C277.888 1.37939 277.763 1.1456 277.831 0.911814C277.9 0.700294 278.161 0.566702 278.388 0.622366C280.284 1.2124 280.398 1.1456 280.557 1.03427L280.648 0.97861C280.648 0.97861 280.716 0.856151 280.795 0.722559C280.965 0.433111 281.124 0.132529 281.42 0.043468L281.442 0.0212027C281.806 -0.0678585 282.124 0.110264 282.362 0.811621C282.487 1.2124 282.805 1.6243 283.168 1.92489C283.373 2.09188 283.588 2.21433 283.793 2.28113C283.94 2.31453 284.088 2.31453 284.179 2.24773C284.247 2.21433 284.304 2.13641 284.361 2.01395C284.678 1.40165 284.803 0.989743 284.86 0.789355V0.755957C284.928 0.522172 284.985 0.399713 285.212 0.321784H285.235C285.655 0.210458 285.734 0.38858 285.837 0.76709C285.893 0.967478 285.803 1.16787 285.632 1.25693C285.564 1.52411 285.417 1.90262 285.178 2.39246C285.053 2.65964 284.86 2.86003 284.644 2.98249C284.326 3.18287 283.94 3.21627 283.554 3.10495C283.225 3.01588 282.896 2.8155 282.601 2.58171C282.135 2.2032 281.76 1.67997 281.556 1.15673C281.442 1.36825 281.317 1.56864 281.136 1.70223L281.045 1.7579C280.659 1.96942 280.398 2.13641 278.138 1.43505L278.127 1.45731ZM281.669 0.878416C281.669 0.878416 281.647 0.878417 281.647 0.900682C281.703 0.878417 281.738 0.867284 281.681 0.867284L281.658 0.889549L281.669 0.878416Z" fill="#E168F8" fill-opacity="0.7"/>
<path d="M281.669 1.11133C281.669 1.15251 281.669 1.18734 281.669 1.2168L281.681 1.22266V1.10742M281.669 1.11133L281.681 1.10742M281.669 1.11133L281.681 1.10742M281.669 1.11133C281.669 1.05436 281.669 0.985234 281.669 0.901367L281.681 0.913086V1.10742" stroke="#50007F" stroke-opacity="0.79"/>
<path d="M260.231 26.528V13.3024H264.932V6.76758H270.383V13.3024H275.05V26.0939H277.491" stroke="#50007F" stroke-opacity="0.79" stroke-width="0.75" stroke-miterlimit="10"/>
<path d="M113.367 50.3184H162.5" stroke="#50007F" stroke-opacity="0.79" stroke-width="0.75" stroke-miterlimit="10"/>
<path d="M197.042 50.7527H260.629" stroke="#50007F" stroke-opacity="0.79" stroke-width="0.75" stroke-miterlimit="10"/>
<path d="M289.118 50.7527H341.782" stroke="#50007F" stroke-opacity="0.79" stroke-width="0.75" stroke-miterlimit="10"/>
<path d="M385.214 51.0088H429.044" stroke="#50007F" stroke-opacity="0.79" stroke-width="0.75" stroke-miterlimit="10"/>
<path d="M476.247 50.9084C493.336 50.8082 510.368 50.8082 527.378 50.7637" stroke="#50007F" stroke-opacity="0.79" stroke-width="0.75" stroke-miterlimit="10"/>
<path d="M531.341 50.9863C548.43 50.8861 567.778 50.8861 584.788 50.8416" stroke="#50007F" stroke-opacity="0.79" stroke-width="0.75" stroke-miterlimit="10"/>
<path d="M605.567 50.9863C622.656 50.8861 639.541 50.8861 656.551 50.8416" stroke="#50007F" stroke-opacity="0.79" stroke-width="0.75" stroke-miterlimit="10"/>
<path d="M662.273 50.9863C679.363 50.8861 679.022 50.8861 696.02 50.8416" stroke="#50007F" stroke-opacity="0.79" stroke-width="0.75" stroke-miterlimit="10"/>
<path d="M701.902 50.9863C718.991 50.8861 736.841 50.8861 753.851 50.8416" stroke="#50007F" stroke-opacity="0.79" stroke-width="0.75" stroke-miterlimit="10"/>
<path d="M8.67554 50.7305H72.3991" stroke="#50007F" stroke-opacity="0.79" stroke-width="0.75" stroke-miterlimit="10"/>
<path d="M3.6792 27.8973H22.5169C23.5502 27.8973 24.1407 26.7284 23.5048 25.9268L19.2694 20.5831C18.8834 20.0933 18.9288 19.4031 19.3716 18.9689L22.8689 15.5401C23.6524 14.7719 23.096 13.4583 21.9833 13.4583H4.92824C4.23559 13.4583 3.6792 14.0038 3.6792 14.6828V46.4109" stroke="#50007F" stroke-opacity="0.79" stroke-width="0.75" stroke-miterlimit="10"/>
<path d="M4.31514 54.404C6.49122 54.404 8.25528 52.6745 8.25528 50.541C8.25528 48.4075 6.49122 46.678 4.31514 46.678C2.13906 46.678 0.375 48.4075 0.375 50.541C0.375 52.6745 2.13906 54.404 4.31514 54.404Z" stroke="#50007F" stroke-opacity="0.79" stroke-width="0.75" stroke-miterlimit="10"/>
<path d="M27.3429 44.3069L35.4389 49.4947C36.3246 50.0625 36.37 51.3205 35.5184 51.9439L27.3315 58" stroke="#50007F" stroke-opacity="0.79" stroke-width="0.75" stroke-miterlimit="10" stroke-linecap="round"/>
</svg>
