<svg width="78" height="80" viewBox="0 0 78 80" fill="none" xmlns="http://www.w3.org/2000/svg">
<rect width="78" height="80" rx="39" fill="white"/>
<g clip-path="url(#clip0_1_92283)">
<path d="M54.6037 67.2283C54.1517 67.4835 53.7013 67.7331 53.2394 67.9682C51.1092 69.0468 48.8693 69.8856 46.5833 70.4603C46.1401 70.5696 45.6881 70.6703 45.2458 70.7624C31.472 73.5558 17.3991 66.7556 11.023 54.2274C5.01869 42.4309 7.08571 28.0992 16.1474 18.4748C16.3327 18.6152 16.5384 18.7343 16.7715 18.8106C16.9909 18.8823 17.2142 18.916 17.4341 18.916C18.3382 18.916 19.1813 18.3396 19.4767 17.4351C19.843 16.3108 19.2262 15.0978 18.1004 14.7313C16.9747 14.366 15.7615 14.9826 15.3952 16.1068C15.1728 16.7887 15.3162 17.5003 15.712 18.0388C6.46159 27.8521 4.34932 42.4727 10.474 54.5064C15.9997 65.3634 27.192 72.001 39.0516 72.0002C41.1459 72.0002 43.2624 71.7928 45.3704 71.3653C45.8208 71.2714 46.2802 71.1686 46.7322 71.0577C49.0639 70.4714 51.3465 69.6168 53.5177 68.5169C53.9877 68.2775 54.4462 68.0236 54.906 67.7647C55.0546 67.681 55.1066 67.4933 55.0234 67.3457C54.9397 67.1976 54.7527 67.1443 54.6037 67.2288V67.2283ZM15.9809 16.2971C16.1073 15.9084 16.3779 15.5927 16.7421 15.4075C16.9602 15.2966 17.1967 15.2403 17.4349 15.2403C17.5941 15.2403 17.7542 15.2655 17.91 15.3162C18.7126 15.5774 19.1527 16.4426 18.8915 17.2443C18.6298 18.0465 17.7636 18.4864 16.9623 18.2252C16.1598 17.9641 15.7196 17.0993 15.9809 16.2971ZM67.5378 25.491C61.0298 12.7123 46.6836 5.78322 32.6516 8.63762C32.2306 8.71656 31.7931 8.81341 31.2735 8.94354C28.9261 9.5332 26.6456 10.387 24.494 11.4805C24.0232 11.7199 23.5523 11.9763 23.1032 12.234C22.9559 12.3189 22.9047 12.5066 22.9897 12.6543C23.075 12.8019 23.2624 12.8522 23.4102 12.7678C23.8503 12.5147 24.3122 12.2639 24.7732 12.0292C26.8838 10.9561 29.1211 10.1186 31.4234 9.54045C31.9301 9.41373 32.3566 9.31901 32.7698 9.24178C46.5359 6.44114 60.6063 13.2371 66.9897 25.7704C72.9231 37.4299 70.9491 51.6618 62.094 61.2682C61.916 61.1381 61.7218 61.0259 61.5007 60.9538C60.3801 60.5881 59.1621 61.2042 58.7954 62.3294C58.4292 63.4536 59.046 64.6666 60.1717 65.0331C60.3912 65.1048 60.6144 65.1385 60.8343 65.1385C61.7384 65.1385 62.5816 64.5621 62.877 63.6576C63.1032 62.963 62.9521 62.2355 62.5397 61.6932C71.5745 51.8982 73.5903 37.3826 67.5382 25.4914L67.5378 25.491ZM62.2908 63.4668C62.0291 64.2681 61.1638 64.7093 60.3617 64.4478C59.5591 64.1866 59.119 63.3214 59.3803 62.5196C59.5907 61.8745 60.1918 61.4636 60.8373 61.4636C60.9935 61.4636 61.1527 61.488 61.3094 61.5392C62.112 61.8003 62.5521 62.6656 62.2908 63.4673V63.4668ZM51.3265 64.1999C41.3837 69.255 29.1732 67.6503 20.8735 60.2212C21.0016 60.0446 21.1062 59.8462 21.1771 59.6277C21.3551 59.0807 21.3098 58.4975 21.049 57.9846C20.7882 57.4722 20.3425 57.0916 19.7952 56.9132C19.2488 56.7345 18.6648 56.7806 18.1512 57.0417C17.6385 57.3024 17.2577 57.7474 17.0797 58.2939C16.7118 59.4229 17.3312 60.6406 18.4607 61.0084C18.6814 61.0801 18.9056 61.1142 19.1263 61.1142C19.6065 61.1142 20.068 60.9482 20.442 60.6607C25.6304 65.3143 32.3143 67.7408 39.0537 67.7408C43.3401 67.7408 47.6492 66.7599 51.6048 64.7486C62.7015 59.1029 68.7186 46.6575 66.2392 34.4881C66.1645 34.0874 66.074 33.6911 65.9741 33.2913C65.4614 31.2548 64.7203 29.2763 63.7705 27.411C63.6936 27.2586 63.5066 27.2006 63.3568 27.2761C63.2052 27.3534 63.1446 27.5385 63.2219 27.69C64.1504 29.5144 64.8753 31.4498 65.3764 33.4415C65.4738 33.828 65.5621 34.2124 65.6351 34.6058C68.0612 46.5103 62.1764 58.6801 51.3261 64.2003L51.3265 64.1999ZM18.652 60.4234C17.8456 60.1606 17.4025 59.2911 17.6659 58.4847C17.7926 58.0938 18.0646 57.7764 18.4313 57.5899C18.6503 57.4786 18.8876 57.4218 19.1271 57.4218C19.2876 57.4218 19.4481 57.4474 19.6052 57.4986C19.9963 57.6258 20.3143 57.8976 20.5004 58.2636C20.687 58.6297 20.7194 59.0466 20.5918 59.437C20.3288 60.2434 19.4601 60.6863 18.652 60.423V60.4234ZM59.7905 19.2416H59.7901C59.0998 19.0167 58.3775 19.1643 57.8353 19.5684C49.3265 11.7472 36.7233 10.0064 26.4104 15.2497C15.3171 20.8889 9.29702 33.3361 11.77 45.5195C11.852 45.9104 11.9408 46.3084 12.0368 46.7006C12.5461 48.723 13.2881 50.7035 14.243 52.5864C14.2972 52.6935 14.4052 52.755 14.5179 52.755C14.5649 52.755 14.6123 52.7443 14.6567 52.7217C14.8082 52.6449 14.8688 52.4601 14.792 52.3082C13.8584 50.4659 13.1322 48.5288 12.6345 46.5521C12.5401 46.1685 12.4531 45.7777 12.3728 45.3954C9.95444 33.4833 15.8417 21.3126 26.6883 15.7979C36.7677 10.6737 49.0827 12.371 57.4029 20.0074C57.2659 20.1909 57.1485 20.3927 57.0742 20.6218C56.8962 21.1688 56.9418 21.7521 57.2027 22.2649C57.4635 22.7774 57.9088 23.1579 58.4556 23.3363C58.6763 23.408 58.9 23.4421 59.1207 23.4421C60.0287 23.4421 60.8753 22.8635 61.1711 21.9556C61.3495 21.4086 61.3039 20.8254 61.043 20.3125C60.7822 19.8001 60.3369 19.4191 59.7901 19.2411L59.7905 19.2416ZM60.5858 21.7657C60.3237 22.5721 59.4524 23.0133 58.6469 22.7518C58.2558 22.6246 57.9378 22.3528 57.7521 21.9867C57.5655 21.6207 57.5331 21.2038 57.6599 20.8134C57.8716 20.1649 58.4757 19.7514 59.1241 19.7514C59.2817 19.7514 59.4417 19.7758 59.5993 19.827C59.9907 19.9541 60.3083 20.2259 60.4945 20.592C60.681 20.9585 60.7135 21.3749 60.5858 21.7657ZM27.3004 37.1633C27.239 37.2162 27.1809 37.2716 27.1049 37.3433L26.4723 37.9449C23.6731 40.6043 19.443 44.6231 19.423 50.7914C19.4183 52.2139 19.928 53.6023 20.859 54.6997C21.7794 55.7928 23.0789 56.5621 24.5171 56.8655C26.5952 57.3041 28.9559 57.5306 31.5331 57.5396C31.5843 57.5396 31.6351 57.5396 31.6864 57.5396C32.2208 57.5396 32.7451 57.5306 33.2552 57.5106C35.0772 57.4457 36.7711 57.2571 38.2891 56.9512C40.9722 56.4123 42.9858 54.2611 43.3363 51.6571C46.4321 51.6158 49.4242 50.6784 52.0027 48.9278C55.5028 46.558 57.8678 42.9638 58.6618 38.8072C59.4563 34.6532 58.5867 30.4386 56.214 26.9399C51.3073 19.7224 41.4332 17.8336 34.2003 22.7308C31.1032 24.8335 28.8599 27.9682 27.8592 31.5671C26.8543 31.7689 26.03 32.1009 26.0283 32.6526C26.0279 32.714 26.0385 32.7737 26.0577 32.8313C26.0603 32.8518 26.0582 32.8719 26.0654 32.8919C26.2277 33.3617 26.439 34.0601 26.6575 34.785C26.8932 35.5658 27.1374 36.3727 27.3423 36.9704L27.3845 37.0933C27.382 37.0959 27.3769 37.1001 27.3747 37.1023C27.3632 37.1095 27.3103 37.1543 27.3 37.1628L27.3004 37.1633ZM38.167 56.3475C36.6819 56.647 35.0217 56.8318 33.2321 56.8958C32.6806 56.9175 32.1175 56.9278 31.5348 56.9239C28.9999 56.9154 26.6819 56.6927 24.6447 56.263C23.3401 55.9882 22.1628 55.2923 21.329 54.3025C20.4928 53.316 20.0343 52.0697 20.0385 50.7931C20.0577 44.8881 24.1734 40.9781 26.903 38.3848L27.5459 37.7738C27.5984 37.7248 27.6501 37.6757 27.7487 37.5899C27.7798 37.5622 27.8123 37.5358 27.8447 37.5089C29.0541 37.9006 30.319 38.1036 31.5873 38.1036C32.7813 38.1036 33.9736 37.9253 35.1182 37.5767C35.1476 37.6019 35.1758 37.6258 35.2065 37.6535C35.2637 37.7043 35.3196 37.7576 35.3756 37.8144C35.5681 38.0025 35.7756 38.2014 35.9937 38.4104C38.7045 41.0122 42.801 44.9448 42.7805 50.9152C42.7719 53.5281 40.8317 55.8129 38.1675 56.3483L38.167 56.3475ZM34.5461 23.2403C41.4981 18.5342 50.9897 20.3492 55.7043 27.2855C57.9852 30.6481 58.8206 34.6988 58.0578 38.692C57.294 42.6869 55.0213 46.1412 51.6569 48.4187C49.1954 50.0908 46.3416 50.989 43.3875 51.0402C43.3892 50.9839 43.3961 50.9288 43.3961 50.8721C43.417 44.6837 39.2061 40.641 36.4198 37.9658C36.2029 37.7585 35.9971 37.5614 35.8089 37.3775C35.747 37.3152 35.6812 37.2524 35.6176 37.1961C35.5886 37.1697 35.5587 37.1445 35.5293 37.1185L35.5468 37.0694C35.7568 36.4678 36.0151 35.6367 36.2635 34.8371C36.4902 34.1075 36.7083 33.4043 36.8731 32.9307C36.8936 32.8714 36.8898 32.8121 36.8757 32.7554C36.8787 32.7332 36.8906 32.7131 36.8915 32.6901C36.8957 31.2996 31.6859 31.2659 31.4644 31.265C31.3478 31.2595 29.9088 31.2608 28.541 31.4523C29.5404 28.1124 31.6513 25.2064 34.5465 23.2407L34.5461 23.2403ZM31.379 31.8803H31.4618C34.3638 31.8901 36.0727 32.3931 36.2674 32.688C36.0727 32.9781 34.3907 33.4628 31.5395 33.4628H31.4567C28.4906 33.4526 26.7702 32.9273 26.6405 32.6747C26.7711 32.3872 28.4642 31.8803 31.3794 31.8803H31.379ZM27.2471 34.608C27.128 34.2154 27.0127 33.834 26.9051 33.4884C27.1446 33.5797 27.4281 33.6633 27.7687 33.7371C28.7561 33.9526 30.065 34.0738 31.4554 34.0785H31.4789C31.8016 34.0785 34.5952 34.0601 36.0368 33.5038C35.9237 33.8583 35.8016 34.25 35.6761 34.6545C35.4302 35.4464 35.1741 36.2707 34.967 36.8629L34.9184 36.999C32.6652 37.6804 30.211 37.6492 27.9741 36.9111L27.9254 36.7703C27.7239 36.1841 27.4823 35.3824 27.2479 34.6075L27.2471 34.608ZM32.421 47.2539L31.7209 47.2514L31.7337 43.3918L32.2311 43.3939C33.2949 43.3973 34.1568 44.2656 34.1534 45.3288V45.4453C34.1529 45.6155 34.2904 45.7538 34.4599 45.7538H34.4612C34.6306 45.7538 34.7685 45.6164 34.769 45.447V45.3305C34.7737 43.9281 33.636 42.7829 32.2332 42.7782L31.7359 42.7761L31.7401 41.4619C31.7406 41.2921 31.6035 41.1539 31.4336 41.1535H31.4324C31.2629 41.1535 31.125 41.2904 31.1246 41.4602L31.1203 42.7735L30.6242 42.771C29.934 42.7611 29.3043 43.0304 28.8215 43.5099C28.3391 43.9887 28.0723 44.627 28.0697 45.3096C28.065 46.7116 29.2031 47.8568 30.6059 47.8619L31.1024 47.8641L31.0896 51.7246L30.3988 51.722C29.335 51.7182 28.4731 50.8499 28.4765 49.7871C28.477 49.6172 28.3399 49.479 28.17 49.4786H28.1687C27.9993 49.4786 27.8614 49.6155 27.861 49.7854C27.8563 51.1874 28.9939 52.3326 30.3967 52.3377L31.0874 52.3402L31.0832 53.6539C31.0827 53.8242 31.2291 53.9603 31.3909 53.9624C31.5604 53.9624 31.6983 53.8255 31.6987 53.6557L31.703 52.3424L32.4018 52.3449H32.4116C33.0883 52.3449 33.7243 52.083 34.2046 51.6059C34.6874 51.1272 34.9542 50.4889 34.9568 49.8063C34.9615 48.4038 33.8238 47.2586 32.4206 47.2535L32.421 47.2539ZM30.6089 47.2467C29.545 47.2428 28.6823 46.3746 28.6861 45.3088C28.6878 44.7938 28.8898 44.3099 29.256 43.9468C29.6198 43.5855 30.1021 43.3866 30.6148 43.3866H30.6221L31.1182 43.3892L31.1053 47.2488L30.6089 47.2467ZM33.7717 51.1695C33.4063 51.5326 32.9303 51.757 32.4048 51.7297L31.706 51.7271L31.7188 47.8666L32.4189 47.8692C33.4827 47.873 34.3455 48.7413 34.3416 49.8075C34.3399 50.3225 34.1372 50.8064 33.7717 51.1695ZM31.7905 29.555C32.7826 27.7698 34.1436 26.2833 35.8349 25.1368C41.7376 21.139 49.8003 22.6801 53.8076 28.5728C57.8106 34.4736 56.2674 42.5256 50.3694 46.5226C48.6972 47.6597 46.7608 48.3948 44.7702 48.6483C44.757 48.65 44.7438 48.6508 44.731 48.6508C44.5781 48.6508 44.4454 48.5374 44.4253 48.382C44.4044 48.2135 44.5235 48.0595 44.6921 48.0382C46.5867 47.7967 48.4304 47.0969 50.0232 46.0136C55.6402 42.2069 57.1092 34.538 53.297 28.9188C49.4823 23.3073 41.8042 21.8387 36.1794 25.6467C34.5692 26.7385 33.2735 28.1542 32.328 29.854C32.2456 30.0021 32.0582 30.0567 31.9096 29.9735C31.7611 29.8907 31.7077 29.7039 31.7901 29.5554L31.7905 29.555ZM44.9243 36.6696C45.0674 36.3586 45.1143 36.03 45.0938 35.71L50.4351 34.5329C50.6012 34.4962 50.7062 34.3323 50.6695 34.1664C50.6328 34 50.4659 33.8959 50.3028 33.9321L44.9662 35.108C44.7847 34.6425 44.4334 34.2427 43.9459 34.0175H43.9455C43.5361 33.8289 43.087 33.7935 42.6558 33.895L39.9532 27.1878C39.8887 27.0299 39.7098 26.9544 39.5523 27.0176C39.3948 27.0811 39.3184 27.2603 39.382 27.4182L42.0825 34.1199C41.7384 34.3247 41.4639 34.6259 41.2932 34.9967C41.0695 35.4809 41.0477 36.0236 41.2326 36.5241C41.417 37.0255 41.7871 37.4244 42.2716 37.6475C42.5423 37.7721 42.8262 37.8314 43.1062 37.8314C43.8622 37.8314 44.5871 37.4005 44.9252 36.6696H44.9243ZM44.3655 36.4119C44.0445 37.1052 43.2206 37.4086 42.5286 37.0886C42.1926 36.9337 41.9369 36.6577 41.8093 36.3108C41.6812 35.9648 41.6962 35.5893 41.8516 35.2539C42.0061 34.9182 42.2819 34.663 42.6289 34.535C42.7852 34.4774 42.9478 34.4484 43.11 34.4484C43.3068 34.4484 43.5032 34.4911 43.6872 34.576C44.3801 34.8964 44.6836 35.7199 44.3655 36.4119Z" fill="#A745FF"/>
</g>
<defs>
<clipPath id="clip0_1_92283">
<rect width="64" height="64" fill="white" transform="translate(7 8)"/>
</clipPath>
</defs>
</svg>
