<svg width="78" height="80" viewBox="0 0 78 80" fill="none" xmlns="http://www.w3.org/2000/svg">
<rect width="78" height="80" rx="39" fill="white"/>
<g clip-path="url(#clip0_1_92291)">
<path d="M61.2832 40.2362C61.2832 35.7244 58.4616 31.8592 54.4906 30.3112V25.8417C54.4906 23.4717 52.5624 21.5436 50.1923 21.5436H26.6325C24.2624 21.5436 22.3341 23.4717 22.3341 25.8417V54.8278C22.3341 57.1978 24.2624 59.1263 26.6325 59.1263H50.1923C52.5624 59.1263 54.4906 57.1982 54.4906 54.8278V50.1609C58.462 48.6132 61.2832 44.748 61.2832 40.2358V40.2362ZM53.8192 54.8282C53.8192 56.8281 52.1919 58.4557 50.1919 58.4557H26.6325C24.6324 58.4557 23.0052 56.8285 23.0052 54.8282V25.842C23.0052 23.8421 24.6324 22.215 26.6325 22.215H50.1923C52.1923 22.215 53.8196 23.8421 53.8196 25.842V30.0753C52.8137 29.7596 51.7439 29.5889 50.6352 29.5889C46.9354 29.5889 43.6708 31.4861 41.7615 34.3583H34.0771C33.8917 34.3583 33.7416 34.5084 33.7416 34.6938C33.7416 34.8792 33.8917 35.0293 34.0771 35.0293H41.3504C41.0746 35.5188 40.836 36.032 40.6397 36.5653H32.7385C32.5531 36.5653 32.4029 36.7154 32.4029 36.9009C32.4029 37.0863 32.5531 37.2364 32.7385 37.2364H40.4182C40.1382 38.1882 39.9873 39.1948 39.9873 40.2362C39.9873 41.2777 40.1498 42.3602 40.4504 43.3435H34.0775C33.8921 43.3435 33.742 43.4936 33.742 43.679C33.742 43.8644 33.8921 44.0145 34.0775 44.0145H40.6808C40.8841 44.5483 41.1289 45.0618 41.4116 45.5509H32.7389C32.5535 45.5509 32.4033 45.701 32.4033 45.8865C32.4033 46.0719 32.5535 46.222 32.7389 46.222H41.8217C41.8259 46.222 41.8298 46.2216 41.8341 46.2212C43.7526 49.0333 46.9823 50.8835 50.636 50.8835C51.7447 50.8835 52.8145 50.7128 53.8203 50.3971V54.8278L53.8192 54.8282ZM50.6349 50.2125C45.1336 50.2125 40.6579 45.7371 40.6579 40.2362C40.6579 34.7353 45.1336 30.26 50.6349 30.26C56.1361 30.26 60.6118 34.7353 60.6118 40.2362C60.6118 45.7371 56.1361 50.2125 50.6349 50.2125ZM55.5946 33.4289C51.8409 30.6944 46.5619 31.5233 43.8271 35.2772C41.0924 39.0307 41.9214 44.3093 45.6751 47.0439C49.4289 49.7784 54.7079 48.9495 57.4426 45.1956C60.1773 41.4421 59.3484 36.1635 55.5942 33.4289H55.5946ZM56.9003 44.8004C54.3836 48.2548 49.5254 49.0178 46.0708 46.5012C42.6161 43.9847 41.8531 39.1269 44.3698 35.6724C46.8865 32.218 51.7447 31.455 55.1993 33.9716C58.654 36.4881 59.417 41.3459 56.9003 44.8008V44.8004ZM51.8955 41.3099C51.9223 41.2781 51.9487 41.2459 51.9735 41.2117C52.5112 40.4736 52.3482 39.4356 51.6101 38.898C51.5883 38.8821 51.5662 38.867 51.5441 38.8523L53.5061 33.8979C53.5744 33.7257 53.4906 33.5314 53.3176 33.4623C53.1454 33.394 52.9503 33.4786 52.882 33.6508L50.92 38.6052C50.3176 38.5009 49.6798 38.7344 49.2962 39.2611C48.7586 39.9992 48.9215 41.0372 49.6597 41.5748C50.1732 41.9487 50.8315 41.9836 51.3661 41.7218L53.3878 44.3194C53.4076 44.345 53.4305 44.3667 53.4549 44.385C53.5728 44.4707 53.7377 44.4722 53.8583 44.3784C54.0046 44.2647 54.031 44.0537 53.9173 43.9075L51.8955 41.3099ZM51.4312 40.8165C51.1112 41.2556 50.494 41.3525 50.0549 41.0325C49.6158 40.7125 49.5189 40.0954 49.8389 39.6563C50.1589 39.2173 50.7761 39.1203 51.2152 39.4403C51.6543 39.7603 51.7512 40.3774 51.4312 40.8165ZM30.861 25.3246C30.9929 25.4545 30.9945 25.6671 30.8641 25.799L28.3117 28.3861C28.2493 28.4494 28.1639 28.4854 28.0747 28.4862H28.0728C27.9843 28.4862 27.8998 28.4513 27.8365 28.3892L26.364 26.9312C26.2322 26.8009 26.2314 26.5883 26.3617 26.4568C26.4921 26.325 26.7046 26.3238 26.8361 26.4545L28.0697 27.6763L30.3858 25.3285C30.5162 25.1966 30.7284 25.1951 30.8602 25.3254L30.861 25.3246ZM33.7416 25.7082C33.7416 25.5228 33.8917 25.3727 34.0771 25.3727H48.7686C48.9541 25.3727 49.1042 25.5228 49.1042 25.7082C49.1042 25.8936 48.9541 26.0437 48.7686 26.0437H34.0771C33.8917 26.0437 33.7416 25.8936 33.7416 25.7082ZM32.4026 27.9153C32.4026 27.7298 32.5527 27.5797 32.7381 27.5797H44.6794C44.8648 27.5797 45.0149 27.7298 45.0149 27.9153C45.0149 28.1007 44.8648 28.2508 44.6794 28.2508H32.7381C32.5527 28.2508 32.4026 28.1007 32.4026 27.9153ZM30.861 34.3102C30.9929 34.4401 30.9945 34.6527 30.8641 34.7846L28.3117 37.3717C28.2493 37.435 28.1639 37.471 28.0747 37.4718H28.0728C27.9843 37.4718 27.8998 37.4369 27.8365 37.3748L26.364 35.9164C26.2322 35.7861 26.2314 35.5735 26.3617 35.442C26.4921 35.3102 26.7046 35.309 26.8361 35.4397L28.0697 36.6615L30.3858 34.3137C30.5162 34.1818 30.7284 34.1803 30.8602 34.3106L30.861 34.3102ZM30.861 43.2958C30.9929 43.4257 30.9945 43.6383 30.8641 43.7702L28.3117 46.3573C28.2493 46.4206 28.1639 46.4566 28.0747 46.4574H28.0728C27.9843 46.4574 27.8998 46.4225 27.8365 46.3604L26.364 44.902C26.2322 44.7717 26.2314 44.5591 26.3617 44.4276C26.4921 44.2958 26.7046 44.2946 26.8361 44.4253L28.0697 45.6471L30.3858 43.2993C30.5162 43.1674 30.7284 43.1659 30.8602 43.2962L30.861 43.2958ZM30.861 52.2814C30.9929 52.4114 30.9945 52.6239 30.8641 52.7558L28.3117 55.3429C28.2493 55.4062 28.1639 55.4422 28.0747 55.443H28.0728C27.9843 55.443 27.8998 55.4081 27.8365 55.346L26.364 53.8876C26.2322 53.7573 26.2314 53.5447 26.3617 53.4132C26.4921 53.2814 26.7046 53.2802 26.8361 53.4109L28.0697 54.6327L30.3858 52.2849C30.5162 52.153 30.7284 52.1515 30.8602 52.2818L30.861 52.2814ZM49.1042 52.665C49.1042 52.8504 48.9541 53.0005 48.7686 53.0005H34.0771C33.8917 53.0005 33.7416 52.8504 33.7416 52.665C33.7416 52.4796 33.8917 52.3295 34.0771 52.3295H48.7686C48.9541 52.3295 49.1042 52.4796 49.1042 52.665ZM45.0153 54.8721C45.0153 55.0575 44.8652 55.2076 44.6797 55.2076H32.7385C32.5531 55.2076 32.4029 55.0575 32.4029 54.8721C32.4029 54.6866 32.5531 54.5365 32.7385 54.5365H44.6797C44.8652 54.5365 45.0153 54.6866 45.0153 54.8721ZM66.5068 23.6141C66.5867 23.5427 66.6623 23.4651 66.7321 23.3809C67.1037 22.9357 67.2802 22.3721 67.2283 21.7945C67.1212 20.6026 66.089 19.719 64.8702 19.8257C64.2926 19.8776 63.7693 20.1515 63.3973 20.5968C63.0257 21.042 62.8492 21.6056 62.9012 22.1832C63.0024 23.3107 63.9318 24.161 65.0626 24.161C65.1274 24.161 65.1933 24.1579 65.2589 24.1521C65.4978 24.1307 65.7275 24.0706 65.9408 23.9767C72.7187 35.3901 71.5592 49.8913 63.047 60.0851C56.9581 67.3769 48.0258 71.3294 38.9259 71.3286C34.5795 71.3286 30.1934 70.4264 26.0634 68.556C25.6181 68.3512 25.2027 68.1515 24.8291 67.9637C22.7321 66.8947 20.7398 65.5791 18.9077 64.0543C18.5055 63.7188 18.111 63.3635 17.7444 63.0299C17.6071 62.9054 17.3953 62.9151 17.2704 63.052C17.1459 63.1893 17.1556 63.4015 17.2925 63.526C17.6649 63.8646 18.066 64.2254 18.4779 64.5694C20.3488 66.1267 22.3834 67.4696 24.5258 68.5618C24.9075 68.7546 25.3307 68.9575 25.7845 69.1665C30.0053 71.078 34.4837 71.9996 38.9248 71.9996C48.2182 71.9988 57.3437 67.9622 63.5618 60.5157C72.2613 50.0977 73.4417 35.2749 66.5056 23.6145L66.5068 23.6141ZM65.1995 23.4837C64.3581 23.559 63.644 22.9473 63.5703 22.1234C63.5342 21.7243 63.656 21.3349 63.9132 21.0273C64.17 20.7197 64.5315 20.5304 64.9307 20.4944C64.9765 20.4901 65.0222 20.4882 65.0672 20.4882C65.8485 20.4882 66.4901 21.0758 66.5599 21.8546C66.596 22.2538 66.4742 22.6432 66.217 22.9508C65.9602 23.2584 65.5987 23.4477 65.1995 23.4837ZM12.4709 55.571C12.2622 55.5896 12.0608 55.6381 11.8712 55.7122C5.29811 44.3636 6.52776 29.9846 14.9387 19.9125C23.9431 9.13455 39.1498 5.65411 51.9239 11.4506C52.3009 11.6143 52.6946 11.8016 53.1621 12.039C55.2742 13.1157 57.2645 14.4295 59.078 15.9438C59.4585 16.2614 59.8491 16.6055 60.2394 16.9662C60.3751 17.0923 60.5877 17.0834 60.7134 16.948C60.8391 16.8118 60.8309 16.5997 60.6952 16.4736C60.2968 16.1051 59.8972 15.7533 59.5082 15.4283C57.6559 13.8822 55.6237 12.5405 53.4666 11.4405C52.9863 11.1965 52.5814 11.0041 52.1962 10.837C39.1544 4.91947 23.6212 8.47399 14.4236 19.4824C5.83186 29.7709 4.57622 44.4594 11.2916 56.0516C11.1857 56.1381 11.0876 56.2351 10.998 56.3425C10.6264 56.7878 10.4499 57.3514 10.5018 57.9289C10.6031 59.0565 11.5325 59.9067 12.6633 59.9067C12.728 59.9067 12.794 59.9036 12.8599 59.8978C13.4375 59.8458 13.9608 59.572 14.3328 59.1267C14.7044 58.6814 14.8809 58.1178 14.8289 57.5403C14.7219 56.3483 13.6877 55.4636 12.4709 55.5714V55.571ZM13.8173 58.6962C13.5605 59.0037 13.1989 59.193 12.7998 59.2291C11.9592 59.3051 11.2447 58.6927 11.1706 57.8688C11.0965 57.0446 11.7067 56.3138 12.531 56.2397C12.5767 56.2354 12.6225 56.2335 12.6675 56.2335C13.4484 56.2335 14.0904 56.8211 14.1602 57.6C14.1963 57.9991 14.0744 58.3886 13.8173 58.6962ZM59.8604 57.8583C59.9228 57.9107 59.9993 57.9359 60.0749 57.9359C60.1711 57.9359 60.2665 57.8948 60.3329 57.8149C61.6851 56.1908 62.8515 54.4241 63.8011 52.5622C63.9823 52.2027 64.158 51.8338 64.326 51.4692C69.461 40.1334 66.371 26.6422 56.8119 18.6609C47.8753 11.1996 35.1035 10.1085 25.0304 15.9453C25.0285 15.9465 25.0269 15.9476 25.025 15.9488C24.5824 15.4411 23.9113 15.1447 23.1778 15.2111C21.9749 15.3193 21.0843 16.3859 21.1921 17.5888C21.2945 18.7256 22.2313 19.5832 23.3717 19.5832C23.4373 19.5832 23.5036 19.5801 23.57 19.5743C24.7729 19.4661 25.6639 18.3994 25.5557 17.1966C25.5339 16.9557 25.4738 16.7277 25.383 16.517C35.211 10.8311 47.6662 11.8994 56.3817 19.176C65.7104 26.965 68.7256 40.1303 63.7154 51.1907C63.5517 51.5468 63.3795 51.9079 63.2026 52.2593C62.2763 54.075 61.1374 55.7999 59.8173 57.3859C59.6986 57.5282 59.718 57.7396 59.8608 57.8583H59.8604ZM23.5102 18.906C22.6642 18.9843 21.9361 18.3633 21.8609 17.529C21.786 16.6947 22.4035 15.9546 23.2379 15.8798C23.2845 15.8755 23.3302 15.8736 23.376 15.8736C24.1666 15.8736 24.8163 16.4682 24.8873 17.2567C24.9622 18.0911 24.3446 18.8311 23.5102 18.906ZM14.7851 27.7333C15.7176 25.9053 16.8549 24.1823 18.1661 22.6122C18.2848 22.4698 18.2658 22.2584 18.1238 22.1394C17.9814 22.0203 17.77 22.0397 17.6509 22.1816C16.3076 23.7902 15.1424 25.5554 14.1873 27.4285C13.9755 27.8454 13.8083 28.1972 13.6633 28.5316C8.52237 39.8584 11.6105 53.3481 21.1719 61.3361C26.2647 65.5884 32.6341 67.7706 39.0361 67.7706C43.715 67.7706 48.4122 66.6038 52.6368 64.2261C52.6473 64.2203 52.6574 64.2137 52.6675 64.2067C53.0686 64.704 53.6822 65.0166 54.3704 65.0166C54.4359 65.0166 54.5023 65.0135 54.5686 65.0073C55.7715 64.8995 56.6625 63.8328 56.5543 62.63C56.4461 61.4276 55.3991 60.537 54.1764 60.6445C53.5934 60.6968 53.0662 60.973 52.6911 61.4222C52.3164 61.8709 52.1384 62.4392 52.1907 63.0222C52.2101 63.2355 52.2586 63.4391 52.3323 63.6292C52.3242 63.6331 52.3156 63.637 52.3075 63.6416C42.5439 69.1375 30.2043 68.0029 21.6021 60.8213C12.2711 53.0261 9.25784 39.8627 14.2765 28.8043C14.4185 28.4777 14.5803 28.1371 14.7855 27.7333H14.7851ZM53.2055 61.8531C53.4658 61.5416 53.8316 61.35 54.2358 61.3136C54.2823 61.3093 54.3285 61.3074 54.3743 61.3074C55.1648 61.3074 55.8142 61.902 55.8851 62.6905C55.96 63.5249 55.3425 64.2645 54.5081 64.3398C53.657 64.4166 52.9336 63.7971 52.8587 62.9628C52.8223 62.5586 52.9456 62.1646 53.2055 61.8531Z" fill="#A745FF"/>
</g>
<defs>
<clipPath id="clip0_1_92291">
<rect width="64" height="64" fill="white" transform="translate(7 8)"/>
</clipPath>
</defs>
</svg>
