<svg width="78" height="80" viewBox="0 0 78 80" fill="none" xmlns="http://www.w3.org/2000/svg">
<rect width="78" height="80" rx="39" fill="white"/>
<g clip-path="url(#clip0_1_92300)">
<path d="M54.6037 67.2284C54.1517 67.4835 53.7013 67.7331 53.2394 67.9682C51.1092 69.0468 48.8693 69.8856 46.5833 70.4604C46.1401 70.5696 45.6881 70.6703 45.2458 70.7624C31.472 73.5558 17.3991 66.7556 11.023 54.2274C5.01869 42.4309 7.08571 28.0992 16.1474 18.4748C16.3327 18.6152 16.5384 18.7343 16.7715 18.8106C16.9909 18.8823 17.2142 18.916 17.4341 18.916C18.3382 18.916 19.1813 18.3396 19.4767 17.4351C19.843 16.3108 19.2262 15.0978 18.1004 14.7313C16.9747 14.366 15.7615 14.9826 15.3952 16.1068C15.1728 16.7887 15.3162 17.5003 15.712 18.0388C6.46159 27.8521 4.34932 42.4727 10.474 54.5064C15.9997 65.3634 27.192 72.001 39.0516 72.0002C41.1459 72.0002 43.2624 71.7928 45.3704 71.3653C45.8208 71.2714 46.2802 71.1686 46.7322 71.0577C49.0639 70.4714 51.3465 69.6168 53.5177 68.5169C53.9877 68.2775 54.4462 68.0237 54.906 67.7647C55.0546 67.681 55.1066 67.4933 55.0234 67.3457C54.9397 67.1976 54.7527 67.1439 54.6037 67.2284ZM15.9809 16.2971C16.1073 15.9084 16.3779 15.5927 16.7421 15.4075C16.9602 15.2966 17.1967 15.2403 17.4349 15.2403C17.5941 15.2403 17.7542 15.2655 17.91 15.3162C18.7126 15.5774 19.1527 16.4426 18.8915 17.2443C18.6298 18.0465 17.7636 18.4864 16.9623 18.2252C16.1598 17.9641 15.7196 17.0993 15.9809 16.2971ZM67.5378 25.491C61.0298 12.7123 46.6836 5.78322 32.6516 8.63762C32.2306 8.71656 31.7931 8.81341 31.2735 8.94354C28.9261 9.5332 26.6456 10.387 24.494 11.4805C24.0232 11.7199 23.5523 11.9763 23.1032 12.234C22.9559 12.3189 22.9047 12.5066 22.9897 12.6543C23.075 12.8019 23.2624 12.8522 23.4102 12.7678C23.8503 12.5147 24.3122 12.2639 24.7732 12.0292C26.8838 10.9561 29.1211 10.1186 31.4234 9.54045C31.9301 9.41373 32.3566 9.31901 32.7698 9.24178C46.5359 6.44114 60.6063 13.2371 66.9897 25.7704C72.9231 37.4299 70.9491 51.6618 62.094 61.2682C61.916 61.1381 61.7218 61.0259 61.5007 60.9538C60.3801 60.5881 59.1621 61.2042 58.7954 62.3294C58.4292 63.4536 59.046 64.6666 60.1717 65.0331C60.3912 65.1048 60.6144 65.1385 60.8343 65.1385C61.7384 65.1385 62.5816 64.5621 62.877 63.6576C63.1032 62.963 62.9521 62.2355 62.5397 61.6932C71.5745 51.8982 73.5899 37.3822 67.5378 25.491ZM62.2908 63.4669C62.0291 64.2681 61.1638 64.7093 60.3617 64.4478C59.5591 64.1866 59.119 63.3214 59.3803 62.5197C59.5907 61.8745 60.1918 61.4637 60.8373 61.4637C60.9935 61.4637 61.1527 61.488 61.3094 61.5392C62.112 61.8003 62.5521 62.6651 62.2908 63.4669ZM51.3265 64.1999C41.3837 69.255 29.1732 67.6503 20.8735 60.2212C21.0016 60.0446 21.1062 59.8462 21.1771 59.6277C21.3551 59.0807 21.3098 58.4975 21.049 57.9846C20.7882 57.4722 20.3425 57.0916 19.7952 56.9133C19.2488 56.7345 18.6648 56.7806 18.1512 57.0417C17.6385 57.3024 17.2577 57.7474 17.0797 58.2939C16.7118 59.4229 17.3312 60.6406 18.4607 61.0084C18.6814 61.0801 18.9056 61.1142 19.1263 61.1142C19.6065 61.1142 20.068 60.9482 20.442 60.6607C25.6304 65.3143 32.3143 67.7408 39.0537 67.7408C43.3401 67.7408 47.6492 66.7599 51.6048 64.7486C62.7015 59.1029 68.7186 46.6575 66.2392 34.4881C66.1645 34.0874 66.074 33.6911 65.9741 33.2913C65.4614 31.2548 64.7203 29.2763 63.7705 27.411C63.6936 27.2586 63.5066 27.2006 63.3568 27.2761C63.2052 27.3534 63.1446 27.5385 63.2219 27.69C64.1504 29.5144 64.8753 31.4498 65.3764 33.4415C65.4738 33.828 65.5621 34.2125 65.6351 34.6058C68.0612 46.5103 62.1769 58.6797 51.3265 64.1999ZM18.652 60.4234C17.8456 60.1606 17.4025 59.2911 17.6659 58.4847C17.7926 58.0938 18.0646 57.7764 18.4313 57.59C18.6503 57.4786 18.8876 57.4218 19.1271 57.4218C19.2876 57.4218 19.4481 57.4474 19.6052 57.4986C19.9963 57.6258 20.3143 57.8976 20.5004 58.2637C20.687 58.6297 20.7194 59.0466 20.5918 59.437C20.3288 60.2434 19.4601 60.6867 18.652 60.4234ZM59.7905 19.2416C59.1002 19.0167 58.3775 19.1643 57.8353 19.5684C49.3265 11.7472 36.7233 10.0064 26.4104 15.2497C15.3171 20.8889 9.29702 33.3361 11.77 45.5195C11.852 45.9104 11.9408 46.3085 12.0368 46.7006C12.5461 48.723 13.2881 50.7035 14.243 52.5864C14.2972 52.6935 14.4052 52.755 14.5179 52.755C14.5649 52.755 14.6123 52.7443 14.6567 52.7217C14.8082 52.6449 14.8688 52.4601 14.792 52.3082C13.8584 50.4659 13.1322 48.5288 12.6345 46.5521C12.5401 46.1685 12.4531 45.7777 12.3728 45.3954C9.95444 33.4833 15.8417 21.3126 26.6883 15.7979C36.7677 10.6737 49.0827 12.371 57.4029 20.0074C57.2659 20.1909 57.1485 20.3927 57.0742 20.6218C56.8962 21.1688 56.9418 21.7521 57.2027 22.2649C57.4635 22.7774 57.9088 23.1579 58.4556 23.3363C58.6763 23.408 58.9 23.4421 59.1207 23.4421C60.0287 23.4421 60.8753 22.8635 61.1711 21.9556C61.3495 21.4086 61.3039 20.8254 61.043 20.3125C60.7822 19.8001 60.3374 19.4195 59.7905 19.2416ZM60.5858 21.7657C60.3237 22.5721 59.4524 23.0133 58.6469 22.7518C58.2558 22.6246 57.9378 22.3528 57.7521 21.9867C57.5655 21.6207 57.5331 21.2038 57.6599 20.8134C57.8716 20.1649 58.4757 19.7514 59.1241 19.7514C59.2817 19.7514 59.4417 19.7758 59.5993 19.827C59.9907 19.9541 60.3083 20.2259 60.4945 20.592C60.681 20.9585 60.7135 21.3749 60.5858 21.7657Z" fill="#A745FF"/>
<rect x="27.3" y="24.3" width="23.4" height="7.4" rx="1.7" stroke="#A745FF" stroke-width="0.6"/>
<path d="M29.5 28H38.75H48" stroke="#A745FF" stroke-width="0.6" stroke-linecap="round" stroke-linejoin="round"/>
<path d="M29.5 40H38.75H48" stroke="#A745FF" stroke-width="0.6" stroke-linecap="round" stroke-linejoin="round"/>
<path d="M29.5 52H38.75H48" stroke="#A745FF" stroke-width="0.6" stroke-linecap="round" stroke-linejoin="round"/>
<rect x="27.3" y="36.3" width="23.4" height="7.4" rx="1.7" stroke="#A745FF" stroke-width="0.6"/>
<rect x="27.3" y="48.3" width="23.4" height="7.4" rx="1.7" stroke="#A745FF" stroke-width="0.6"/>
<path d="M26 28.3C26.1657 28.3 26.3 28.1657 26.3 28C26.3 27.8343 26.1657 27.7 26 27.7V28.3ZM24.5246 40.2121C24.6418 40.095 24.6418 39.905 24.5246 39.7879L22.6154 37.8787C22.4983 37.7615 22.3083 37.7615 22.1912 37.8787C22.074 37.9958 22.074 38.1858 22.1912 38.3029L23.8882 40L22.1912 41.6971C22.074 41.8142 22.074 42.0042 22.1912 42.1213C22.3083 42.2385 22.4983 42.2385 22.6154 42.1213L24.5246 40.2121ZM26 28V27.7H23V28V28.3H26V28ZM23 40V40.3H24.3125V40V39.7H23V40ZM23 40V39.7C19.852 39.7 17.3 37.148 17.3 34H17H16.7C16.7 37.4794 19.5206 40.3 23 40.3V40ZM23 28V27.7C19.5206 27.7 16.7 30.5206 16.7 34H17H17.3C17.3 30.852 19.852 28.3 23 28.3V28Z" fill="#A745FF"/>
<path d="M52 40.3C51.8343 40.3 51.7 40.1657 51.7 40C51.7 39.8343 51.8343 39.7 52 39.7V40.3ZM53.4754 52.2121C53.3582 52.095 53.3582 51.905 53.4754 51.7879L55.3846 49.8787C55.5017 49.7615 55.6917 49.7615 55.8088 49.8787C55.926 49.9958 55.926 50.1858 55.8088 50.3029L54.1118 52L55.8088 53.6971C55.926 53.8142 55.926 54.0042 55.8088 54.1213C55.6917 54.2385 55.5017 54.2385 55.3846 54.1213L53.4754 52.2121ZM52 40V39.7H55V40V40.3H52V40ZM55 52V52.3H53.6875V52V51.7H55V52ZM55 52V51.7C58.148 51.7 60.7 49.148 60.7 46H61H61.3C61.3 49.4794 58.4794 52.3 55 52.3V52ZM55 40V39.7C58.4794 39.7 61.3 42.5206 61.3 46H61H60.7C60.7 42.852 58.148 40.3 55 40.3V40Z" fill="#A745FF"/>
</g>
<defs>
<clipPath id="clip0_1_92300">
<rect width="64" height="64" fill="white" transform="translate(7 8)"/>
</clipPath>
</defs>
</svg>
