<svg width="78" height="80" viewBox="0 0 78 80" fill="none" xmlns="http://www.w3.org/2000/svg">
<rect width="78" height="80" rx="39" fill="white"/>
<g clip-path="url(#clip0_1_92274)">
<path d="M39.0116 54.6656C37.8548 54.6656 36.9114 55.6089 36.9114 56.7657C36.9114 57.9225 37.8548 58.8659 39.0116 58.8659C40.1683 58.8659 41.1117 57.9225 41.1117 56.7657C41.1117 55.6089 40.1683 54.6656 39.0116 54.6656ZM39.0116 58.2512C38.192 58.2512 37.5261 57.5853 37.5261 56.7657C37.5261 55.9462 38.192 55.2803 39.0116 55.2803C39.8311 55.2803 40.497 55.9462 40.497 56.7657C40.497 57.5853 39.8311 58.2512 39.0116 58.2512ZM39.0116 52.177C36.4803 52.177 34.4229 54.2345 34.4229 56.7657C34.4229 59.297 36.4803 61.3544 39.0116 61.3544C41.5428 61.3544 43.6003 59.297 43.6003 56.7657C43.6003 54.2345 41.5428 52.177 39.0116 52.177ZM39.0116 60.7398C36.8218 60.7398 35.0375 58.9555 35.0375 56.7657C35.0375 54.576 36.8218 52.7917 39.0116 52.7917C41.2013 52.7917 42.9856 54.576 42.9856 56.7657C42.9856 58.9555 41.2013 60.7398 39.0116 60.7398ZM36.6724 36.5968H32.9417V32.5672C33.8082 32.4221 34.4698 31.6666 34.4698 30.7574C34.4698 29.7457 33.646 28.9219 32.6343 28.9219C31.6227 28.9219 30.7988 29.7457 30.7988 30.7574C30.7988 31.6666 31.4605 32.4221 32.327 32.5672V41.83C32.327 42.0008 32.4636 42.1374 32.6343 42.1374C32.8051 42.1374 32.9417 42.0008 32.9417 41.83V37.2157H36.6724C36.8431 37.2157 36.9797 37.0791 36.9797 36.9084C36.9797 36.7376 36.8431 36.5968 36.6724 36.5968ZM31.4135 30.7574C31.4135 30.0829 31.9599 29.5366 32.6343 29.5366C33.3088 29.5366 33.8551 30.0829 33.8551 30.7574C33.8551 31.4318 33.3088 31.9782 32.6343 31.9782C31.9642 31.9782 31.4135 31.4275 31.4135 30.7574ZM48.1847 44.7625V42.9996H48.9701C53.6869 42.9996 57.5286 39.1579 57.5286 34.4369C57.5286 31.0049 55.5096 27.9401 52.3722 26.587C51.8087 22.105 48.0182 18.7499 43.4808 18.7499C41.9227 18.7499 40.3818 19.1682 39.0116 19.9536C37.6499 19.1639 36.1089 18.7499 34.5424 18.7499C30.0006 18.7499 26.2144 22.105 25.6552 26.587C22.5136 27.9444 20.4945 31.0049 20.4945 34.4369C20.4945 39.1579 24.3362 42.9996 29.0573 42.9996H29.8384V44.7625C29.8384 46.2523 31.0123 47.4731 32.4849 47.5499C31.3495 48.9756 30.6708 50.7769 30.6708 52.7405V55.3528C30.6708 59.9543 34.4143 63.6979 39.0158 63.6979C43.6173 63.6979 47.3609 59.9543 47.3609 55.3528V52.7405C47.3609 50.7812 46.6822 48.9756 45.5467 47.5499C47.0109 47.4731 48.1847 46.2523 48.1847 44.7625ZM46.7377 55.3486C46.7377 59.6086 43.2716 63.0747 39.0116 63.0747C34.7515 63.0747 31.2855 59.6086 31.2855 55.3486V52.7362C31.2855 48.4762 34.7515 45.0101 39.0116 45.0101C43.2716 45.0101 46.7377 48.4762 46.7377 52.7362V55.3486ZM40.2025 44.4765C39.8141 44.421 39.4128 44.3912 39.0116 44.3912C38.606 44.3912 38.2091 44.421 37.8164 44.4765V42.0392C37.8164 41.3818 38.3499 40.844 39.0116 40.844C39.6689 40.844 40.2025 41.3776 40.2025 42.0392V44.4765ZM45.3931 46.9352H45.0004C43.882 45.7827 42.4392 44.9503 40.8172 44.5918V42.0392C40.8172 41.0403 40.0061 40.2293 39.0073 40.2293C38.0084 40.2293 37.1974 41.0403 37.1974 42.0392V44.5918C35.5754 44.9503 34.1326 45.7827 33.0142 46.9352H32.6215C31.4221 46.9352 30.4488 45.9577 30.4488 44.7625V36.9041C30.4488 36.7334 30.3122 36.5968 30.1415 36.5968C29.9707 36.5968 29.8341 36.7334 29.8341 36.9041V42.3849H29.0573C24.6735 42.3849 21.1092 38.8207 21.1092 34.4369C21.1092 31.197 23.0514 28.3115 26.0565 27.0864C26.1632 27.0437 26.2358 26.9455 26.2486 26.8346C26.6925 22.5788 30.2567 19.3646 34.5424 19.3646C36.0577 19.3646 37.5474 19.7829 38.8536 20.5768C38.9518 20.6366 39.0756 20.6366 39.1738 20.5768C40.4842 19.7829 41.9739 19.3646 43.485 19.3646C47.7707 19.3646 51.3392 22.5745 51.7874 26.8346C51.8002 26.9455 51.8727 27.0437 51.9795 27.0864C54.9803 28.3115 56.9225 31.197 56.9225 34.4369C56.9225 38.8207 53.3582 42.3849 48.9829 42.3849H48.1975V36.9041C48.1975 36.7334 48.0609 36.5968 47.8902 36.5968C47.7194 36.5968 47.5828 36.7334 47.5828 36.9041V44.7625C47.57 45.962 46.5925 46.9352 45.3931 46.9352ZM45.3845 28.9176C44.3729 28.9176 43.549 29.7414 43.549 30.7531C43.549 31.6623 44.2107 32.4178 45.0772 32.563V36.5925H39.3189V34.1338C40.1854 33.9887 40.847 33.2331 40.847 32.3239C40.847 31.3123 40.0232 30.4884 39.0116 30.4884C37.9999 30.4884 37.1761 31.3123 37.1761 32.3239C37.1761 33.2331 37.8377 33.9887 38.7042 34.1338V38.3127C38.7042 38.4835 38.8408 38.6201 39.0116 38.6201C39.1823 38.6201 39.3189 38.4835 39.3189 38.3127V37.2072H45.0772V41.8215C45.0772 41.9922 45.2138 42.1288 45.3845 42.1288C45.5553 42.1288 45.6919 41.9922 45.6919 41.8215V32.5587C46.5584 32.4136 47.22 31.658 47.22 30.7488C47.22 29.7414 46.3962 28.9176 45.3845 28.9176ZM37.7908 32.3282C37.7908 31.6538 38.3371 31.1074 39.0116 31.1074C39.686 31.1074 40.2324 31.6538 40.2324 32.3282C40.2324 33.0026 39.686 33.549 39.0116 33.549C38.3371 33.549 37.7908 33.0026 37.7908 32.3282ZM45.3845 31.9782C44.7101 31.9782 44.1637 31.4318 44.1637 30.7574C44.1637 30.0829 44.7101 29.5366 45.3845 29.5366C46.059 29.5366 46.6053 30.0829 46.6053 30.7574C46.6053 31.4275 46.059 31.9782 45.3845 31.9782ZM54.6046 67.2536C54.1522 67.5097 53.704 67.7573 53.2387 67.9921C51.1087 69.072 48.8677 69.9086 46.584 70.4849C46.1401 70.5959 45.6876 70.6941 45.2479 70.788C31.4775 73.5796 17.4041 66.7798 11.0269 54.2473C5.02525 42.4447 7.08697 28.1109 16.1406 18.481C16.3284 18.6261 16.5418 18.7371 16.7723 18.8097C16.99 18.8822 17.2163 18.9164 17.4382 18.9164C17.7712 18.9164 18.1041 18.8395 18.4072 18.6816C18.9194 18.4212 19.2993 17.9773 19.4743 17.4352C19.8414 16.3083 19.2225 15.096 18.0999 14.7289C16.973 14.3618 15.7607 14.9807 15.3936 16.1034C15.2143 16.6498 15.2613 17.2303 15.5217 17.7425C15.5729 17.8492 15.6369 17.9474 15.7052 18.0413C6.45949 27.859 4.35082 42.4874 10.4762 54.5247C15.9997 65.3882 27.1919 72.0258 39.05 72.0258C41.1458 72.0258 43.2631 71.8167 45.3675 71.3898C45.8199 71.2959 46.2767 71.1935 46.7291 71.0825C49.0598 70.4977 51.3434 69.6397 53.5161 68.5427C53.9857 68.3037 54.4467 68.0476 54.9034 67.7914C55.0528 67.7061 55.104 67.5182 55.0187 67.3731C54.9418 67.2194 54.754 67.1682 54.6046 67.2536ZM15.9869 16.2997C16.1961 15.6552 16.798 15.2454 17.4425 15.2454C17.6004 15.2454 17.7584 15.271 17.9163 15.3222C18.7188 15.5826 19.1585 16.4491 18.8981 17.2516C18.77 17.6401 18.5011 17.9559 18.1383 18.1438C17.7755 18.3273 17.3614 18.3615 16.9687 18.2334C16.5803 18.1053 16.2644 17.8364 16.0766 17.4736C15.893 17.1022 15.8589 16.6882 15.9869 16.2997ZM62.5442 61.7173C71.5764 51.9166 73.5869 37.395 67.5384 25.4985C61.0288 12.7141 46.6822 5.78199 32.6557 8.63766C32.2374 8.7145 31.802 8.81267 31.2769 8.945C28.9292 9.53406 26.6498 10.3878 24.4984 11.4848C24.0289 11.7238 23.5551 11.9799 23.1069 12.2403C22.9575 12.3257 22.9105 12.5135 22.9916 12.6586C23.077 12.808 23.2648 12.855 23.41 12.7739C23.8496 12.5221 24.3106 12.2702 24.7716 12.0354C26.8803 10.964 29.117 10.1231 31.4221 9.54687C31.93 9.41881 32.3569 9.3249 32.7667 9.24807C46.5328 6.44362 60.602 13.2477 66.9835 25.7845C72.9168 37.4462 70.949 51.6819 62.1002 61.2904C61.9209 61.1581 61.7161 61.0514 61.4984 60.9831C60.952 60.8081 60.3715 60.8507 59.8592 61.1111C59.347 61.3715 58.9714 61.8154 58.7921 62.3576C58.6128 62.8997 58.6598 63.4845 58.9201 63.9967C59.1805 64.5089 59.6245 64.8845 60.1666 65.0638C60.3885 65.1364 60.6105 65.1705 60.8282 65.1705C61.7331 65.1705 62.574 64.5943 62.8686 63.6893C63.0479 63.143 63.0009 62.5624 62.7405 62.0502C62.6893 61.9264 62.621 61.8154 62.5442 61.7173ZM62.2923 63.4887C62.0319 64.2912 61.1611 64.7309 60.3629 64.4705C59.9745 64.3424 59.6586 64.0735 59.4708 63.7107C59.2872 63.3479 59.2531 62.9338 59.3812 62.5411C59.5092 62.1527 59.7781 61.8368 60.141 61.649C60.3587 61.538 60.5934 61.4825 60.8325 61.4825C60.9904 61.4825 61.1526 61.5081 61.3105 61.5593C61.699 61.6874 62.0149 61.9563 62.1984 62.3191C62.3862 62.6862 62.4161 63.1003 62.2923 63.4887ZM66.2407 34.4966C66.1639 34.0954 66.0743 33.6984 65.9761 33.3014C65.4639 31.2653 64.7211 29.2847 63.7735 27.4193C63.6967 27.2657 63.5089 27.2102 63.3595 27.2828C63.2101 27.3596 63.146 27.5431 63.2229 27.6968C64.1491 29.5237 64.8748 31.4574 65.3785 33.4508C65.4767 33.8393 65.562 34.2234 65.6389 34.6161C68.0634 46.5254 62.1813 58.7037 51.3306 64.2229C41.3892 69.2812 29.1811 67.6762 20.8787 60.2446C21.0068 60.0653 21.1135 59.8647 21.1818 59.647C21.361 59.1006 21.3141 58.5158 21.0537 58.0036C20.7933 57.4914 20.3494 57.1115 19.7988 56.9322C19.2524 56.7572 18.6676 56.7999 18.1554 57.0603C17.6431 57.3206 17.2632 57.7646 17.0839 58.3152C16.9047 58.8659 16.9516 59.4464 17.212 59.9586C17.4724 60.4708 17.9163 60.8507 18.467 61.03C18.6889 61.1026 18.9109 61.1367 19.1371 61.1367C19.4701 61.1367 19.803 61.0556 20.1104 60.902C20.2299 60.8422 20.3451 60.7696 20.4476 60.6885C25.6339 65.3413 32.3185 67.7658 39.0542 67.7658C43.3399 67.7658 47.6469 66.784 51.6038 64.7736C62.7021 59.122 68.7208 46.6706 66.2407 34.4966ZM19.8286 60.3513C19.4615 60.5391 19.0432 60.569 18.6548 60.441C18.2663 60.3129 17.9462 60.044 17.7584 59.6769C17.5706 59.3098 17.5407 58.8957 17.6687 58.503C17.7968 58.1103 18.0657 57.7945 18.4328 57.6066C18.6505 57.4957 18.8896 57.4402 19.1286 57.4402C19.2908 57.4402 19.4487 57.4658 19.6067 57.517C19.9994 57.6451 20.3152 57.9182 20.5031 58.2811C20.6909 58.6482 20.7208 59.0665 20.5927 59.4549C20.4689 59.8476 20.1957 60.1678 19.8286 60.3513ZM58.4591 23.3429C58.6768 23.4154 58.9031 23.4496 59.1293 23.4496C59.4623 23.4496 59.7952 23.3685 60.1025 23.2148C60.6148 22.9544 60.9947 22.5105 61.174 21.9599C61.3532 21.4135 61.3063 20.8287 61.0459 20.3165C60.7855 19.8042 60.3416 19.4243 59.7909 19.245C59.2446 19.0658 58.6598 19.1127 58.1475 19.3731C58.0366 19.4286 57.9341 19.4926 57.8359 19.5652C49.3287 11.7409 36.7279 10.0036 26.415 15.2497C15.3253 20.8927 9.30235 33.3441 11.7781 45.5309C11.8592 45.9236 11.9489 46.3205 12.0428 46.7133C12.5507 48.7366 13.2935 50.7172 14.2496 52.5996C14.3051 52.7063 14.4118 52.7704 14.5228 52.7704C14.5698 52.7704 14.6167 52.7618 14.6637 52.7362C14.8173 52.6594 14.8771 52.4758 14.8003 52.3222C13.8654 50.4781 13.1398 48.5402 12.6404 46.5639C12.5465 46.1797 12.4568 45.7912 12.38 45.4071C9.95971 33.4892 15.8461 21.3153 26.6925 15.796C36.7663 10.6695 49.0811 12.3641 57.4005 19.9963C57.2597 20.1841 57.153 20.3933 57.0761 20.6195C56.8969 21.1659 56.9438 21.7507 57.2042 22.2629C57.4646 22.7837 57.9085 23.1636 58.4591 23.3429ZM58.425 19.9195C58.6427 19.8085 58.8817 19.753 59.1208 19.753C59.283 19.753 59.4409 19.7786 59.5989 19.8298C59.9873 19.9579 60.3074 20.2268 60.4953 20.5939C60.6831 20.961 60.7129 21.3751 60.5849 21.7678C60.3245 22.5745 59.4494 23.0185 58.647 22.7538C58.2542 22.6257 57.9384 22.3526 57.7506 21.9897C57.5627 21.6226 57.5329 21.2043 57.6609 20.8159C57.789 20.4232 58.0579 20.1073 58.425 19.9195Z" fill="#A745FF"/>
</g>
<defs>
<clipPath id="clip0_1_92274">
<rect width="64" height="64" fill="white" transform="translate(7 8)"/>
</clipPath>
</defs>
</svg>
