<svg width="45" height="37" viewBox="0 0 45 37" fill="none" xmlns="http://www.w3.org/2000/svg">
<path d="M31.4895 4.15148L16.5595 7.73214V28.6971L20.8177 27.6593C20.7126 27.296 20.66 26.8809 20.6074 26.5176C20.5549 25.9987 20.5023 25.4797 20.5023 24.9089C20.5023 21.7434 21.764 18.8374 23.7617 16.7097C25.7068 14.634 28.4404 13.2329 31.4369 12.9215V4.15148H31.4895ZM16.0864 7.05752L31.8049 3.26929C31.8575 3.26929 31.91 3.26929 31.91 3.26929C32.1203 3.26929 32.3306 3.42497 32.3306 3.68444V13.2848C32.3306 13.4923 32.1729 13.648 31.9626 13.6999C28.9661 13.9075 26.3376 15.2567 24.3925 17.2806C22.5 19.3044 21.3434 22.0029 21.3434 24.9608C21.3434 25.4797 21.396 25.9987 21.4486 26.4657C21.5011 26.9847 21.6063 27.4517 21.764 27.9187C21.8166 28.1263 21.6589 28.3339 21.4486 28.3858L16.3493 29.6312C16.2967 29.6312 16.2441 29.6831 16.1916 29.6831C15.9813 29.6831 15.771 29.5274 15.771 29.268V7.47267C15.771 7.26509 15.8761 7.10941 16.0864 7.05752Z" fill="#6F4D9B"/>
<path d="M0.578271 3.2693L16.2442 7.05753C16.4019 7.10943 16.5596 7.26511 16.5596 7.42079V29.2161C16.5596 29.4237 16.4019 29.6312 16.139 29.6312C16.0865 29.6312 16.0339 29.6313 16.0339 29.5794L0.31542 25.7911C0.15771 25.7392 0 25.5835 0 25.4279V3.63256C0 3.42498 0.15771 3.21741 0.420561 3.21741C0.473131 3.2693 0.525701 3.2693 0.578271 3.2693ZM15.771 7.73215L0.841121 4.15149V25.1165L15.771 28.6972V7.73215Z" fill="#6F4D9B"/>
<path d="M0.36788 3.2693L16.0863 0C16.1389 0 16.1915 0 16.2441 0L31.9625 3.2693C32.1728 3.32119 32.3305 3.52876 32.2779 3.73634C32.2254 3.89202 32.1202 3.99581 31.9625 4.0477L16.2441 7.83593C16.1915 7.83593 16.0863 7.83593 16.0863 7.83593L0.31531 4.0477C0.105029 3.99581 -0.000110976 3.78823 0.0524592 3.58066C0.105029 3.37308 0.21017 3.2693 0.36788 3.2693ZM16.1389 0.778404L2.20783 3.68445L16.1389 7.05753L30.07 3.68445L16.1389 0.778404Z" fill="#6F4D9B"/>
<path d="M3.94268 22.9369C3.94268 23.1445 3.78497 23.352 3.52212 23.352C3.31184 23.352 3.10156 23.1964 3.10156 22.9369V7.16124C3.10156 6.95367 3.25927 6.74609 3.52212 6.74609C3.7324 6.74609 3.94268 6.90177 3.94268 7.16124V22.9369Z" fill="#6F4D9B"/>
<path d="M7.04425 20.3942C7.04425 20.6018 6.88654 20.8093 6.62369 20.8093C6.41341 20.8093 6.20312 20.6537 6.20312 20.3942V9.65221C6.20312 9.44463 6.36084 9.23706 6.62369 9.23706C6.83397 9.23706 7.04425 9.39274 7.04425 9.65221V20.3942Z" fill="#6F4D9B"/>
<path d="M32.7513 12.8176C36.1158 12.8176 39.2174 14.1669 41.4254 16.3464C43.6333 18.5259 45.0001 21.5358 45.0001 24.9088C45.0001 28.2819 43.6333 31.2917 41.4254 33.4713C39.2174 35.6508 36.1683 37 32.7513 37C29.3342 37 26.2852 35.6508 24.0772 33.4713C21.8693 31.2917 20.5024 28.2819 20.5024 24.9088C20.5024 21.5876 21.8693 18.5259 24.0772 16.3464C26.2852 14.1669 29.3868 12.8176 32.7513 12.8176ZM40.7945 16.9172C38.7443 14.8934 35.8529 13.596 32.7513 13.596C29.5971 13.596 26.7583 14.8934 24.6555 16.9172C22.6052 18.9411 21.291 21.7952 21.291 24.9088C21.291 28.0225 22.5527 30.8247 24.6555 32.9005C26.7057 34.9243 29.5971 36.2216 32.7513 36.2216C35.9055 36.2216 38.7443 34.9762 40.7945 32.9005C42.8447 30.8766 44.159 28.0225 44.159 24.9088C44.159 21.7952 42.8973 18.9411 40.7945 16.9172Z" fill="#6F4D9B"/>
<path d="M24.8131 25.0126C24.7079 24.805 24.7605 24.5974 24.9708 24.4417C25.1811 24.3379 25.4439 24.3898 25.5491 24.5974L28.7033 29.9943L40.0058 18.8372C40.1635 18.6815 40.4264 18.6815 40.5841 18.8372C40.7418 18.9929 40.7418 19.2524 40.5841 19.4081L28.9135 30.9284L28.8084 31.0322C28.5981 31.136 28.3353 31.0841 28.2301 30.8765L24.8131 25.0126Z" fill="#D7702D"/>
</svg>
