<svg width="80" height="80" viewBox="0 0 80 80" fill="none" xmlns="http://www.w3.org/2000/svg">
<mask id="path-1-inside-1_77_21600" fill="white">
<path d="M0 8C0 3.58172 3.58172 0 8 0H72C76.4183 0 80 3.58172 80 8V72C80 76.4183 76.4183 80 72 80H8C3.58172 80 0 76.4183 0 72V8Z"/>
</mask>
<path d="M8 0V0.6H72V0V-0.6H8V0ZM80 8H79.4V72H80H80.6V8H80ZM72 80V79.4H8V80V80.6H72V80ZM0 72H0.6V8H0H-0.6V72H0ZM8 80V79.4C3.91309 79.4 0.6 76.0869 0.6 72H0H-0.6C-0.6 76.7496 3.25035 80.6 8 80.6V80ZM80 72H79.4C79.4 76.0869 76.0869 79.4 72 79.4V80V80.6C76.7496 80.6 80.6 76.7496 80.6 72H80ZM72 0V0.6C76.0869 0.6 79.4 3.91309 79.4 8H80H80.6C80.6 3.25035 76.7496 -0.6 72 -0.6V0ZM8 0V-0.6C3.25035 -0.6 -0.6 3.25035 -0.6 8H0H0.6C0.6 3.91309 3.91309 0.6 8 0.6V0Z" fill="white" mask="url(#path-1-inside-1_77_21600)"/>
<path d="M57.8486 36.2667V25.3342H49.9112V17.6H39.8418H28.9912V25.3342H22.1516V35.5882" stroke="#D7702D" stroke-miterlimit="10"/>
<path d="M18.923 62.4V50.3437C18.923 49.863 18.8188 49.4015 18.5897 48.9592L14.9653 41.5947C14.0905 39.8257 15.0278 37.749 16.9858 37.0567L22.8181 35.0185L39.8985 29.0192C40.7733 28.7115 41.7315 28.7308 42.5855 29.0577L64.9982 37.5951C66.8937 38.3258 67.7686 40.3641 66.9146 42.0946L63.1027 49.8437C62.8944 50.286 62.7695 50.7475 62.7695 51.2282V60.7271" stroke="white" stroke-miterlimit="10"/>
<path d="M40 17.6V12" stroke="white" stroke-miterlimit="10" stroke-linecap="round"/>
<path d="M71 60.3126C71 60.3126 66.5669 63.0302 60.4741 60.3126C54.3812 57.595 49.4649 60.3126 49.4649 60.3126C49.4649 60.3126 42.8889 64.154 35.8085 60.3126C28.7282 56.4712 22.4883 60.5578 22.4883 60.5578C22.4883 60.5578 16.8997 64.8487 9 60.333" stroke="#D7702D" stroke-miterlimit="10"/>
<path d="M71 65.9126C71 65.9126 66.5669 68.6302 60.4741 65.9126C54.3812 63.195 49.4649 65.9126 49.4649 65.9126C49.4649 65.9126 42.8889 69.754 35.8085 65.9126C28.7282 62.0712 22.4883 66.1578 22.4883 66.1578C22.4883 66.1578 16.8997 70.4487 9 65.933" stroke="white" stroke-miterlimit="10"/>
<path d="M49.394 45.6C48.8743 45.6 48.4546 45.116 48.4546 44.5169V42.9498C48.4546 42.3506 48.8743 41.8667 49.394 41.8667C49.9136 41.8667 50.3334 42.3506 50.3334 42.9498V44.5169C50.3334 45.116 49.9136 45.6 49.394 45.6Z" stroke="#D7702D" stroke-miterlimit="10"/>
<path d="M30.6059 45.6C30.0862 45.6 29.6665 45.116 29.6665 44.5169V42.9498C29.6665 42.3506 30.0862 41.8667 30.6059 41.8667C31.1256 41.8667 31.5453 42.3506 31.5453 42.9498V44.5169C31.5453 45.116 31.1256 45.6 30.6059 45.6Z" stroke="#D7702D" stroke-miterlimit="10"/>
</svg>
