<svg width="73" height="73" viewBox="0 0 73 73" fill="none" xmlns="http://www.w3.org/2000/svg">
<g filter="url(#filter0_i_11_675)">
<rect x="0.5" y="0.5" width="72" height="72" rx="8" fill="#FCFBFF"/>
<rect x="0.5" y="0.5" width="72" height="72" rx="8" stroke="white"/>
<path d="M50 33.5V25.3006H43.9965V19.5H36.3802H28.1733V25.3006H23V32.9912" stroke="#A9A5DB" stroke-miterlimit="10"/>
<path d="M20.2593 53.5V44.5295C20.2593 44.1719 20.1801 43.8285 20.0059 43.4994L17.2501 38.0199C16.5849 36.7036 17.2976 35.1585 18.7864 34.6434L23.2211 33.1269L36.2084 28.6631C36.8736 28.4342 37.6022 28.4485 38.2516 28.6917L55.2935 35.044C56.7348 35.5877 57.4 37.1042 56.7506 38.3918L53.8522 44.1576C53.6938 44.4866 53.5988 44.83 53.5988 45.1876V52.2553" stroke="#8E73B0" stroke-miterlimit="10"/>
<path d="M36 19.5V15.5" stroke="#8E73B0" stroke-miterlimit="10" stroke-linecap="round"/>
<path d="M60 51.8226C60 51.8226 56.6395 54.0064 52.0207 51.8226C47.4019 49.6389 43.675 51.8226 43.675 51.8226C43.675 51.8226 38.6899 54.9095 33.3226 51.8226C27.9553 48.7358 23.225 52.0197 23.225 52.0197C23.225 52.0197 18.9885 55.4677 13 51.8391" stroke="#A9A5DB" stroke-miterlimit="10"/>
<path d="M60 55.8226C60 55.8226 56.6394 58.0064 52.0207 55.8226C47.4019 53.6389 43.675 55.8226 43.675 55.8226C43.675 55.8226 38.6899 58.9095 33.3226 55.8226C27.9553 52.7358 23.225 56.0197 23.225 56.0197C23.225 56.0197 18.9885 59.4677 13 55.8391" stroke="#8E73B0" stroke-miterlimit="10"/>
<path d="M43.5 40.5C43.2234 40.5 43 40.1111 43 39.6296V38.3704C43 37.8889 43.2234 37.5 43.5 37.5C43.7766 37.5 44 37.8889 44 38.3704V39.6296C44 40.1111 43.7766 40.5 43.5 40.5Z" stroke="#A9A5DB" stroke-miterlimit="10"/>
<path d="M29.5 40.5C29.2234 40.5 29 40.1111 29 39.6296V38.3704C29 37.8889 29.2234 37.5 29.5 37.5C29.7766 37.5 30 37.8889 30 38.3704V39.6296C30 40.1111 29.7766 40.5 29.5 40.5Z" stroke="#A9A5DB" stroke-miterlimit="10"/>
</g>
<defs>
<filter id="filter0_i_11_675" x="-4" y="-5" width="77" height="78" filterUnits="userSpaceOnUse" color-interpolation-filters="sRGB">
<feFlood flood-opacity="0" result="BackgroundImageFix"/>
<feBlend mode="normal" in="SourceGraphic" in2="BackgroundImageFix" result="shape"/>
<feColorMatrix in="SourceAlpha" type="matrix" values="0 0 0 0 0 0 0 0 0 0 0 0 0 0 0 0 0 0 127 0" result="hardAlpha"/>
<feMorphology radius="1" operator="erode" in="SourceAlpha" result="effect1_innerShadow_11_675"/>
<feOffset dx="-4" dy="-5"/>
<feGaussianBlur stdDeviation="4.75"/>
<feComposite in2="hardAlpha" operator="arithmetic" k2="-1" k3="1"/>
<feColorMatrix type="matrix" values="0 0 0 0 0.572549 0 0 0 0 0.552941 0 0 0 0 0.827451 0 0 0 0.3 0"/>
<feBlend mode="normal" in2="shape" result="effect1_innerShadow_11_675"/>
</filter>
</defs>
</svg>
