<svg width="80" height="80" viewBox="0 0 80 80" fill="none" xmlns="http://www.w3.org/2000/svg">
<mask id="path-1-inside-1_77_21730" fill="white">
<path d="M0 8C0 3.58172 3.58172 0 8 0H72C76.4183 0 80 3.58172 80 8V72C80 76.4183 76.4183 80 72 80H8C3.58172 80 0 76.4183 0 72V8Z"/>
</mask>
<path d="M8 0V0.6H72V0V-0.6H8V0ZM80 8H79.4V72H80H80.6V8H80ZM72 80V79.4H8V80V80.6H72V80ZM0 72H0.6V8H0H-0.6V72H0ZM8 80V79.4C3.91309 79.4 0.6 76.0869 0.6 72H0H-0.6C-0.6 76.7496 3.25035 80.6 8 80.6V80ZM80 72H79.4C79.4 76.0869 76.0869 79.4 72 79.4V80V80.6C76.7496 80.6 80.6 76.7496 80.6 72H80ZM72 0V0.6C76.0869 0.6 79.4 3.91309 79.4 8H80H80.6C80.6 3.25035 76.7496 -0.6 72 -0.6V0ZM8 0V-0.6C3.25035 -0.6 -0.6 3.25035 -0.6 8H0H0.6C0.6 3.91309 3.91309 0.6 8 0.6V0Z" fill="white" mask="url(#path-1-inside-1_77_21730)"/>
<path d="M55.1544 14.6043C58.7649 14.6043 61.7135 17.238 61.7135 20.4628V56.1511C61.7135 59.3759 58.7649 62.0095 55.1544 62.0095H25.0867C21.4761 62.0095 18.5275 59.3759 18.5275 56.1511V20.4628C18.5275 17.238 21.4761 14.6043 25.0867 14.6043H55.1544ZM55.1544 13.1711H25.0867C20.5936 13.1711 16.9229 16.4497 16.9229 20.4628V56.1511C16.9229 60.1642 20.5936 63.4428 25.0867 63.4428H55.1544C59.6475 63.4428 63.3182 60.1642 63.3182 56.1511V20.4628C63.3182 16.4497 59.6475 13.1711 55.1544 13.1711Z" fill="white" stroke="#08001A"/>
<path d="M31.4593 16.1723C33.1646 16.1723 34.547 14.9375 34.547 13.4144C34.547 11.8913 33.1646 10.6566 31.4593 10.6566C29.754 10.6566 28.3716 11.8913 28.3716 13.4144C28.3716 14.9375 29.754 16.1723 31.4593 16.1723Z" fill="white"/>
<path d="M31.4591 11.3133C32.7456 11.3133 33.8116 12.249 33.8116 13.4145C33.8116 14.58 32.764 15.5157 31.4591 15.5157C30.1725 15.5157 29.1066 14.58 29.1066 13.4145C29.1066 12.249 30.1542 11.3133 31.4591 11.3133ZM31.4591 10C29.3455 10 27.6362 11.5267 27.6362 13.4145C27.6362 15.3023 29.3455 16.829 31.4591 16.829C33.5727 16.829 35.2819 15.3023 35.2819 13.4145C35.2636 11.5267 33.5543 10 31.4591 10Z" fill="white"/>
<path d="M47.4593 16.1559C45.7684 16.1559 44.3716 14.9247 44.3716 13.3981C44.3716 11.8714 45.75 10.6402 47.4593 10.6402C49.1502 10.6402 50.547 11.8714 50.547 13.3981C50.547 14.9247 49.1502 16.1559 47.4593 16.1559Z" fill="white"/>
<path d="M47.4591 11.3133C48.7456 11.3133 49.8116 12.249 49.8116 13.4145C49.8116 14.58 48.764 15.5157 47.4591 15.5157C46.1725 15.5157 45.1066 14.58 45.1066 13.4145C45.1066 12.249 46.1542 11.3133 47.4591 11.3133ZM47.4591 10C45.3455 10 43.6362 11.5267 43.6362 13.4145C43.6362 15.3023 45.3455 16.829 47.4591 16.829C49.5727 16.829 51.2819 15.3023 51.2819 13.4145C51.2636 11.5267 49.5543 10 47.4591 10Z" fill="white"/>
<path d="M27.7945 51.2601C29.7001 51.2601 31.2647 52.6396 31.2647 54.3595C31.2647 56.0795 29.7201 57.459 27.7945 57.459C25.8689 57.459 24.3244 56.0795 24.3244 54.3595C24.3244 52.6396 25.889 51.2601 27.7945 51.2601ZM27.7945 49.8268C24.9863 49.8268 22.7197 51.8513 22.7197 54.3595C22.7197 56.8677 24.9863 58.8922 27.7945 58.8922C30.6027 58.8922 32.8693 56.8677 32.8693 54.3595C32.8693 51.8513 30.6027 49.8268 27.7945 49.8268Z" fill="#D7702D"/>
<path d="M53.7101 50.6689C55.6156 50.6689 57.1802 52.0484 57.1802 53.7683C57.1802 55.4882 55.6357 56.8677 53.7101 56.8677C51.7844 56.8677 50.2399 55.4882 50.2399 53.7683C50.2399 52.0484 51.8045 50.6689 53.7101 50.6689ZM53.7101 49.2356C50.9019 49.2356 48.6353 51.2601 48.6353 53.7683C48.6353 56.2765 50.9019 58.301 53.7101 58.301C56.5183 58.301 58.7849 56.2765 58.7849 53.7683C58.7849 51.2601 56.4982 49.2356 53.7101 49.2356Z" fill="#D7702D"/>
<path d="M55.4885 27.5462C55.9451 27.5462 56.3188 27.8721 56.3188 28.2705V39.9321C56.3188 40.3305 55.9451 40.6564 55.4885 40.6564H24.3335C23.8769 40.6564 23.5033 40.3305 23.5033 39.9321V28.2705C23.5033 27.8721 23.8769 27.5462 24.3335 27.5462H55.4885ZM55.4885 26.0975H24.3335C22.9636 26.0975 21.8428 27.0754 21.8428 28.2705V39.9321C21.8428 41.1272 22.9636 42.1051 24.3335 42.1051H55.5093C56.8792 42.1051 58 41.1272 58 39.9321V28.2705C57.9792 27.0754 56.8584 26.0975 55.4885 26.0975Z" fill="white" stroke="#070016"/>
<path d="M48.2168 22.1788C48.6581 22.1788 49.0191 22.4884 49.0191 22.8667V25.4975C49.0191 25.8758 48.6581 26.1854 48.2168 26.1854H31.5281C31.0868 26.1854 30.7258 25.8758 30.7258 25.4975V22.8667C30.7258 22.4884 31.0868 22.1788 31.5281 22.1788H48.2168ZM48.2168 20.8032H31.5281C30.2043 20.8032 29.1211 21.7318 29.1211 22.8667V25.4975C29.1211 26.6324 30.2043 27.561 31.5281 27.561H48.2168C49.5407 27.561 50.6238 26.6324 50.6238 25.4975V22.8667C50.6238 21.7318 49.5407 20.8032 48.2168 20.8032Z" fill="#D7702D"/>
<path d="M16 69.9284L24.7856 62.6545" stroke="white" stroke-miterlimit="10"/>
<path d="M64 70L55.6958 62.5829" stroke="white" stroke-miterlimit="10"/>
<ellipse cx="27.6366" cy="54.6341" rx="4.36364" ry="3.65854" fill="#D7702D"/>
<circle cx="54" cy="54" r="4" fill="#D7702D"/>
</svg>
