<svg width="73" height="73" viewBox="0 0 73 73" fill="none" xmlns="http://www.w3.org/2000/svg">
<g filter="url(#filter0_i_10_391)">
<rect x="0.5" y="0.5" width="72" height="72" rx="8" fill="#FCFBFF"/>
<rect x="0.5" y="0.5" width="72" height="72" rx="8" stroke="white"/>
<path d="M18.5 62L25 55.5" stroke="#6E4C9B" stroke-miterlimit="10"/>
<path d="M56 62L49.5 55.5" stroke="#6E4C9B" stroke-miterlimit="10"/>
<path d="M48.9894 16.6404C51.8688 16.6404 54.2203 18.7359 54.2203 21.3019V49.6981C54.2203 52.2641 51.8688 54.3596 48.9894 54.3596H25.0106C22.1312 54.3596 19.7797 52.2641 19.7797 49.6981V21.3019C19.7797 18.7359 22.1312 16.6404 25.0106 16.6404H48.9894ZM48.9894 15.5H25.0106C21.4274 15.5 18.5 18.1087 18.5 21.3019V49.6981C18.5 52.8913 21.4274 55.5 25.0106 55.5H48.9894C52.5726 55.5 55.5 52.8913 55.5 49.6981V21.3019C55.5 18.1087 52.5726 15.5 48.9894 15.5Z" fill="#6E4C9B" stroke="#FBFDFF" stroke-width="0.7"/>
<path d="M30 17.5C31.3807 17.5 32.5 16.6046 32.5 15.5C32.5 14.3954 31.3807 13.5 30 13.5C28.6193 13.5 27.5 14.3954 27.5 15.5C27.5 16.6046 28.6193 17.5 30 17.5Z" fill="#6E4C9B"/>
<path d="M29.5 13.4615C30.5096 13.4615 31.3462 14.1466 31.3462 15C31.3462 15.8534 30.524 16.5385 29.5 16.5385C28.4904 16.5385 27.6538 15.8534 27.6538 15C27.6538 14.1466 28.476 13.4615 29.5 13.4615ZM29.5 12.5C27.8413 12.5 26.5 13.6178 26.5 15C26.5 16.3822 27.8413 17.5 29.5 17.5C31.1587 17.5 32.5 16.3822 32.5 15C32.4856 13.6178 31.1442 12.5 29.5 12.5Z" fill="#6E4C9B"/>
<path d="M43 17.5C41.631 17.5 40.5 16.6071 40.5 15.5C40.5 14.3929 41.6161 13.5 43 13.5C44.369 13.5 45.5 14.3929 45.5 15.5C45.5 16.6071 44.369 17.5 43 17.5Z" fill="#6E4C9B"/>
<path d="M42.5 13.4615C43.5096 13.4615 44.3462 14.1466 44.3462 15C44.3462 15.8534 43.524 16.5385 42.5 16.5385C41.4904 16.5385 40.6538 15.8534 40.6538 15C40.6538 14.1466 41.476 13.4615 42.5 13.4615ZM42.5 12.5C40.8413 12.5 39.5 13.6178 39.5 15C39.5 16.3822 40.8413 17.5 42.5 17.5C44.1587 17.5 45.5 16.3822 45.5 15C45.4856 13.6178 44.1442 12.5 42.5 12.5Z" fill="#6E4C9B"/>
<path d="M49.4856 26.6765C49.8519 26.6765 50.1516 26.9412 50.1516 27.2647V36.7353C50.1516 37.0588 49.8519 37.3235 49.4856 37.3235H24.4977C24.1315 37.3235 23.8318 37.0588 23.8318 36.7353V27.2647C23.8318 26.9412 24.1315 26.6765 24.4977 26.6765H49.4856ZM49.4856 25.5H24.4977C23.399 25.5 22.5 26.2941 22.5 27.2647V36.7353C22.5 37.7059 23.399 38.5 24.4977 38.5H49.5023C50.601 38.5 51.5 37.7059 51.5 36.7353V27.2647C51.4834 26.2941 50.5844 25.5 49.4856 25.5Z" fill="#6E4C9B" stroke="#FBFDFF"/>
<path d="M43.4851 22.5178C43.8545 22.5178 44.1567 22.7468 44.1567 23.0267V24.9733C44.1567 25.2532 43.8545 25.4822 43.4851 25.4822H29.5149C29.1455 25.4822 28.8433 25.2532 28.8433 24.9733V23.0267C28.8433 22.7468 29.1455 22.5178 29.5149 22.5178H43.4851ZM43.4851 21.5H29.5149C28.4067 21.5 27.5 22.187 27.5 23.0267V24.9733C27.5 25.813 28.4067 26.5 29.5149 26.5H43.4851C44.5933 26.5 45.5 25.813 45.5 24.9733V23.0267C45.5 22.187 44.5933 21.5 43.4851 21.5Z" fill="#9D99D8"/>
<circle cx="47.5" cy="47.5" r="3" fill="#9D99D8"/>
<circle cx="26.5" cy="47.5" r="3" fill="#9D99D8"/>
</g>
<defs>
<filter id="filter0_i_10_391" x="-4" y="-5" width="77" height="78" filterUnits="userSpaceOnUse" color-interpolation-filters="sRGB">
<feFlood flood-opacity="0" result="BackgroundImageFix"/>
<feBlend mode="normal" in="SourceGraphic" in2="BackgroundImageFix" result="shape"/>
<feColorMatrix in="SourceAlpha" type="matrix" values="0 0 0 0 0 0 0 0 0 0 0 0 0 0 0 0 0 0 127 0" result="hardAlpha"/>
<feMorphology radius="1" operator="erode" in="SourceAlpha" result="effect1_innerShadow_10_391"/>
<feOffset dx="-4" dy="-5"/>
<feGaussianBlur stdDeviation="4.75"/>
<feComposite in2="hardAlpha" operator="arithmetic" k2="-1" k3="1"/>
<feColorMatrix type="matrix" values="0 0 0 0 0.572549 0 0 0 0 0.552941 0 0 0 0 0.827451 0 0 0 0.3 0"/>
<feBlend mode="normal" in2="shape" result="effect1_innerShadow_10_391"/>
</filter>
</defs>
</svg>
