<svg width="80" height="80" viewBox="0 0 80 80" fill="none" xmlns="http://www.w3.org/2000/svg">
<mask id="path-1-inside-1_77_21611" fill="white">
<path d="M0 8C0 3.58172 3.58172 0 8 0H72C76.4183 0 80 3.58172 80 8V72C80 76.4183 76.4183 80 72 80H8C3.58172 80 0 76.4183 0 72V8Z"/>
</mask>
<path d="M8 0V0.6H72V0V-0.6H8V0ZM80 8H79.4V72H80H80.6V8H80ZM72 80V79.4H8V80V80.6H72V80ZM0 72H0.6V8H0H-0.6V72H0ZM8 80V79.4C3.91309 79.4 0.6 76.0869 0.6 72H0H-0.6C-0.6 76.7496 3.25035 80.6 8 80.6V80ZM80 72H79.4C79.4 76.0869 76.0869 79.4 72 79.4V80V80.6C76.7496 80.6 80.6 76.7496 80.6 72H80ZM72 0V0.6C76.0869 0.6 79.4 3.91309 79.4 8H80H80.6C80.6 3.25035 76.7496 -0.6 72 -0.6V0ZM8 0V-0.6C3.25035 -0.6 -0.6 3.25035 -0.6 8H0H0.6C0.6 3.91309 3.91309 0.6 8 0.6V0Z" fill="white" mask="url(#path-1-inside-1_77_21611)"/>
<path d="M65.6213 58.4832H14.2268V63.3779H65.6213V58.4832Z" stroke="white" stroke-width="0.6" stroke-miterlimit="10"/>
<path d="M19.9837 69.8999H18.1617C15.9855 69.8999 14.2268 68.1599 14.2268 66.0067V63.3153H23.9313V65.9817C23.9313 68.1474 22.1599 69.8999 19.9837 69.8999Z" stroke="white" stroke-width="0.6" stroke-miterlimit="10"/>
<path d="M61.6866 70H59.5484C57.3215 70 55.5122 68.2099 55.5122 66.0067V63.4154H65.6089V66.1068C65.6216 68.26 63.8629 70 61.6866 70Z" stroke="white" stroke-width="0.6" stroke-miterlimit="10"/>
<path d="M60.8133 10H19.1866C17.6556 10 16.4031 11.4521 16.3904 13.2422L16.2512 48.7816H63.3818L63.521 13.1922C63.5336 11.4271 62.319 10 60.8133 10Z" stroke="white" stroke-width="0.6" stroke-miterlimit="10"/>
<path d="M66.5197 37.3524H65.0267C64.2043 37.3524 63.5464 36.7014 63.5464 35.8877V28.8399C63.5464 28.0263 64.2043 27.3753 65.0267 27.3753H66.5197C67.3421 27.3753 68.0001 28.0263 68.0001 28.8399V35.8877C68.0001 36.6889 67.3295 37.3524 66.5197 37.3524Z" stroke="white" stroke-width="0.6" stroke-miterlimit="10"/>
<path d="M14.9733 37.3524H13.4803C12.6579 37.3524 12 36.7014 12 35.8877V28.8399C12 28.0263 12.6579 27.3753 13.4803 27.3753H14.9733C15.7958 27.3753 16.4537 28.0263 16.4537 28.8399V35.8877C16.4537 36.6889 15.7958 37.3524 14.9733 37.3524Z" stroke="white" stroke-width="0.6" stroke-miterlimit="10"/>
<path d="M57.4478 42.898V37.3399H22.0208V42.898H19.6042C16.6435 42.898 14.2395 45.2765 14.2395 48.2058V58.4832H65.634V47.6925C65.634 45.0512 63.4704 42.898 60.7881 42.898H57.4478Z" fill="#0F081D" stroke="white" stroke-width="0.6" stroke-miterlimit="10"/>
<path d="M48.9579 22.6559H30.5485C25.8291 22.6559 22.0081 26.4365 22.0081 31.1058V37.3524H57.4477V31.0557C57.4477 26.4114 53.652 22.6559 48.9579 22.6559Z" stroke="#D7702D" stroke-miterlimit="10"/>
<path d="M45.8545 54.1296H34.657C33.1893 54.1296 32 52.9529 32 51.5008V45.5796C32 44.1275 33.1893 42.9508 34.657 42.9508H45.8545C47.3222 42.9508 48.5115 44.1275 48.5115 45.5796V51.5008C48.5115 52.9529 47.3222 54.1296 45.8545 54.1296Z" stroke="white" stroke-width="0.6" stroke-miterlimit="10"/>
<path d="M19.6168 54.0767H25.361C25.981 54.0767 26.4871 53.576 26.4871 52.9626V49.5952C26.4871 48.9818 25.981 48.4811 25.361 48.4811H19.6041C18.9841 48.4811 18.478 48.9818 18.478 49.5952V52.9626C18.4907 53.5885 18.9968 54.0767 19.6168 54.0767Z" fill="#D7702D" stroke="#D7702D" stroke-miterlimit="10"/>
<path d="M53.7027 54.0767H59.4596C60.0796 54.0767 60.5857 53.576 60.5857 52.9626V49.5952C60.5857 48.9818 60.0796 48.4811 59.4596 48.4811H53.7027C53.0828 48.4811 52.5767 48.9818 52.5767 49.5952V52.9626C52.5767 53.5885 53.0828 54.0767 53.7027 54.0767Z" fill="#D7702D" stroke="#D7702D" stroke-miterlimit="10"/>
</svg>
