<svg width="138" height="76" viewBox="0 0 138 76" fill="none" xmlns="http://www.w3.org/2000/svg">
<g clip-path="url(#clip0_66_319)">
<path d="M87.5687 29.9282H81.051V56.232H87.5687V29.9282Z" fill="#501665"/>
<path d="M57.3275 49.5758H17.6975C14.9731 49.5758 12.7516 47.3072 12.7516 44.5248V29.9282H6.25488V45.7662C6.25488 48.8267 8.0572 56.5103 19.6465 56.2749H57.4323L57.3484 49.5758H57.3275Z" fill="#501665"/>
<path d="M70.3418 49.8755C66.7372 49.8755 63.8241 46.9005 63.8241 43.2193C63.8241 39.538 66.7372 36.563 70.3418 36.563H77.1738V29.9282H70.3418C63.1325 29.9282 57.3274 35.8782 57.3274 43.2193C57.3274 50.1537 62.5038 55.804 69.1053 56.4247L67.4497 59.4424L73.5063 63.2093L77.1948 56.5103V49.8541H70.3627L70.3418 49.8755Z" fill="#D7702D"/>
<path d="M19.1225 37.2267C21.0925 37.2267 22.6852 35.6001 22.6852 33.5882C22.6852 31.5764 21.0715 29.9712 19.1225 29.9712C17.1735 29.9712 15.5598 31.5978 15.5598 33.6096C15.5598 35.6215 17.1526 37.2481 19.1225 37.2481V37.2267Z" fill="#501665"/>
<path d="M27.0654 37.2267C29.0354 37.2267 30.6281 35.6001 30.6281 33.5882C30.6281 31.5764 29.0144 29.9712 27.0654 29.9712C25.1164 29.9712 23.5027 31.5978 23.5027 33.6096C23.5027 35.6215 25.0954 37.2481 27.0654 37.2481V37.2267Z" fill="#501665"/>
</g>
<path d="M105.625 22.3343C105.625 22.3343 105.974 17.7298 109.116 14.1838C110.214 12.9666 111.611 12.0669 113.107 11.4847C118.645 9.36769 120.341 7.93872 122.236 5.9805C124.232 3.91644 124.481 3.28134 125.479 0C125.479 5.18663 123.483 9.26184 123.483 9.26184C123.483 9.26184 120.141 15.6128 118.744 16.6713C117.447 16.9889 109.965 18.2591 105.625 22.3343Z" fill="#501665"/>
<path d="M110.763 62.2934C110.763 62.2934 116.35 52.767 111.461 47.845C110.912 48.4271 107.121 49.2739 104.427 47.3157C101.933 45.4634 101.384 41.7057 103.18 39.0595C103.929 37.948 105.026 37.3129 106.074 36.9425C108.767 35.9898 111.76 36.7308 113.806 38.8478C115.402 40.4884 117.048 43.2405 117.497 47.792C117.747 50.4383 117.497 53.1904 116.549 55.6778C114.504 61.2349 110.763 62.2934 110.763 62.2934Z" fill="#D7702D"/>
<path d="M100.885 43.3465C100.885 43.3465 98.7903 35.1432 111.96 32.6557C113.107 32.444 114.255 32.1794 115.402 31.756C134.907 24.5053 138 5.18777 138 5.18777C138 5.18777 131.315 16.3549 122.685 17.4134C114.055 18.4719 105.824 21.0652 103.38 28.8981C102.133 26.2518 103.529 18.9482 104.926 16.4078C107.021 12.7031 106.024 5.08192 99.8878 5.18777C97.5432 5.55824 95.7972 3.38833 95.6475 3.60003C95.4979 3.81173 101.783 7.83401 97.8923 15.8786C94.0013 23.9231 84.8225 32.3382 100.885 43.3465Z" fill="#C17BFF"/>
<path d="M125.18 75.9998C125.18 75.9998 120.041 71.8188 125.18 62.9803C130.318 54.1419 126.177 48.2673 125.18 45.7798C126.028 50.5959 120.989 58.6934 118.844 62.0806C117.547 64.0918 117.248 66.738 118.245 68.9608C120.091 73.1419 125.18 75.9998 125.18 75.9998Z" fill="#501665"/>
<path d="M120.39 31.0669C119.592 31.6491 115.502 33.6073 107.47 35.0892C115.502 33.7661 119.143 42.1811 119.293 46.4151C119.443 50.6491 119.143 56.0474 115.402 61.0223C111.76 66.7382 117.946 71.3427 117.946 71.3427C117.946 71.3427 114.753 67.1087 116.649 63.1393C118.545 59.17 121.438 55.8357 122.685 51.3371C123.184 49.4847 123.433 47.3677 123.533 45.5154C123.683 42.922 123.384 40.3287 122.785 37.8413C122.436 36.4123 122.186 34.8775 120.39 31.0669Z" fill="#501665"/>
<defs>
<clipPath id="clip0_66_319">
<rect width="81.3138" height="33.2811" fill="white" transform="translate(6.25488 29.9282)"/>
</clipPath>
</defs>
</svg>
